<mxfile host="Electron" agent="Mozilla/5.0 (Windows NT 10.0; Win64; x64) AppleWebKit/537.36 (KHTML, like Gecko) draw.io/26.0.16 Chrome/132.0.6834.196 Electron/34.2.0 Safari/537.36" version="26.0.16" pages="4">
  <diagram id="L0Jz2WJgk3EG3UUFF-xA" name="contexto-negocio">
    <mxGraphModel dx="1120" dy="1693" grid="1" gridSize="10" guides="1" tooltips="1" connect="1" arrows="1" fold="1" page="1" pageScale="1" pageWidth="827" pageHeight="1169" math="0" shadow="0">
      <root>
        <mxCell id="0" />
        <mxCell id="1" parent="0" />
        <object placeholders="1" c4Name="Dispositivos de monitoreo" c4Type="Software System" c4Description="Dispositivos electrónicos de monitoreo de tránsito que captura información de vehículos." label="&lt;font style=&quot;font-size: 16px&quot;&gt;&lt;b&gt;%c4Name%&lt;/b&gt;&lt;/font&gt;&lt;div&gt;[%c4Type%]&lt;/div&gt;&lt;br&gt;&lt;div&gt;&lt;font style=&quot;font-size: 11px&quot;&gt;&lt;font color=&quot;#cccccc&quot;&gt;%c4Description%&lt;/font&gt;&lt;/div&gt;" id="g9IKEOnsPv7GcVOOJkeO-1">
          <mxCell style="rounded=1;whiteSpace=wrap;html=1;labelBackgroundColor=none;fillColor=#8C8496;fontColor=#ffffff;align=center;arcSize=10;strokeColor=#736782;metaEdit=1;resizable=0;points=[[0.25,0,0],[0.5,0,0],[0.75,0,0],[1,0.25,0],[1,0.5,0],[1,0.75,0],[0.75,1,0],[0.5,1,0],[0.25,1,0],[0,0.75,0],[0,0.5,0],[0,0.25,0]];" vertex="1" parent="1">
            <mxGeometry x="40" y="200" width="240" height="120" as="geometry" />
          </mxCell>
        </object>
        <object placeholders="1" c4Name="Entidades Policiales" c4Type="Person" c4Description="Funcionarios de entidades policiales con acceso a la solución propuesta." label="&lt;font style=&quot;font-size: 16px&quot;&gt;&lt;b&gt;%c4Name%&lt;/b&gt;&lt;/font&gt;&lt;div&gt;[%c4Type%]&lt;/div&gt;&lt;br&gt;&lt;div&gt;&lt;font style=&quot;font-size: 11px&quot;&gt;&lt;font color=&quot;#cccccc&quot;&gt;%c4Description%&lt;/font&gt;&lt;/div&gt;" id="g9IKEOnsPv7GcVOOJkeO-2">
          <mxCell style="html=1;fontSize=11;dashed=0;whiteSpace=wrap;fillColor=#6C6477;strokeColor=#4D4D4D;fontColor=#ffffff;shape=mxgraph.c4.person2;align=center;metaEdit=1;points=[[0.5,0,0],[1,0.5,0],[1,0.75,0],[0.75,1,0],[0.5,1,0],[0.25,1,0],[0,0.75,0],[0,0.5,0]];resizable=0;" vertex="1" parent="1">
            <mxGeometry x="450" y="-20" width="200" height="180" as="geometry" />
          </mxCell>
        </object>
        <object placeholders="1" c4Name="Sistema para Combatir el Hurto de Vehículos" c4Type="Software System" c4Description="Solución tecnológica que permitirá centralizar los eventos capturados por los dispositivos de monitoreo." label="&lt;font style=&quot;font-size: 16px&quot;&gt;&lt;b&gt;%c4Name%&lt;/b&gt;&lt;/font&gt;&lt;div&gt;[%c4Type%]&lt;/div&gt;&lt;br&gt;&lt;div&gt;&lt;font style=&quot;font-size: 11px&quot;&gt;&lt;font color=&quot;#cccccc&quot;&gt;%c4Description%&lt;/font&gt;&lt;/div&gt;" id="g9IKEOnsPv7GcVOOJkeO-3">
          <mxCell style="rounded=1;whiteSpace=wrap;html=1;labelBackgroundColor=none;fillColor=#1061B0;fontColor=#ffffff;align=center;arcSize=10;strokeColor=#0D5091;metaEdit=1;resizable=0;points=[[0.25,0,0],[0.5,0,0],[0.75,0,0],[1,0.25,0],[1,0.5,0],[1,0.75,0],[0.75,1,0],[0.5,1,0],[0.25,1,0],[0,0.75,0],[0,0.5,0],[0,0.25,0]];" vertex="1" parent="1">
            <mxGeometry x="440" y="310" width="240" height="120" as="geometry" />
          </mxCell>
        </object>
        <object placeholders="1" c4Name="Base Vehículos Hurtados" c4Type="Software System" c4Description="Base de datos de vehículos hurtados pertenecientes a las entidades policiales de cada una de las ciudades adscritas." label="&lt;font style=&quot;font-size: 16px&quot;&gt;&lt;b&gt;%c4Name%&lt;/b&gt;&lt;/font&gt;&lt;div&gt;[%c4Type%]&lt;/div&gt;&lt;br&gt;&lt;div&gt;&lt;font style=&quot;font-size: 11px&quot;&gt;&lt;font color=&quot;#cccccc&quot;&gt;%c4Description%&lt;/font&gt;&lt;/div&gt;" id="g9IKEOnsPv7GcVOOJkeO-4">
          <mxCell style="rounded=1;whiteSpace=wrap;html=1;labelBackgroundColor=none;fillColor=#8C8496;fontColor=#ffffff;align=center;arcSize=10;strokeColor=#736782;metaEdit=1;resizable=0;points=[[0.25,0,0],[0.5,0,0],[0.75,0,0],[1,0.25,0],[1,0.5,0],[1,0.75,0],[0.75,1,0],[0.5,1,0],[0.25,1,0],[0,0.75,0],[0,0.5,0],[0,0.25,0]];" vertex="1" parent="1">
            <mxGeometry x="50" y="430" width="240" height="120" as="geometry" />
          </mxCell>
        </object>
        <object placeholders="1" c4Type="Relationship" c4Description="Envía eventos&lt;BR&gt;capturados&lt;BR&gt;(HTTP)" label="&lt;div style=&quot;text-align: left&quot;&gt;&lt;div style=&quot;text-align: center&quot;&gt;&lt;b&gt;%c4Description%&lt;/b&gt;&lt;/div&gt;" id="g9IKEOnsPv7GcVOOJkeO-7">
          <mxCell style="endArrow=blockThin;html=1;fontSize=10;fontColor=#404040;strokeWidth=1;endFill=1;strokeColor=#828282;elbow=vertical;metaEdit=1;endSize=14;startSize=14;jumpStyle=arc;jumpSize=16;rounded=0;edgeStyle=orthogonalEdgeStyle;exitX=0.996;exitY=0.592;exitDx=0;exitDy=0;exitPerimeter=0;entryX=0;entryY=0.25;entryDx=0;entryDy=0;entryPerimeter=0;" edge="1" parent="1" source="g9IKEOnsPv7GcVOOJkeO-1" target="g9IKEOnsPv7GcVOOJkeO-3">
            <mxGeometry x="-0.6436" y="31" width="240" relative="1" as="geometry">
              <mxPoint x="300" y="270" as="sourcePoint" />
              <mxPoint x="540" y="270" as="targetPoint" />
              <mxPoint as="offset" />
            </mxGeometry>
          </mxCell>
        </object>
        <object placeholders="1" c4Type="Relationship" c4Description="Carga inicial&lt;BR&gt;vehículos&lt;BR&gt;hurtados&lt;BR&gt;(carga masiva)" label="&lt;div style=&quot;text-align: left&quot;&gt;&lt;div style=&quot;text-align: center&quot;&gt;&lt;b&gt;%c4Description%&lt;/b&gt;&lt;/div&gt;" id="g9IKEOnsPv7GcVOOJkeO-8">
          <mxCell style="endArrow=blockThin;html=1;fontSize=10;fontColor=#404040;strokeWidth=1;endFill=1;strokeColor=#828282;elbow=vertical;metaEdit=1;endSize=14;startSize=14;jumpStyle=arc;jumpSize=16;rounded=0;edgeStyle=orthogonalEdgeStyle;exitX=1;exitY=0.5;exitDx=0;exitDy=0;exitPerimeter=0;entryX=0;entryY=0.5;entryDx=0;entryDy=0;entryPerimeter=0;" edge="1" parent="1" source="g9IKEOnsPv7GcVOOJkeO-4" target="g9IKEOnsPv7GcVOOJkeO-3">
            <mxGeometry x="-0.7037" y="-30" width="240" relative="1" as="geometry">
              <mxPoint x="300" y="270" as="sourcePoint" />
              <mxPoint x="540" y="270" as="targetPoint" />
              <mxPoint as="offset" />
            </mxGeometry>
          </mxCell>
        </object>
        <object placeholders="1" c4Type="Relationship" c4Description="Actualiza base&lt;BR&gt;vehículos hurtados&lt;BR&gt;(interface web)" label="&lt;div style=&quot;text-align: left&quot;&gt;&lt;div style=&quot;text-align: center&quot;&gt;&lt;b&gt;%c4Description%&lt;/b&gt;&lt;/div&gt;" id="g9IKEOnsPv7GcVOOJkeO-9">
          <mxCell style="endArrow=blockThin;html=1;fontSize=10;fontColor=#404040;strokeWidth=1;endFill=1;strokeColor=#828282;elbow=vertical;metaEdit=1;endSize=14;startSize=14;jumpStyle=arc;jumpSize=16;rounded=0;edgeStyle=orthogonalEdgeStyle;exitX=0.25;exitY=1;exitDx=0;exitDy=0;exitPerimeter=0;entryX=0.25;entryY=0;entryDx=0;entryDy=0;entryPerimeter=0;" edge="1" parent="1" source="g9IKEOnsPv7GcVOOJkeO-2" target="g9IKEOnsPv7GcVOOJkeO-3">
            <mxGeometry x="-0.6" y="-60" width="240" relative="1" as="geometry">
              <mxPoint x="300" y="270" as="sourcePoint" />
              <mxPoint x="540" y="270" as="targetPoint" />
              <mxPoint as="offset" />
            </mxGeometry>
          </mxCell>
        </object>
        <object placeholders="1" c4Type="Relationship" c4Description="Entrega eventos&lt;BR&gt;de vehículo&lt;BR&gt;consultado&lt;BR&gt;(interface web)" label="&lt;div style=&quot;text-align: left&quot;&gt;&lt;div style=&quot;text-align: center&quot;&gt;&lt;b&gt;%c4Description%&lt;/b&gt;&lt;/div&gt;" id="g9IKEOnsPv7GcVOOJkeO-10">
          <mxCell style="endArrow=blockThin;html=1;fontSize=10;fontColor=#404040;strokeWidth=1;endFill=1;strokeColor=#828282;elbow=vertical;metaEdit=1;endSize=14;startSize=14;jumpStyle=arc;jumpSize=16;rounded=0;edgeStyle=orthogonalEdgeStyle;entryX=0.75;entryY=1;entryDx=0;entryDy=0;entryPerimeter=0;exitX=0.75;exitY=0;exitDx=0;exitDy=0;exitPerimeter=0;" edge="1" parent="1" source="g9IKEOnsPv7GcVOOJkeO-3" target="g9IKEOnsPv7GcVOOJkeO-2">
            <mxGeometry x="-0.5294" y="-50" width="240" relative="1" as="geometry">
              <mxPoint x="300" y="270" as="sourcePoint" />
              <mxPoint x="540" y="270" as="targetPoint" />
              <mxPoint as="offset" />
            </mxGeometry>
          </mxCell>
        </object>
      </root>
    </mxGraphModel>
  </diagram>
  <diagram id="Kbqz8hL3hcQVJfJqIamq" name="contenedores">
    <mxGraphModel dx="1120" dy="1693" grid="1" gridSize="10" guides="1" tooltips="1" connect="1" arrows="1" fold="1" page="1" pageScale="1" pageWidth="827" pageHeight="1169" math="0" shadow="0">
      <root>
        <mxCell id="0" />
        <mxCell id="1" parent="0" />
        <object placeholders="1" c4Name="Dispositivos de Monitoreo" c4Type="Software System" c4Description="Capturan visualizaciones de vehículos." label="&lt;font style=&quot;font-size: 16px&quot;&gt;&lt;b&gt;%c4Name%&lt;/b&gt;&lt;/font&gt;&lt;div&gt;[%c4Type%]&lt;/div&gt;&lt;br&gt;&lt;div&gt;&lt;font style=&quot;font-size: 11px&quot;&gt;&lt;font color=&quot;#cccccc&quot;&gt;%c4Description%&lt;/font&gt;&lt;/div&gt;" id="uFh0Kh5taXZ5dTUsu0kp-1">
          <mxCell style="rounded=1;whiteSpace=wrap;html=1;labelBackgroundColor=none;fillColor=#8C8496;fontColor=#ffffff;align=center;arcSize=10;strokeColor=#736782;metaEdit=1;resizable=0;points=[[0.25,0,0],[0.5,0,0],[0.75,0,0],[1,0.25,0],[1,0.5,0],[1,0.75,0],[0.75,1,0],[0.5,1,0],[0.25,1,0],[0,0.75,0],[0,0.5,0],[0,0.25,0]];" parent="1" vertex="1">
            <mxGeometry x="120" y="530" width="240" height="120" as="geometry" />
          </mxCell>
        </object>
        <object placeholders="1" c4Name="API de Integración" c4Type="Aplicación Go" c4Description="Recupera los eventos almacenados en el dispositivo de monitoreo y se los envía al broker de mensajería" label="&lt;font style=&quot;font-size: 16px&quot;&gt;&lt;b&gt;%c4Name%&lt;/b&gt;&lt;/font&gt;&lt;div&gt;[%c4Type%]&lt;/div&gt;&lt;br&gt;&lt;div&gt;&lt;font style=&quot;font-size: 11px&quot;&gt;&lt;font color=&quot;#cccccc&quot;&gt;%c4Description%&lt;/font&gt;&lt;/div&gt;" id="uFh0Kh5taXZ5dTUsu0kp-3">
          <mxCell style="rounded=1;whiteSpace=wrap;html=1;labelBackgroundColor=none;fillColor=#1061B0;fontColor=#ffffff;align=center;arcSize=10;strokeColor=#0D5091;metaEdit=1;resizable=0;points=[[0.25,0,0],[0.5,0,0],[0.75,0,0],[1,0.25,0],[1,0.5,0],[1,0.75,0],[0.75,1,0],[0.5,1,0],[0.25,1,0],[0,0.75,0],[0,0.5,0],[0,0.25,0]];" parent="1" vertex="1">
            <mxGeometry x="120" y="280" width="240" height="120" as="geometry" />
          </mxCell>
        </object>
        <object placeholders="1" c4Name="Cola de Mensajes" c4Type="Container" c4Technology="Apache Kafka" c4Description="Recibe los eventos capturadas por cada dispositivo de monitoreo adscrito a la solución." label="&lt;font style=&quot;font-size: 16px&quot;&gt;&lt;b&gt;%c4Name%&lt;/b&gt;&lt;/font&gt;&lt;div&gt;[%c4Type%:&amp;nbsp;%c4Technology%]&lt;/div&gt;&lt;br&gt;&lt;div&gt;&lt;font style=&quot;font-size: 11px&quot;&gt;&lt;font color=&quot;#E6E6E6&quot;&gt;%c4Description%&lt;/font&gt;&lt;/div&gt;" id="uFh0Kh5taXZ5dTUsu0kp-4">
          <mxCell style="shape=cylinder3;size=15;direction=south;whiteSpace=wrap;html=1;boundedLbl=1;rounded=0;labelBackgroundColor=none;fillColor=#23A2D9;fontSize=12;fontColor=#ffffff;align=center;strokeColor=#0E7DAD;metaEdit=1;points=[[0.5,0,0],[1,0.25,0],[1,0.5,0],[1,0.75,0],[0.5,1,0],[0,0.75,0],[0,0.5,0],[0,0.25,0]];resizable=0;" parent="1" vertex="1">
            <mxGeometry x="480" y="250" width="240" height="120" as="geometry" />
          </mxCell>
        </object>
        <object placeholders="1" c4Name="Gateway de Seguridad" c4Type="Java / Spring Boot" c4Description="Recupera los eventos almacenados en el dispositivo de monitoreo y se los envía al brker de mensajería" label="&lt;font style=&quot;font-size: 16px&quot;&gt;&lt;b&gt;%c4Name%&lt;/b&gt;&lt;/font&gt;&lt;div&gt;[%c4Type%]&lt;/div&gt;&lt;br&gt;&lt;div&gt;&lt;font style=&quot;font-size: 11px&quot;&gt;&lt;font color=&quot;#cccccc&quot;&gt;%c4Description%&lt;/font&gt;&lt;/div&gt;" id="QQIuA4a6uS8zo3iflJcX-1">
          <mxCell style="rounded=1;whiteSpace=wrap;html=1;labelBackgroundColor=none;fillColor=#1061B0;fontColor=#ffffff;align=center;arcSize=10;strokeColor=#0D5091;metaEdit=1;resizable=0;points=[[0.25,0,0],[0.5,0,0],[0.75,0,0],[1,0.25,0],[1,0.5,0],[1,0.75,0],[0.75,1,0],[0.5,1,0],[0.25,1,0],[0,0.75,0],[0,0.5,0],[0,0.25,0]];" parent="1" vertex="1">
            <mxGeometry x="480" y="40" width="240" height="120" as="geometry" />
          </mxCell>
        </object>
        <object placeholders="1" c4Name="API de Transformación" c4Type="Java / Spring Boot" c4Description="Recupera los eventos almacenados en el dispositivo de monitoreo y se los envía al broker de mensajería" label="&lt;font style=&quot;font-size: 16px&quot;&gt;&lt;b&gt;%c4Name%&lt;/b&gt;&lt;/font&gt;&lt;div&gt;[%c4Type%]&lt;/div&gt;&lt;br&gt;&lt;div&gt;&lt;font style=&quot;font-size: 11px&quot;&gt;&lt;font color=&quot;#cccccc&quot;&gt;%c4Description%&lt;/font&gt;&lt;/div&gt;" id="QQIuA4a6uS8zo3iflJcX-2">
          <mxCell style="rounded=1;whiteSpace=wrap;html=1;labelBackgroundColor=none;fillColor=#1061B0;fontColor=#ffffff;align=center;arcSize=10;strokeColor=#0D5091;metaEdit=1;resizable=0;points=[[0.25,0,0],[0.5,0,0],[0.75,0,0],[1,0.25,0],[1,0.5,0],[1,0.75,0],[0.75,1,0],[0.5,1,0],[0.25,1,0],[0,0.75,0],[0,0.5,0],[0,0.25,0]];" parent="1" vertex="1">
            <mxGeometry x="870" y="250" width="240" height="120" as="geometry" />
          </mxCell>
        </object>
        <object placeholders="1" c4Name="Base de Datos" c4Type="Container" c4Technology="MongoDB" c4Description="Almacena la información centralizada de vehículos hurtados y eventos capturados por los dispositivos de monitoreo." label="&lt;font style=&quot;font-size: 16px&quot;&gt;&lt;b&gt;%c4Name%&lt;/b&gt;&lt;/font&gt;&lt;div&gt;[%c4Type%:&amp;nbsp;%c4Technology%]&lt;/div&gt;&lt;br&gt;&lt;div&gt;&lt;font style=&quot;font-size: 11px&quot;&gt;&lt;font color=&quot;#E6E6E6&quot;&gt;%c4Description%&lt;/font&gt;&lt;/div&gt;" id="QQIuA4a6uS8zo3iflJcX-3">
          <mxCell style="shape=cylinder3;size=15;whiteSpace=wrap;html=1;boundedLbl=1;rounded=0;labelBackgroundColor=none;fillColor=#23A2D9;fontSize=12;fontColor=#ffffff;align=center;strokeColor=#0E7DAD;metaEdit=1;points=[[0.5,0,0],[1,0.25,0],[1,0.5,0],[1,0.75,0],[0.5,1,0],[0,0.75,0],[0,0.5,0],[0,0.25,0]];resizable=0;" parent="1" vertex="1">
            <mxGeometry x="786" y="520" width="240" height="120" as="geometry" />
          </mxCell>
        </object>
        <object placeholders="1" c4Name="Repositorio de Imágenes" c4Type="Container" c4Technology="AWS S3" c4Description="Description of storage type container role/responsibility." label="&lt;font style=&quot;font-size: 16px&quot;&gt;&lt;b&gt;%c4Name%&lt;/b&gt;&lt;/font&gt;&lt;div&gt;[%c4Type%:&amp;nbsp;%c4Technology%]&lt;/div&gt;&lt;br&gt;&lt;div&gt;&lt;font style=&quot;font-size: 11px&quot;&gt;&lt;font color=&quot;#E6E6E6&quot;&gt;%c4Description%&lt;/font&gt;&lt;/div&gt;" id="QQIuA4a6uS8zo3iflJcX-4">
          <mxCell style="shape=cylinder3;size=15;whiteSpace=wrap;html=1;boundedLbl=1;rounded=0;labelBackgroundColor=none;fillColor=#23A2D9;fontSize=12;fontColor=#ffffff;align=center;strokeColor=#0E7DAD;metaEdit=1;points=[[0.5,0,0],[1,0.25,0],[1,0.5,0],[1,0.75,0],[0.5,1,0],[0,0.75,0],[0,0.5,0],[0,0.25,0]];resizable=0;" parent="1" vertex="1">
            <mxGeometry x="1040" y="520" width="240" height="120" as="geometry" />
          </mxCell>
        </object>
        <object placeholders="1" c4Name="Herramienta de Análisis de Datos" c4Type="Elasticsearch/Kibana" c4Description="Componente que permite extraer información relacionada con vehículos hurtados y las visualizaciones captadas." label="&lt;font style=&quot;font-size: 16px&quot;&gt;&lt;b&gt;%c4Name%&lt;/b&gt;&lt;/font&gt;&lt;div&gt;[%c4Type%]&lt;/div&gt;&lt;br&gt;&lt;div&gt;&lt;font style=&quot;font-size: 11px&quot;&gt;&lt;font color=&quot;#cccccc&quot;&gt;%c4Description%&lt;/font&gt;&lt;/div&gt;" id="QQIuA4a6uS8zo3iflJcX-5">
          <mxCell style="rounded=1;whiteSpace=wrap;html=1;labelBackgroundColor=none;fillColor=#1061B0;fontColor=#ffffff;align=center;arcSize=10;strokeColor=#0D5091;metaEdit=1;resizable=0;points=[[0.25,0,0],[0.5,0,0],[0.75,0,0],[1,0.25,0],[1,0.5,0],[1,0.75,0],[0.75,1,0],[0.5,1,0],[0.25,1,0],[0,0.75,0],[0,0.5,0],[0,0.25,0]];" parent="1" vertex="1">
            <mxGeometry x="452" y="780" width="240" height="120" as="geometry" />
          </mxCell>
        </object>
        <object placeholders="1" c4Type="Relationship" c4Description="Intenta&lt;br&gt;publicar mensaje&lt;br&gt;con información&lt;br&gt;de eventos" label="&lt;div style=&quot;text-align: left&quot;&gt;&lt;div style=&quot;text-align: center&quot;&gt;&lt;b&gt;%c4Description%&lt;/b&gt;&lt;/div&gt;" id="QQIuA4a6uS8zo3iflJcX-7">
          <mxCell style="endArrow=blockThin;html=1;fontSize=10;fontColor=#404040;strokeWidth=1;endFill=1;strokeColor=#828282;elbow=vertical;metaEdit=1;endSize=14;startSize=14;jumpStyle=arc;jumpSize=16;rounded=0;edgeStyle=orthogonalEdgeStyle;entryX=0;entryY=0.5;entryDx=0;entryDy=0;entryPerimeter=0;exitX=0.833;exitY=0;exitDx=0;exitDy=0;exitPerimeter=0;" parent="1" source="uFh0Kh5taXZ5dTUsu0kp-3" target="QQIuA4a6uS8zo3iflJcX-1" edge="1">
            <mxGeometry x="-0.8236" y="-50" width="240" relative="1" as="geometry">
              <mxPoint x="370" y="270" as="sourcePoint" />
              <mxPoint x="780" y="130" as="targetPoint" />
              <Array as="points">
                <mxPoint x="320" y="250" />
                <mxPoint x="390" y="250" />
                <mxPoint x="390" y="100" />
              </Array>
              <mxPoint x="-50" y="-50" as="offset" />
            </mxGeometry>
          </mxCell>
        </object>
        <object placeholders="1" c4Type="Relationship" c4Description="Permite publicar&lt;br&gt;mensajes&lt;br&gt;a peticiones autorizadas" label="&lt;div style=&quot;text-align: left&quot;&gt;&lt;div style=&quot;text-align: center&quot;&gt;&lt;b&gt;%c4Description%&lt;/b&gt;&lt;/div&gt;" id="QQIuA4a6uS8zo3iflJcX-8">
          <mxCell style="endArrow=blockThin;html=1;fontSize=10;fontColor=#404040;strokeWidth=1;endFill=1;strokeColor=#828282;elbow=vertical;metaEdit=1;endSize=14;startSize=14;jumpStyle=arc;jumpSize=16;rounded=0;edgeStyle=orthogonalEdgeStyle;entryX=0;entryY=0.5;entryDx=0;entryDy=0;entryPerimeter=0;exitX=0.5;exitY=1;exitDx=0;exitDy=0;exitPerimeter=0;" parent="1" source="QQIuA4a6uS8zo3iflJcX-1" target="uFh0Kh5taXZ5dTUsu0kp-4" edge="1">
            <mxGeometry x="-0.5556" y="60" width="240" relative="1" as="geometry">
              <mxPoint x="540" y="130" as="sourcePoint" />
              <mxPoint x="780" y="130" as="targetPoint" />
              <mxPoint as="offset" />
            </mxGeometry>
          </mxCell>
        </object>
        <object placeholders="1" c4Type="Relationship" c4Description="Entrega&lt;br&gt;mensajes&lt;br&gt;a subscriptores" label="&lt;div style=&quot;text-align: left&quot;&gt;&lt;div style=&quot;text-align: center&quot;&gt;&lt;b&gt;%c4Description%&lt;/b&gt;&lt;/div&gt;" id="QQIuA4a6uS8zo3iflJcX-9">
          <mxCell style="endArrow=blockThin;html=1;fontSize=10;fontColor=#404040;strokeWidth=1;endFill=1;strokeColor=#828282;elbow=vertical;metaEdit=1;endSize=14;startSize=14;jumpStyle=arc;jumpSize=16;rounded=0;edgeStyle=orthogonalEdgeStyle;entryX=0;entryY=0.5;entryDx=0;entryDy=0;entryPerimeter=0;exitX=0.5;exitY=0;exitDx=0;exitDy=0;exitPerimeter=0;" parent="1" source="uFh0Kh5taXZ5dTUsu0kp-4" target="QQIuA4a6uS8zo3iflJcX-2" edge="1">
            <mxGeometry x="-0.2" y="20" width="240" relative="1" as="geometry">
              <mxPoint x="540" y="130" as="sourcePoint" />
              <mxPoint x="780" y="130" as="targetPoint" />
              <mxPoint as="offset" />
            </mxGeometry>
          </mxCell>
        </object>
        <object placeholders="1" c4Type="Relationship" c4Description="Guarda imágenes&lt;br&gt;de vehículos" label="&lt;div style=&quot;text-align: left&quot;&gt;&lt;div style=&quot;text-align: center&quot;&gt;&lt;b&gt;%c4Description%&lt;/b&gt;&lt;/div&gt;" id="QQIuA4a6uS8zo3iflJcX-10">
          <mxCell style="endArrow=blockThin;html=1;fontSize=10;fontColor=#404040;strokeWidth=1;endFill=1;strokeColor=#828282;elbow=vertical;metaEdit=1;endSize=14;startSize=14;jumpStyle=arc;jumpSize=16;rounded=0;edgeStyle=orthogonalEdgeStyle;entryX=0.5;entryY=0;entryDx=0;entryDy=0;entryPerimeter=0;exitX=0.75;exitY=1;exitDx=0;exitDy=0;exitPerimeter=0;" parent="1" source="QQIuA4a6uS8zo3iflJcX-2" target="QQIuA4a6uS8zo3iflJcX-4" edge="1">
            <mxGeometry x="-0.8462" y="50" width="240" relative="1" as="geometry">
              <mxPoint x="540" y="130" as="sourcePoint" />
              <mxPoint x="780" y="130" as="targetPoint" />
              <mxPoint as="offset" />
            </mxGeometry>
          </mxCell>
        </object>
        <object placeholders="1" c4Type="Relationship" c4Description="Actualiza información&lt;br&gt;de vehículos" label="&lt;div style=&quot;text-align: left&quot;&gt;&lt;div style=&quot;text-align: center&quot;&gt;&lt;b&gt;%c4Description%&lt;/b&gt;&lt;/div&gt;" id="QQIuA4a6uS8zo3iflJcX-11">
          <mxCell style="endArrow=blockThin;html=1;fontSize=10;fontColor=#404040;strokeWidth=1;endFill=1;strokeColor=#828282;elbow=vertical;metaEdit=1;endSize=14;startSize=14;jumpStyle=arc;jumpSize=16;rounded=0;edgeStyle=orthogonalEdgeStyle;exitX=0.5;exitY=1;exitDx=0;exitDy=0;exitPerimeter=0;entryX=0.5;entryY=0;entryDx=0;entryDy=0;entryPerimeter=0;" parent="1" source="QQIuA4a6uS8zo3iflJcX-2" target="QQIuA4a6uS8zo3iflJcX-3" edge="1">
            <mxGeometry y="30" width="240" relative="1" as="geometry">
              <mxPoint x="960" y="380" as="sourcePoint" />
              <mxPoint x="820" y="500" as="targetPoint" />
              <Array as="points">
                <mxPoint x="990" y="460" />
                <mxPoint x="906" y="460" />
              </Array>
              <mxPoint as="offset" />
            </mxGeometry>
          </mxCell>
        </object>
        <object placeholders="1" c4Name="API de Consulta" c4Type="Java / Spring Boot" c4Description="Recupera los eventos almacenados en el dispositivo de monitoreo y se los envía al broker de mensajería" label="&lt;font style=&quot;font-size: 16px&quot;&gt;&lt;b&gt;%c4Name%&lt;/b&gt;&lt;/font&gt;&lt;div&gt;[%c4Type%]&lt;/div&gt;&lt;br&gt;&lt;div&gt;&lt;font style=&quot;font-size: 11px&quot;&gt;&lt;font color=&quot;#cccccc&quot;&gt;%c4Description%&lt;/font&gt;&lt;/div&gt;" id="QQIuA4a6uS8zo3iflJcX-13">
          <mxCell style="rounded=1;whiteSpace=wrap;html=1;labelBackgroundColor=none;fillColor=#1061B0;fontColor=#ffffff;align=center;arcSize=10;strokeColor=#0D5091;metaEdit=1;resizable=0;points=[[0.25,0,0],[0.5,0,0],[0.75,0,0],[1,0.25,0],[1,0.5,0],[1,0.75,0],[0.75,1,0],[0.5,1,0],[0.25,1,0],[0,0.75,0],[0,0.5,0],[0,0.25,0]];" parent="1" vertex="1">
            <mxGeometry x="880" y="750" width="240" height="120" as="geometry" />
          </mxCell>
        </object>
        <object placeholders="1" c4Name="Aplicación SPA" c4Type="Container" c4Technology="NodeJS" c4Description="Description of web browser container role/responsibility." label="&lt;font style=&quot;font-size: 16px&quot;&gt;&lt;b&gt;%c4Name%&lt;/b&gt;&lt;/font&gt;&lt;div&gt;[%c4Type%:&amp;nbsp;%c4Technology%]&lt;/div&gt;&lt;br&gt;&lt;div&gt;&lt;font style=&quot;font-size: 11px&quot;&gt;&lt;font color=&quot;#E6E6E6&quot;&gt;%c4Description%&lt;/font&gt;&lt;/div&gt;" id="QQIuA4a6uS8zo3iflJcX-16">
          <mxCell style="shape=mxgraph.c4.webBrowserContainer2;whiteSpace=wrap;html=1;boundedLbl=1;rounded=0;labelBackgroundColor=none;strokeColor=#118ACD;fillColor=#23A2D9;strokeColor=#118ACD;strokeColor2=#0E7DAD;fontSize=12;fontColor=#ffffff;align=center;metaEdit=1;points=[[0.5,0,0],[1,0.25,0],[1,0.5,0],[1,0.75,0],[0.5,1,0],[0,0.75,0],[0,0.5,0],[0,0.25,0]];resizable=0;" parent="1" vertex="1">
            <mxGeometry x="452" y="540" width="240" height="160" as="geometry" />
          </mxCell>
        </object>
        <object placeholders="1" c4Type="Relationship" c4Description="Envía información&lt;br&gt;de vehículos&lt;br&gt;hurtados&#xa;[JSON/HTTP]" label="&lt;div style=&quot;text-align: left&quot;&gt;&lt;div style=&quot;text-align: center&quot;&gt;&lt;b&gt;%c4Description%&lt;/b&gt;&lt;/div&gt;" id="QQIuA4a6uS8zo3iflJcX-21">
          <mxCell style="endArrow=blockThin;html=1;fontSize=10;fontColor=#404040;strokeWidth=1;endFill=1;strokeColor=#828282;elbow=vertical;metaEdit=1;endSize=14;startSize=14;jumpStyle=arc;jumpSize=16;rounded=0;edgeStyle=orthogonalEdgeStyle;entryX=0.25;entryY=1;entryDx=0;entryDy=0;entryPerimeter=0;exitX=0.617;exitY=0.063;exitDx=0;exitDy=0;exitPerimeter=0;" parent="1" source="QQIuA4a6uS8zo3iflJcX-16" target="QQIuA4a6uS8zo3iflJcX-2" edge="1">
            <mxGeometry x="-0.8087" y="-50" width="240" relative="1" as="geometry">
              <mxPoint x="530" y="530" as="sourcePoint" />
              <mxPoint x="890" y="380" as="targetPoint" />
              <Array as="points">
                <mxPoint x="600" y="420" />
                <mxPoint x="930" y="420" />
              </Array>
              <mxPoint y="-1" as="offset" />
            </mxGeometry>
          </mxCell>
        </object>
        <object placeholders="1" c4Name="Sistemas de Autenticación" c4Type="Software System" c4Description="" label="&lt;font style=&quot;font-size: 16px&quot;&gt;&lt;b&gt;%c4Name%&lt;/b&gt;&lt;/font&gt;&lt;div&gt;[%c4Type%]&lt;/div&gt;&lt;br&gt;&lt;div&gt;&lt;font style=&quot;font-size: 11px&quot;&gt;&lt;font color=&quot;#cccccc&quot;&gt;%c4Description%&lt;/font&gt;&lt;/div&gt;" id="QQIuA4a6uS8zo3iflJcX-22">
          <mxCell style="rounded=1;whiteSpace=wrap;html=1;labelBackgroundColor=none;fillColor=#8C8496;fontColor=#ffffff;align=center;arcSize=10;strokeColor=#736782;metaEdit=1;resizable=0;points=[[0.25,0,0],[0.5,0,0],[0.75,0,0],[1,0.25,0],[1,0.5,0],[1,0.75,0],[0.75,1,0],[0.5,1,0],[0.25,1,0],[0,0.75,0],[0,0.5,0],[0,0.25,0]];" parent="1" vertex="1">
            <mxGeometry x="870" y="40" width="240" height="120" as="geometry" />
          </mxCell>
        </object>
        <object placeholders="1" c4Type="Relationship" c4Description="Entrega&lt;br&gt;delegación de&lt;br&gt;autorización" label="&lt;div style=&quot;text-align: left&quot;&gt;&lt;div style=&quot;text-align: center&quot;&gt;&lt;b&gt;%c4Description%&lt;/b&gt;&lt;/div&gt;" id="QQIuA4a6uS8zo3iflJcX-23">
          <mxCell style="endArrow=blockThin;html=1;fontSize=10;fontColor=#404040;strokeWidth=1;endFill=1;strokeColor=#828282;elbow=vertical;metaEdit=1;endSize=14;startSize=14;jumpStyle=arc;jumpSize=16;rounded=0;edgeStyle=orthogonalEdgeStyle;exitX=0;exitY=0.25;exitDx=0;exitDy=0;exitPerimeter=0;entryX=1;entryY=0.25;entryDx=0;entryDy=0;entryPerimeter=0;" parent="1" source="QQIuA4a6uS8zo3iflJcX-22" target="QQIuA4a6uS8zo3iflJcX-1" edge="1">
            <mxGeometry x="0.0667" y="-30" width="240" relative="1" as="geometry">
              <mxPoint x="350" y="240" as="sourcePoint" />
              <mxPoint x="590" y="240" as="targetPoint" />
              <mxPoint as="offset" />
            </mxGeometry>
          </mxCell>
        </object>
        <object placeholders="1" c4Type="Relationship" c4Description="Solicita&lt;br&gt;confirmación&lt;br&gt;de identidades" label="&lt;div style=&quot;text-align: left&quot;&gt;&lt;div style=&quot;text-align: center&quot;&gt;&lt;b&gt;%c4Description%&lt;/b&gt;&lt;/div&gt;" id="QQIuA4a6uS8zo3iflJcX-24">
          <mxCell style="endArrow=blockThin;html=1;fontSize=10;fontColor=#404040;strokeWidth=1;endFill=1;strokeColor=#828282;elbow=vertical;metaEdit=1;endSize=14;startSize=14;jumpStyle=arc;jumpSize=16;rounded=0;edgeStyle=orthogonalEdgeStyle;entryX=0;entryY=0.75;entryDx=0;entryDy=0;entryPerimeter=0;exitX=1;exitY=0.75;exitDx=0;exitDy=0;exitPerimeter=0;" parent="1" source="QQIuA4a6uS8zo3iflJcX-1" target="QQIuA4a6uS8zo3iflJcX-22" edge="1">
            <mxGeometry x="0.0667" y="-20" width="240" relative="1" as="geometry">
              <mxPoint x="350" y="130" as="sourcePoint" />
              <mxPoint x="590" y="130" as="targetPoint" />
              <mxPoint as="offset" />
            </mxGeometry>
          </mxCell>
        </object>
        <object placeholders="1" c4Type="Relationship" c4Description="Solicita&lt;br&gt;información&lt;br&gt;de vehículo&lt;br&gt;por placa&lt;br&gt;[JSON/HTTP]" label="&lt;div style=&quot;text-align: left&quot;&gt;&lt;div style=&quot;text-align: center&quot;&gt;&lt;b&gt;%c4Description%&lt;/b&gt;&lt;/div&gt;" id="QQIuA4a6uS8zo3iflJcX-25">
          <mxCell style="endArrow=blockThin;html=1;fontSize=10;fontColor=#404040;strokeWidth=1;endFill=1;strokeColor=#828282;elbow=vertical;metaEdit=1;endSize=14;startSize=14;jumpStyle=arc;jumpSize=16;rounded=0;edgeStyle=orthogonalEdgeStyle;exitX=1;exitY=0.5;exitDx=0;exitDy=0;exitPerimeter=0;entryX=0;entryY=0.25;entryDx=0;entryDy=0;entryPerimeter=0;" parent="1" source="QQIuA4a6uS8zo3iflJcX-16" target="QQIuA4a6uS8zo3iflJcX-13" edge="1">
            <mxGeometry x="-0.6733" y="40" width="240" relative="1" as="geometry">
              <mxPoint x="530" y="600" as="sourcePoint" />
              <mxPoint x="770" y="600" as="targetPoint" />
              <Array as="points">
                <mxPoint x="770" y="620" />
                <mxPoint x="770" y="780" />
              </Array>
              <mxPoint as="offset" />
            </mxGeometry>
          </mxCell>
        </object>
        <object placeholders="1" c4Type="Relationship" c4Description="Solicita información&lt;br&gt;por criterios&lt;br&gt;de búsqueda&lt;BR&gt;[JSON/HTTP]" label="&lt;div style=&quot;text-align: left&quot;&gt;&lt;div style=&quot;text-align: center&quot;&gt;&lt;b&gt;%c4Description%&lt;/b&gt;&lt;/div&gt;" id="QQIuA4a6uS8zo3iflJcX-32">
          <mxCell style="endArrow=blockThin;html=1;fontSize=10;fontColor=#404040;strokeWidth=1;endFill=1;strokeColor=#828282;elbow=vertical;metaEdit=1;endSize=14;startSize=14;jumpStyle=arc;jumpSize=16;rounded=0;edgeStyle=orthogonalEdgeStyle;exitX=1;exitY=0.5;exitDx=0;exitDy=0;exitPerimeter=0;entryX=0;entryY=0.75;entryDx=0;entryDy=0;entryPerimeter=0;" parent="1" source="QQIuA4a6uS8zo3iflJcX-5" target="QQIuA4a6uS8zo3iflJcX-13" edge="1">
            <mxGeometry x="-0.383" y="-30" width="240" relative="1" as="geometry">
              <mxPoint x="530" y="600" as="sourcePoint" />
              <mxPoint x="770" y="600" as="targetPoint" />
              <mxPoint as="offset" />
            </mxGeometry>
          </mxCell>
        </object>
        <object placeholders="1" c4Type="Relationship" c4Description="Solicita&lt;br&gt;información&lt;br&gt;de vehículo&lt;br&gt;por placa&lt;br&gt;[TCP]" label="&lt;div style=&quot;text-align: left&quot;&gt;&lt;div style=&quot;text-align: center&quot;&gt;&lt;b&gt;%c4Description%&lt;/b&gt;&lt;/div&gt;" id="QQIuA4a6uS8zo3iflJcX-38">
          <mxCell style="endArrow=blockThin;html=1;fontSize=10;fontColor=#404040;strokeWidth=1;endFill=1;strokeColor=#828282;elbow=vertical;metaEdit=1;endSize=14;startSize=14;jumpStyle=arc;jumpSize=16;rounded=0;edgeStyle=orthogonalEdgeStyle;exitX=0.25;exitY=0;exitDx=0;exitDy=0;exitPerimeter=0;entryX=0.641;entryY=1.014;entryDx=0;entryDy=0;entryPerimeter=0;" parent="1" source="QQIuA4a6uS8zo3iflJcX-13" target="QQIuA4a6uS8zo3iflJcX-3" edge="1">
            <mxGeometry x="-0.2624" y="40" width="240" relative="1" as="geometry">
              <mxPoint x="500" y="650" as="sourcePoint" />
              <mxPoint x="916" y="650" as="targetPoint" />
              <mxPoint x="-1" y="-1" as="offset" />
            </mxGeometry>
          </mxCell>
        </object>
        <object placeholders="1" c4Type="Relationship" c4Description="Permite&lt;br&gt;vistar páginas&lt;br&gt;a peticiones&lt;br&gt;autenticadas" label="&lt;div style=&quot;text-align: left&quot;&gt;&lt;div style=&quot;text-align: center&quot;&gt;&lt;b&gt;%c4Description%&lt;/b&gt;&lt;/div&gt;" id="QQIuA4a6uS8zo3iflJcX-40">
          <mxCell style="endArrow=blockThin;html=1;fontSize=10;fontColor=#404040;strokeWidth=1;endFill=1;strokeColor=#828282;elbow=vertical;metaEdit=1;endSize=14;startSize=14;jumpStyle=arc;jumpSize=16;rounded=0;edgeStyle=orthogonalEdgeStyle;exitX=0;exitY=0.75;exitDx=0;exitDy=0;exitPerimeter=0;entryX=0;entryY=0.5;entryDx=0;entryDy=0;entryPerimeter=0;" parent="1" source="QQIuA4a6uS8zo3iflJcX-1" target="QQIuA4a6uS8zo3iflJcX-16" edge="1">
            <mxGeometry x="-0.6172" y="51" width="240" relative="1" as="geometry">
              <mxPoint x="489" y="130" as="sourcePoint" />
              <mxPoint x="468" y="710" as="targetPoint" />
              <Array as="points">
                <mxPoint x="429" y="130" />
                <mxPoint x="429" y="620" />
              </Array>
              <mxPoint y="1" as="offset" />
            </mxGeometry>
          </mxCell>
        </object>
        <object placeholders="1" c4Name="System name" c4Type="SystemScopeBoundary" c4Application="Sistema para Combatir el Hurto de Vehículos" label="&lt;font style=&quot;font-size: 16px&quot;&gt;&lt;b&gt;&lt;div style=&quot;text-align: left&quot;&gt;%c4Name%&lt;/div&gt;&lt;/b&gt;&lt;/font&gt;&lt;div style=&quot;text-align: left&quot;&gt;[%c4Application%]&lt;/div&gt;" id="QQIuA4a6uS8zo3iflJcX-41">
          <mxCell style="rounded=1;fontSize=11;whiteSpace=wrap;html=1;dashed=1;arcSize=20;fillColor=none;strokeColor=#666666;fontColor=#333333;labelBackgroundColor=none;align=left;verticalAlign=bottom;labelBorderColor=none;spacingTop=0;spacing=10;dashPattern=8 4;metaEdit=1;rotatable=0;perimeter=rectanglePerimeter;noLabel=0;labelPadding=0;allowArrows=0;connectable=0;expand=0;recursiveResize=0;editable=1;pointerEvents=0;absoluteArcSize=1;points=[[0.25,0,0],[0.5,0,0],[0.75,0,0],[1,0.25,0],[1,0.5,0],[1,0.75,0],[0.75,1,0],[0.5,1,0],[0.25,1,0],[0,0.75,0],[0,0.5,0],[0,0.25,0]];" parent="1" vertex="1">
            <mxGeometry x="60" y="-10" width="1280" height="950" as="geometry" />
          </mxCell>
        </object>
        <object placeholders="1" c4Name="Usuario" c4Type="Person" c4Description="Usuario de las entidades policiales" label="&lt;font style=&quot;font-size: 16px&quot;&gt;&lt;b&gt;%c4Name%&lt;/b&gt;&lt;/font&gt;&lt;div&gt;[%c4Type%]&lt;/div&gt;&lt;br&gt;&lt;div&gt;&lt;font style=&quot;font-size: 11px&quot;&gt;&lt;font color=&quot;#cccccc&quot;&gt;%c4Description%&lt;/font&gt;&lt;/div&gt;" id="QQIuA4a6uS8zo3iflJcX-42">
          <mxCell style="html=1;fontSize=11;dashed=0;whiteSpace=wrap;fillColor=#6C6477;strokeColor=#4D4D4D;fontColor=#ffffff;shape=mxgraph.c4.person2;align=center;metaEdit=1;points=[[0.5,0,0],[1,0.5,0],[1,0.75,0],[0.75,1,0],[0.5,1,0],[0.25,1,0],[0,0.75,0],[0,0.5,0]];resizable=0;" parent="1" vertex="1">
            <mxGeometry x="120" y="10" width="200" height="180" as="geometry" />
          </mxCell>
        </object>
        <object placeholders="1" c4Type="Relationship" c4Description="Extrae información&lt;br&gt;de vehículos&lt;br&gt;visualizados" label="&lt;div style=&quot;text-align: left&quot;&gt;&lt;div style=&quot;text-align: center&quot;&gt;&lt;b&gt;%c4Description%&lt;/b&gt;&lt;/div&gt;" id="m5xAJmpLmMhXj_JT6usF-1">
          <mxCell style="endArrow=blockThin;html=1;fontSize=10;fontColor=#404040;strokeWidth=1;endFill=1;strokeColor=#828282;elbow=vertical;metaEdit=1;endSize=14;startSize=14;jumpStyle=arc;jumpSize=16;rounded=0;edgeStyle=orthogonalEdgeStyle;exitX=0.5;exitY=1;exitDx=0;exitDy=0;exitPerimeter=0;" parent="1" source="uFh0Kh5taXZ5dTUsu0kp-3" target="uFh0Kh5taXZ5dTUsu0kp-1" edge="1">
            <mxGeometry x="-0.5713" y="50" width="240" relative="1" as="geometry">
              <mxPoint x="270" y="660" as="sourcePoint" />
              <mxPoint x="510" y="660" as="targetPoint" />
              <mxPoint as="offset" />
            </mxGeometry>
          </mxCell>
        </object>
        <object placeholders="1" c4Type="Relationship" c4Description="Entrega imagen&lt;br&gt;de vehículo&lt;br&gt;por id&lt;br&gt;[TCP]" label="&lt;div style=&quot;text-align: left&quot;&gt;&lt;div style=&quot;text-align: center&quot;&gt;&lt;b&gt;%c4Description%&lt;/b&gt;&lt;/div&gt;" id="m5xAJmpLmMhXj_JT6usF-2">
          <mxCell style="endArrow=blockThin;html=1;fontSize=10;fontColor=#404040;strokeWidth=1;endFill=1;strokeColor=#828282;elbow=vertical;metaEdit=1;endSize=14;startSize=14;jumpStyle=arc;jumpSize=16;rounded=0;edgeStyle=orthogonalEdgeStyle;exitX=0.75;exitY=0;exitDx=0;exitDy=0;exitPerimeter=0;entryX=0.321;entryY=0.981;entryDx=0;entryDy=0;entryPerimeter=0;" parent="1" source="QQIuA4a6uS8zo3iflJcX-13" target="QQIuA4a6uS8zo3iflJcX-4" edge="1">
            <mxGeometry x="0.3233" y="-34" width="240" relative="1" as="geometry">
              <mxPoint x="440" y="520" as="sourcePoint" />
              <mxPoint x="680" y="520" as="targetPoint" />
              <mxPoint x="-11" y="24" as="offset" />
            </mxGeometry>
          </mxCell>
        </object>
        <object placeholders="1" c4Type="Relationship" c4Description="Intenta visitar&lt;BR&gt;páginas de consulta[JSON/HTTP]" label="&lt;div style=&quot;text-align: left&quot;&gt;&lt;div style=&quot;text-align: center&quot;&gt;&lt;b&gt;%c4Description%&lt;/b&gt;&lt;/div&gt;" id="m5xAJmpLmMhXj_JT6usF-3">
          <mxCell style="endArrow=blockThin;html=1;fontSize=10;fontColor=#404040;strokeWidth=1;endFill=1;strokeColor=#828282;elbow=vertical;metaEdit=1;endSize=14;startSize=14;jumpStyle=arc;jumpSize=16;rounded=0;edgeStyle=orthogonalEdgeStyle;exitX=1;exitY=0.75;exitDx=0;exitDy=0;exitPerimeter=0;entryX=0;entryY=0.25;entryDx=0;entryDy=0;entryPerimeter=0;" parent="1" source="QQIuA4a6uS8zo3iflJcX-42" target="QQIuA4a6uS8zo3iflJcX-1" edge="1">
            <mxGeometry x="-0.0213" y="20" width="240" relative="1" as="geometry">
              <mxPoint x="440" y="380" as="sourcePoint" />
              <mxPoint x="680" y="380" as="targetPoint" />
              <Array as="points">
                <mxPoint x="360" y="145" />
                <mxPoint x="360" y="70" />
              </Array>
              <mxPoint x="20" y="-21" as="offset" />
            </mxGeometry>
          </mxCell>
        </object>
      </root>
    </mxGraphModel>
  </diagram>
  <diagram id="smy1oDsKFC82aYSRXiiI" name="secuencia-api-integración">
    <mxGraphModel dx="1120" dy="524" grid="1" gridSize="10" guides="1" tooltips="1" connect="1" arrows="1" fold="1" page="1" pageScale="1" pageWidth="827" pageHeight="1169" math="0" shadow="0">
      <root>
        <mxCell id="0" />
        <mxCell id="1" parent="0" />
        <UserObject label="" mermaidData="{&#xa;  &quot;data&quot;: &quot;sequenceDiagram\n    participant I as API de Integración\n    participant DM as Dispositivo de Monitoreo\n    participant G as Gateway de Seguridad\n    participant K as Broker de Mensajería\n    loop Ejecución cada 5 minutos\n    I-&gt;&gt;DM: Obtiene eventos&lt;br&gt;capturados\n    I-&gt;&gt;I: Convierte eventos&lt;br&gt; a JSON\n    I-&gt;&gt;G: Publica mensaje&lt;br&gt;con eventos recuperados\n    G-&gt;&gt;G: Valida autenticación \n    G-&gt;&gt;K: Permite publicar&lt;br&gt;mensajes con eventos&lt;br&gt;recuperados\n    I-&gt;&gt;I: Confirma entrega de mensaje\n    I-&gt;&gt;DM: Elimina eventos&lt;br&gt;que ya fueron procesados\n    end&quot;&#xa;}" id="3WN_ujnLZnCRTL2MS1Md-8">
          <mxCell style="shape=image;noLabel=1;verticalAlign=top;imageAspect=1;image=data:image/svg+xml,PHN2ZyBhcmlhLXJvbGVkZXNjcmlwdGlvbj0ic2VxdWVuY2UiIHJvbGU9ImdyYXBoaWNzLWRvY3VtZW50IGRvY3VtZW50IiB2aWV3Qm94PSItODcuNSAtMTAgMTAxNC41IDgwNyIgc3R5bGU9Im1heC13aWR0aDogMTAxNC41cHg7IiB4bWxucz0iaHR0cDovL3d3dy53My5vcmcvMjAwMC9zdmciIHdpZHRoPSIxMDAlIiBpZD0iZ2VNZXJtYWlkT3V0cHV0LTE3NDEyMzQ0Mzk3ODgiPjxnPjxyZWN0IGNsYXNzPSJhY3RvciBhY3Rvci1ib3R0b20iIHJ5PSIzIiByeD0iMyIgbmFtZT0iSyIgaGVpZ2h0PSI2NSIgd2lkdGg9IjE2OSIgc3Ryb2tlPSIjNjY2IiBmaWxsPSIjZWFlYWVhIiB5PSI3MjEiIHg9IjcwOCI+PC9yZWN0Pjx0ZXh0IHN0eWxlPSJ0ZXh0LWFuY2hvcjogbWlkZGxlOyBmb250LXNpemU6IDE2cHg7IGZvbnQtd2VpZ2h0OiA0MDA7IiBjbGFzcz0iYWN0b3IgYWN0b3ItYm94IiBhbGlnbm1lbnQtYmFzZWxpbmU9ImNlbnRyYWwiIGRvbWluYW50LWJhc2VsaW5lPSJjZW50cmFsIiB5PSI3NTMuNSIgeD0iNzkyLjUiPjx0c3BhbiBkeT0iMCIgeD0iNzkyLjUiPkJyb2tlciBkZSBNZW5zYWplcsOtYTwvdHNwYW4+PC90ZXh0PjwvZz48Zz48cmVjdCBjbGFzcz0iYWN0b3IgYWN0b3ItYm90dG9tIiByeT0iMyIgcng9IjMiIG5hbWU9IkciIGhlaWdodD0iNjUiIHdpZHRoPSIxNzkiIHN0cm9rZT0iIzY2NiIgZmlsbD0iI2VhZWFlYSIgeT0iNzIxIiB4PSI0NzgiPjwvcmVjdD48dGV4dCBzdHlsZT0idGV4dC1hbmNob3I6IG1pZGRsZTsgZm9udC1zaXplOiAxNnB4OyBmb250LXdlaWdodDogNDAwOyIgY2xhc3M9ImFjdG9yIGFjdG9yLWJveCIgYWxpZ25tZW50LWJhc2VsaW5lPSJjZW50cmFsIiBkb21pbmFudC1iYXNlbGluZT0iY2VudHJhbCIgeT0iNzUzLjUiIHg9IjU2Ny41Ij48dHNwYW4gZHk9IjAiIHg9IjU2Ny41Ij5HYXRld2F5IGRlIFNlZ3VyaWRhZDwvdHNwYW4+PC90ZXh0PjwvZz48Zz48cmVjdCBjbGFzcz0iYWN0b3IgYWN0b3ItYm90dG9tIiByeT0iMyIgcng9IjMiIG5hbWU9IkRNIiBoZWlnaHQ9IjY1IiB3aWR0aD0iMTk5IiBzdHJva2U9IiM2NjYiIGZpbGw9IiNlYWVhZWEiIHk9IjcyMSIgeD0iMjI5Ij48L3JlY3Q+PHRleHQgc3R5bGU9InRleHQtYW5jaG9yOiBtaWRkbGU7IGZvbnQtc2l6ZTogMTZweDsgZm9udC13ZWlnaHQ6IDQwMDsiIGNsYXNzPSJhY3RvciBhY3Rvci1ib3giIGFsaWdubWVudC1iYXNlbGluZT0iY2VudHJhbCIgZG9taW5hbnQtYmFzZWxpbmU9ImNlbnRyYWwiIHk9Ijc1My41IiB4PSIzMjguNSI+PHRzcGFuIGR5PSIwIiB4PSIzMjguNSI+RGlzcG9zaXRpdm8gZGUgTW9uaXRvcmVvPC90c3Bhbj48L3RleHQ+PC9nPjxnPjxyZWN0IGNsYXNzPSJhY3RvciBhY3Rvci1ib3R0b20iIHJ5PSIzIiByeD0iMyIgbmFtZT0iSSIgaGVpZ2h0PSI2NSIgd2lkdGg9IjE1MSIgc3Ryb2tlPSIjNjY2IiBmaWxsPSIjZWFlYWVhIiB5PSI3MjEiIHg9IjAiPjwvcmVjdD48dGV4dCBzdHlsZT0idGV4dC1hbmNob3I6IG1pZGRsZTsgZm9udC1zaXplOiAxNnB4OyBmb250LXdlaWdodDogNDAwOyIgY2xhc3M9ImFjdG9yIGFjdG9yLWJveCIgYWxpZ25tZW50LWJhc2VsaW5lPSJjZW50cmFsIiBkb21pbmFudC1iYXNlbGluZT0iY2VudHJhbCIgeT0iNzUzLjUiIHg9Ijc1LjUiPjx0c3BhbiBkeT0iMCIgeD0iNzUuNSI+QVBJIGRlIEludGVncmFjacOzbjwvdHNwYW4+PC90ZXh0PjwvZz48Zz48bGluZSBuYW1lPSJLIiBzdHJva2U9IiM5OTkiIHN0cm9rZS13aWR0aD0iMC41cHgiIGNsYXNzPSJhY3Rvci1saW5lIDIwMCIgeTI9IjcyMSIgeDI9Ijc5Mi41IiB5MT0iNjUiIHgxPSI3OTIuNSIgaWQ9ImFjdG9yNTMiPjwvbGluZT48ZyBpZD0icm9vdC01MyI+PHJlY3QgY2xhc3M9ImFjdG9yIGFjdG9yLXRvcCIgcnk9IjMiIHJ4PSIzIiBuYW1lPSJLIiBoZWlnaHQ9IjY1IiB3aWR0aD0iMTY5IiBzdHJva2U9IiM2NjYiIGZpbGw9IiNlYWVhZWEiIHk9IjAiIHg9IjcwOCI+PC9yZWN0Pjx0ZXh0IHN0eWxlPSJ0ZXh0LWFuY2hvcjogbWlkZGxlOyBmb250LXNpemU6IDE2cHg7IGZvbnQtd2VpZ2h0OiA0MDA7IiBjbGFzcz0iYWN0b3IgYWN0b3ItYm94IiBhbGlnbm1lbnQtYmFzZWxpbmU9ImNlbnRyYWwiIGRvbWluYW50LWJhc2VsaW5lPSJjZW50cmFsIiB5PSIzMi41IiB4PSI3OTIuNSI+PHRzcGFuIGR5PSIwIiB4PSI3OTIuNSI+QnJva2VyIGRlIE1lbnNhamVyw61hPC90c3Bhbj48L3RleHQ+PC9nPjwvZz48Zz48bGluZSBuYW1lPSJHIiBzdHJva2U9IiM5OTkiIHN0cm9rZS13aWR0aD0iMC41cHgiIGNsYXNzPSJhY3Rvci1saW5lIDIwMCIgeTI9IjcyMSIgeDI9IjU2Ny41IiB5MT0iNjUiIHgxPSI1NjcuNSIgaWQ9ImFjdG9yNTIiPjwvbGluZT48ZyBpZD0icm9vdC01MiI+PHJlY3QgY2xhc3M9ImFjdG9yIGFjdG9yLXRvcCIgcnk9IjMiIHJ4PSIzIiBuYW1lPSJHIiBoZWlnaHQ9IjY1IiB3aWR0aD0iMTc5IiBzdHJva2U9IiM2NjYiIGZpbGw9IiNlYWVhZWEiIHk9IjAiIHg9IjQ3OCI+PC9yZWN0Pjx0ZXh0IHN0eWxlPSJ0ZXh0LWFuY2hvcjogbWlkZGxlOyBmb250LXNpemU6IDE2cHg7IGZvbnQtd2VpZ2h0OiA0MDA7IiBjbGFzcz0iYWN0b3IgYWN0b3ItYm94IiBhbGlnbm1lbnQtYmFzZWxpbmU9ImNlbnRyYWwiIGRvbWluYW50LWJhc2VsaW5lPSJjZW50cmFsIiB5PSIzMi41IiB4PSI1NjcuNSI+PHRzcGFuIGR5PSIwIiB4PSI1NjcuNSI+R2F0ZXdheSBkZSBTZWd1cmlkYWQ8L3RzcGFuPjwvdGV4dD48L2c+PC9nPjxnPjxsaW5lIG5hbWU9IkRNIiBzdHJva2U9IiM5OTkiIHN0cm9rZS13aWR0aD0iMC41cHgiIGNsYXNzPSJhY3Rvci1saW5lIDIwMCIgeTI9IjcyMSIgeDI9IjMyOC41IiB5MT0iNjUiIHgxPSIzMjguNSIgaWQ9ImFjdG9yNTEiPjwvbGluZT48ZyBpZD0icm9vdC01MSI+PHJlY3QgY2xhc3M9ImFjdG9yIGFjdG9yLXRvcCIgcnk9IjMiIHJ4PSIzIiBuYW1lPSJETSIgaGVpZ2h0PSI2NSIgd2lkdGg9IjE5OSIgc3Ryb2tlPSIjNjY2IiBmaWxsPSIjZWFlYWVhIiB5PSIwIiB4PSIyMjkiPjwvcmVjdD48dGV4dCBzdHlsZT0idGV4dC1hbmNob3I6IG1pZGRsZTsgZm9udC1zaXplOiAxNnB4OyBmb250LXdlaWdodDogNDAwOyIgY2xhc3M9ImFjdG9yIGFjdG9yLWJveCIgYWxpZ25tZW50LWJhc2VsaW5lPSJjZW50cmFsIiBkb21pbmFudC1iYXNlbGluZT0iY2VudHJhbCIgeT0iMzIuNSIgeD0iMzI4LjUiPjx0c3BhbiBkeT0iMCIgeD0iMzI4LjUiPkRpc3Bvc2l0aXZvIGRlIE1vbml0b3JlbzwvdHNwYW4+PC90ZXh0PjwvZz48L2c+PGc+PGxpbmUgbmFtZT0iSSIgc3Ryb2tlPSIjOTk5IiBzdHJva2Utd2lkdGg9IjAuNXB4IiBjbGFzcz0iYWN0b3ItbGluZSAyMDAiIHkyPSI3MjEiIHgyPSI3NS41IiB5MT0iNjUiIHgxPSI3NS41IiBpZD0iYWN0b3I1MCI+PC9saW5lPjxnIGlkPSJyb290LTUwIj48cmVjdCBjbGFzcz0iYWN0b3IgYWN0b3ItdG9wIiByeT0iMyIgcng9IjMiIG5hbWU9IkkiIGhlaWdodD0iNjUiIHdpZHRoPSIxNTEiIHN0cm9rZT0iIzY2NiIgZmlsbD0iI2VhZWFlYSIgeT0iMCIgeD0iMCI+PC9yZWN0Pjx0ZXh0IHN0eWxlPSJ0ZXh0LWFuY2hvcjogbWlkZGxlOyBmb250LXNpemU6IDE2cHg7IGZvbnQtd2VpZ2h0OiA0MDA7IiBjbGFzcz0iYWN0b3IgYWN0b3ItYm94IiBhbGlnbm1lbnQtYmFzZWxpbmU9ImNlbnRyYWwiIGRvbWluYW50LWJhc2VsaW5lPSJjZW50cmFsIiB5PSIzMi41IiB4PSI3NS41Ij48dHNwYW4gZHk9IjAiIHg9Ijc1LjUiPkFQSSBkZSBJbnRlZ3JhY2nDs248L3RzcGFuPjwvdGV4dD48L2c+PC9nPjxzdHlsZT4jZ2VNZXJtYWlkT3V0cHV0LTE3NDEyMzQ0Mzk3ODh7Zm9udC1mYW1pbHk6InRyZWJ1Y2hldCBtcyIsdmVyZGFuYSxhcmlhbCxzYW5zLXNlcmlmO2ZvbnQtc2l6ZToxNnB4O2ZpbGw6IzAwMDAwMDt9I2dlTWVybWFpZE91dHB1dC0xNzQxMjM0NDM5Nzg4IC5lcnJvci1pY29ue2ZpbGw6IzU1MjIyMjt9I2dlTWVybWFpZE91dHB1dC0xNzQxMjM0NDM5Nzg4IC5lcnJvci10ZXh0e2ZpbGw6IzU1MjIyMjtzdHJva2U6IzU1MjIyMjt9I2dlTWVybWFpZE91dHB1dC0xNzQxMjM0NDM5Nzg4IC5lZGdlLXRoaWNrbmVzcy1ub3JtYWx7c3Ryb2tlLXdpZHRoOjFweDt9I2dlTWVybWFpZE91dHB1dC0xNzQxMjM0NDM5Nzg4IC5lZGdlLXRoaWNrbmVzcy10aGlja3tzdHJva2Utd2lkdGg6My41cHg7fSNnZU1lcm1haWRPdXRwdXQtMTc0MTIzNDQzOTc4OCAuZWRnZS1wYXR0ZXJuLXNvbGlke3N0cm9rZS1kYXNoYXJyYXk6MDt9I2dlTWVybWFpZE91dHB1dC0xNzQxMjM0NDM5Nzg4IC5lZGdlLXRoaWNrbmVzcy1pbnZpc2libGV7c3Ryb2tlLXdpZHRoOjA7ZmlsbDpub25lO30jZ2VNZXJtYWlkT3V0cHV0LTE3NDEyMzQ0Mzk3ODggLmVkZ2UtcGF0dGVybi1kYXNoZWR7c3Ryb2tlLWRhc2hhcnJheTozO30jZ2VNZXJtYWlkT3V0cHV0LTE3NDEyMzQ0Mzk3ODggLmVkZ2UtcGF0dGVybi1kb3R0ZWR7c3Ryb2tlLWRhc2hhcnJheToyO30jZ2VNZXJtYWlkT3V0cHV0LTE3NDEyMzQ0Mzk3ODggLm1hcmtlcntmaWxsOiM2NjY7c3Ryb2tlOiM2NjY7fSNnZU1lcm1haWRPdXRwdXQtMTc0MTIzNDQzOTc4OCAubWFya2VyLmNyb3Nze3N0cm9rZTojNjY2O30jZ2VNZXJtYWlkT3V0cHV0LTE3NDEyMzQ0Mzk3ODggc3Zne2ZvbnQtZmFtaWx5OiJ0cmVidWNoZXQgbXMiLHZlcmRhbmEsYXJpYWwsc2Fucy1zZXJpZjtmb250LXNpemU6MTZweDt9I2dlTWVybWFpZE91dHB1dC0xNzQxMjM0NDM5Nzg4IHB7bWFyZ2luOjA7fSNnZU1lcm1haWRPdXRwdXQtMTc0MTIzNDQzOTc4OCAuYWN0b3J7c3Ryb2tlOmhzbCgwLCAwJSwgODMlKTtmaWxsOiNlZWU7fSNnZU1lcm1haWRPdXRwdXQtMTc0MTIzNDQzOTc4OCB0ZXh0LmFjdG9yJmd0O3RzcGFue2ZpbGw6IzMzMztzdHJva2U6bm9uZTt9I2dlTWVybWFpZE91dHB1dC0xNzQxMjM0NDM5Nzg4IC5hY3Rvci1saW5le3N0cm9rZTpoc2woMCwgMCUsIDgzJSk7fSNnZU1lcm1haWRPdXRwdXQtMTc0MTIzNDQzOTc4OCAubWVzc2FnZUxpbmUwe3N0cm9rZS13aWR0aDoxLjU7c3Ryb2tlLWRhc2hhcnJheTpub25lO3N0cm9rZTojMzMzO30jZ2VNZXJtYWlkT3V0cHV0LTE3NDEyMzQ0Mzk3ODggLm1lc3NhZ2VMaW5lMXtzdHJva2Utd2lkdGg6MS41O3N0cm9rZS1kYXNoYXJyYXk6MiwyO3N0cm9rZTojMzMzO30jZ2VNZXJtYWlkT3V0cHV0LTE3NDEyMzQ0Mzk3ODggI2Fycm93aGVhZCBwYXRoe2ZpbGw6IzMzMztzdHJva2U6IzMzMzt9I2dlTWVybWFpZE91dHB1dC0xNzQxMjM0NDM5Nzg4IC5zZXF1ZW5jZU51bWJlcntmaWxsOndoaXRlO30jZ2VNZXJtYWlkT3V0cHV0LTE3NDEyMzQ0Mzk3ODggI3NlcXVlbmNlbnVtYmVye2ZpbGw6IzMzMzt9I2dlTWVybWFpZE91dHB1dC0xNzQxMjM0NDM5Nzg4ICNjcm9zc2hlYWQgcGF0aHtmaWxsOiMzMzM7c3Ryb2tlOiMzMzM7fSNnZU1lcm1haWRPdXRwdXQtMTc0MTIzNDQzOTc4OCAubWVzc2FnZVRleHR7ZmlsbDojMzMzO3N0cm9rZTpub25lO30jZ2VNZXJtYWlkT3V0cHV0LTE3NDEyMzQ0Mzk3ODggLmxhYmVsQm94e3N0cm9rZTpoc2woMCwgMCUsIDgzJSk7ZmlsbDojZWVlO30jZ2VNZXJtYWlkT3V0cHV0LTE3NDEyMzQ0Mzk3ODggLmxhYmVsVGV4dCwjZ2VNZXJtYWlkT3V0cHV0LTE3NDEyMzQ0Mzk3ODggLmxhYmVsVGV4dCZndDt0c3BhbntmaWxsOiMzMzM7c3Ryb2tlOm5vbmU7fSNnZU1lcm1haWRPdXRwdXQtMTc0MTIzNDQzOTc4OCAubG9vcFRleHQsI2dlTWVybWFpZE91dHB1dC0xNzQxMjM0NDM5Nzg4IC5sb29wVGV4dCZndDt0c3BhbntmaWxsOiMzMzM7c3Ryb2tlOm5vbmU7fSNnZU1lcm1haWRPdXRwdXQtMTc0MTIzNDQzOTc4OCAubG9vcExpbmV7c3Ryb2tlLXdpZHRoOjJweDtzdHJva2UtZGFzaGFycmF5OjIsMjtzdHJva2U6aHNsKDAsIDAlLCA4MyUpO2ZpbGw6aHNsKDAsIDAlLCA4MyUpO30jZ2VNZXJtYWlkT3V0cHV0LTE3NDEyMzQ0Mzk3ODggLm5vdGV7c3Ryb2tlOiM5OTk7ZmlsbDojNjY2O30jZ2VNZXJtYWlkT3V0cHV0LTE3NDEyMzQ0Mzk3ODggLm5vdGVUZXh0LCNnZU1lcm1haWRPdXRwdXQtMTc0MTIzNDQzOTc4OCAubm90ZVRleHQmZ3Q7dHNwYW57ZmlsbDojZmZmO3N0cm9rZTpub25lO30jZ2VNZXJtYWlkT3V0cHV0LTE3NDEyMzQ0Mzk3ODggLmFjdGl2YXRpb24we2ZpbGw6I2Y0ZjRmNDtzdHJva2U6IzY2Njt9I2dlTWVybWFpZE91dHB1dC0xNzQxMjM0NDM5Nzg4IC5hY3RpdmF0aW9uMXtmaWxsOiNmNGY0ZjQ7c3Ryb2tlOiM2NjY7fSNnZU1lcm1haWRPdXRwdXQtMTc0MTIzNDQzOTc4OCAuYWN0aXZhdGlvbjJ7ZmlsbDojZjRmNGY0O3N0cm9rZTojNjY2O30jZ2VNZXJtYWlkT3V0cHV0LTE3NDEyMzQ0Mzk3ODggLmFjdG9yUG9wdXBNZW51e3Bvc2l0aW9uOmFic29sdXRlO30jZ2VNZXJtYWlkT3V0cHV0LTE3NDEyMzQ0Mzk3ODggLmFjdG9yUG9wdXBNZW51UGFuZWx7cG9zaXRpb246YWJzb2x1dGU7ZmlsbDojZWVlO2JveC1zaGFkb3c6MHB4IDhweCAxNnB4IDBweCByZ2JhKDAsMCwwLDAuMik7ZmlsdGVyOmRyb3Atc2hhZG93KDNweCA1cHggMnB4IHJnYigwIDAgMCAvIDAuNCkpO30jZ2VNZXJtYWlkT3V0cHV0LTE3NDEyMzQ0Mzk3ODggLmFjdG9yLW1hbiBsaW5le3N0cm9rZTpoc2woMCwgMCUsIDgzJSk7ZmlsbDojZWVlO30jZ2VNZXJtYWlkT3V0cHV0LTE3NDEyMzQ0Mzk3ODggLmFjdG9yLW1hbiBjaXJjbGUsI2dlTWVybWFpZE91dHB1dC0xNzQxMjM0NDM5Nzg4IGxpbmV7c3Ryb2tlOmhzbCgwLCAwJSwgODMlKTtmaWxsOiNlZWU7c3Ryb2tlLXdpZHRoOjJweDt9I2dlTWVybWFpZE91dHB1dC0xNzQxMjM0NDM5Nzg4IDpyb290ey0tbWVybWFpZC1mb250LWZhbWlseToidHJlYnVjaGV0IG1zIix2ZXJkYW5hLGFyaWFsLHNhbnMtc2VyaWY7fTwvc3R5bGU+PGc+PC9nPjxkZWZzPjxzeW1ib2wgaGVpZ2h0PSIyNCIgd2lkdGg9IjI0IiBpZD0iY29tcHV0ZXIiPjxwYXRoIGQ9Ik0yIDJ2MTNoMjB2LTEzaC0yMHptMTggMTFoLTE2di05aDE2djl6bS0xMC4yMjggNmwuNDY2LTFoMy41MjRsLjQ2NyAxaC00LjQ1N3ptMTQuMjI4IDNoLTI0bDItNmgyLjEwNGwtMS4zMyA0aDE4LjQ1bC0xLjI5Ny00aDIuMDczbDIgNnptLTUtMTBoLTE0di03aDE0djd6IiB0cmFuc2Zvcm09InNjYWxlKC41KSI+PC9wYXRoPjwvc3ltYm9sPjwvZGVmcz48ZGVmcz48c3ltYm9sIGNsaXAtcnVsZT0iZXZlbm9kZCIgZmlsbC1ydWxlPSJldmVub2RkIiBpZD0iZGF0YWJhc2UiPjxwYXRoIGQ9Ik0xMi4yNTguMDAxbC4yNTYuMDA0LjI1NS4wMDUuMjUzLjAwOC4yNTEuMDEuMjQ5LjAxMi4yNDcuMDE1LjI0Ni4wMTYuMjQyLjAxOS4yNDEuMDIuMjM5LjAyMy4yMzYuMDI0LjIzMy4wMjcuMjMxLjAyOC4yMjkuMDMxLjIyNS4wMzIuMjIzLjAzNC4yMi4wMzYuMjE3LjAzOC4yMTQuMDQuMjExLjA0MS4yMDguMDQzLjIwNS4wNDUuMjAxLjA0Ni4xOTguMDQ4LjE5NC4wNS4xOTEuMDUxLjE4Ny4wNTMuMTgzLjA1NC4xOC4wNTYuMTc1LjA1Ny4xNzIuMDU5LjE2OC4wNi4xNjMuMDYxLjE2LjA2My4xNTUuMDY0LjE1LjA2Ni4wNzQuMDMzLjA3My4wMzMuMDcxLjAzNC4wNy4wMzQuMDY5LjAzNS4wNjguMDM1LjA2Ny4wMzUuMDY2LjAzNS4wNjQuMDM2LjA2NC4wMzYuMDYyLjAzNi4wNi4wMzYuMDYuMDM3LjA1OC4wMzcuMDU4LjAzNy4wNTUuMDM4LjA1NS4wMzguMDUzLjAzOC4wNTIuMDM4LjA1MS4wMzkuMDUuMDM5LjA0OC4wMzkuMDQ3LjAzOS4wNDUuMDQuMDQ0LjA0LjA0My4wNC4wNDEuMDQuMDQuMDQxLjAzOS4wNDEuMDM3LjA0MS4wMzYuMDQxLjAzNC4wNDEuMDMzLjA0Mi4wMzIuMDQyLjAzLjA0Mi4wMjkuMDQyLjAyNy4wNDIuMDI2LjA0My4wMjQuMDQzLjAyMy4wNDMuMDIxLjA0My4wMi4wNDMuMDE4LjA0NC4wMTcuMDQzLjAxNS4wNDQuMDEzLjA0NC4wMTIuMDQ0LjAxMS4wNDUuMDA5LjA0NC4wMDcuMDQ1LjAwNi4wNDUuMDA0LjA0NS4wMDIuMDQ1LjAwMS4wNDV2MTdsLS4wMDEuMDQ1LS4wMDIuMDQ1LS4wMDQuMDQ1LS4wMDYuMDQ1LS4wMDcuMDQ1LS4wMDkuMDQ0LS4wMTEuMDQ1LS4wMTIuMDQ0LS4wMTMuMDQ0LS4wMTUuMDQ0LS4wMTcuMDQzLS4wMTguMDQ0LS4wMi4wNDMtLjAyMS4wNDMtLjAyMy4wNDMtLjAyNC4wNDMtLjAyNi4wNDMtLjAyNy4wNDItLjAyOS4wNDItLjAzLjA0Mi0uMDMyLjA0Mi0uMDMzLjA0Mi0uMDM0LjA0MS0uMDM2LjA0MS0uMDM3LjA0MS0uMDM5LjA0MS0uMDQuMDQxLS4wNDEuMDQtLjA0My4wNC0uMDQ0LjA0LS4wNDUuMDQtLjA0Ny4wMzktLjA0OC4wMzktLjA1LjAzOS0uMDUxLjAzOS0uMDUyLjAzOC0uMDUzLjAzOC0uMDU1LjAzOC0uMDU1LjAzOC0uMDU4LjAzNy0uMDU4LjAzNy0uMDYuMDM3LS4wNi4wMzYtLjA2Mi4wMzYtLjA2NC4wMzYtLjA2NC4wMzYtLjA2Ni4wMzUtLjA2Ny4wMzUtLjA2OC4wMzUtLjA2OS4wMzUtLjA3LjAzNC0uMDcxLjAzNC0uMDczLjAzMy0uMDc0LjAzMy0uMTUuMDY2LS4xNTUuMDY0LS4xNi4wNjMtLjE2My4wNjEtLjE2OC4wNi0uMTcyLjA1OS0uMTc1LjA1Ny0uMTguMDU2LS4xODMuMDU0LS4xODcuMDUzLS4xOTEuMDUxLS4xOTQuMDUtLjE5OC4wNDgtLjIwMS4wNDYtLjIwNS4wNDUtLjIwOC4wNDMtLjIxMS4wNDEtLjIxNC4wNC0uMjE3LjAzOC0uMjIuMDM2LS4yMjMuMDM0LS4yMjUuMDMyLS4yMjkuMDMxLS4yMzEuMDI4LS4yMzMuMDI3LS4yMzYuMDI0LS4yMzkuMDIzLS4yNDEuMDItLjI0Mi4wMTktLjI0Ni4wMTYtLjI0Ny4wMTUtLjI0OS4wMTItLjI1MS4wMS0uMjUzLjAwOC0uMjU1LjAwNS0uMjU2LjAwNC0uMjU4LjAwMS0uMjU4LS4wMDEtLjI1Ni0uMDA0LS4yNTUtLjAwNS0uMjUzLS4wMDgtLjI1MS0uMDEtLjI0OS0uMDEyLS4yNDctLjAxNS0uMjQ1LS4wMTYtLjI0My0uMDE5LS4yNDEtLjAyLS4yMzgtLjAyMy0uMjM2LS4wMjQtLjIzNC0uMDI3LS4yMzEtLjAyOC0uMjI4LS4wMzEtLjIyNi0uMDMyLS4yMjMtLjAzNC0uMjItLjAzNi0uMjE3LS4wMzgtLjIxNC0uMDQtLjIxMS0uMDQxLS4yMDgtLjA0My0uMjA0LS4wNDUtLjIwMS0uMDQ2LS4xOTgtLjA0OC0uMTk1LS4wNS0uMTktLjA1MS0uMTg3LS4wNTMtLjE4NC0uMDU0LS4xNzktLjA1Ni0uMTc2LS4wNTctLjE3Mi0uMDU5LS4xNjctLjA2LS4xNjQtLjA2MS0uMTU5LS4wNjMtLjE1NS0uMDY0LS4xNTEtLjA2Ni0uMDc0LS4wMzMtLjA3Mi0uMDMzLS4wNzItLjAzNC0uMDctLjAzNC0uMDY5LS4wMzUtLjA2OC0uMDM1LS4wNjctLjAzNS0uMDY2LS4wMzUtLjA2NC0uMDM2LS4wNjMtLjAzNi0uMDYyLS4wMzYtLjA2MS0uMDM2LS4wNi0uMDM3LS4wNTgtLjAzNy0uMDU3LS4wMzctLjA1Ni0uMDM4LS4wNTUtLjAzOC0uMDUzLS4wMzgtLjA1Mi0uMDM4LS4wNTEtLjAzOS0uMDQ5LS4wMzktLjA0OS0uMDM5LS4wNDYtLjAzOS0uMDQ2LS4wNC0uMDQ0LS4wNC0uMDQzLS4wNC0uMDQxLS4wNC0uMDQtLjA0MS0uMDM5LS4wNDEtLjAzNy0uMDQxLS4wMzYtLjA0MS0uMDM0LS4wNDEtLjAzMy0uMDQyLS4wMzItLjA0Mi0uMDMtLjA0Mi0uMDI5LS4wNDItLjAyNy0uMDQyLS4wMjYtLjA0My0uMDI0LS4wNDMtLjAyMy0uMDQzLS4wMjEtLjA0My0uMDItLjA0My0uMDE4LS4wNDQtLjAxNy0uMDQzLS4wMTUtLjA0NC0uMDEzLS4wNDQtLjAxMi0uMDQ0LS4wMTEtLjA0NS0uMDA5LS4wNDQtLjAwNy0uMDQ1LS4wMDYtLjA0NS0uMDA0LS4wNDUtLjAwMi0uMDQ1LS4wMDEtLjA0NXYtMTdsLjAwMS0uMDQ1LjAwMi0uMDQ1LjAwNC0uMDQ1LjAwNi0uMDQ1LjAwNy0uMDQ1LjAwOS0uMDQ0LjAxMS0uMDQ1LjAxMi0uMDQ0LjAxMy0uMDQ0LjAxNS0uMDQ0LjAxNy0uMDQzLjAxOC0uMDQ0LjAyLS4wNDMuMDIxLS4wNDMuMDIzLS4wNDMuMDI0LS4wNDMuMDI2LS4wNDMuMDI3LS4wNDIuMDI5LS4wNDIuMDMtLjA0Mi4wMzItLjA0Mi4wMzMtLjA0Mi4wMzQtLjA0MS4wMzYtLjA0MS4wMzctLjA0MS4wMzktLjA0MS4wNC0uMDQxLjA0MS0uMDQuMDQzLS4wNC4wNDQtLjA0LjA0Ni0uMDQuMDQ2LS4wMzkuMDQ5LS4wMzkuMDQ5LS4wMzkuMDUxLS4wMzkuMDUyLS4wMzguMDUzLS4wMzguMDU1LS4wMzguMDU2LS4wMzguMDU3LS4wMzcuMDU4LS4wMzcuMDYtLjAzNy4wNjEtLjAzNi4wNjItLjAzNi4wNjMtLjAzNi4wNjQtLjAzNi4wNjYtLjAzNS4wNjctLjAzNS4wNjgtLjAzNS4wNjktLjAzNS4wNy0uMDM0LjA3Mi0uMDM0LjA3Mi0uMDMzLjA3NC0uMDMzLjE1MS0uMDY2LjE1NS0uMDY0LjE1OS0uMDYzLjE2NC0uMDYxLjE2Ny0uMDYuMTcyLS4wNTkuMTc2LS4wNTcuMTc5LS4wNTYuMTg0LS4wNTQuMTg3LS4wNTMuMTktLjA1MS4xOTUtLjA1LjE5OC0uMDQ4LjIwMS0uMDQ2LjIwNC0uMDQ1LjIwOC0uMDQzLjIxMS0uMDQxLjIxNC0uMDQuMjE3LS4wMzguMjItLjAzNi4yMjMtLjAzNC4yMjYtLjAzMi4yMjgtLjAzMS4yMzEtLjAyOC4yMzQtLjAyNy4yMzYtLjAyNC4yMzgtLjAyMy4yNDEtLjAyLjI0My0uMDE5LjI0NS0uMDE2LjI0Ny0uMDE1LjI0OS0uMDEyLjI1MS0uMDEuMjUzLS4wMDguMjU1LS4wMDUuMjU2LS4wMDQuMjU4LS4wMDEuMjU4LjAwMXptLTkuMjU4IDIwLjQ5OXYuMDFsLjAwMS4wMjEuMDAzLjAyMS4wMDQuMDIyLjAwNS4wMjEuMDA2LjAyMi4wMDcuMDIyLjAwOS4wMjMuMDEuMDIyLjAxMS4wMjMuMDEyLjAyMy4wMTMuMDIzLjAxNS4wMjMuMDE2LjAyNC4wMTcuMDIzLjAxOC4wMjQuMDE5LjAyNC4wMjEuMDI0LjAyMi4wMjUuMDIzLjAyNC4wMjQuMDI1LjA1Mi4wNDkuMDU2LjA1LjA2MS4wNTEuMDY2LjA1MS4wNy4wNTEuMDc1LjA1MS4wNzkuMDUyLjA4NC4wNTIuMDg4LjA1Mi4wOTIuMDUyLjA5Ny4wNTIuMTAyLjA1MS4xMDUuMDUyLjExLjA1Mi4xMTQuMDUxLjExOS4wNTEuMTIzLjA1MS4xMjcuMDUuMTMxLjA1LjEzNS4wNS4xMzkuMDQ4LjE0NC4wNDkuMTQ3LjA0Ny4xNTIuMDQ3LjE1NS4wNDcuMTYuMDQ1LjE2My4wNDUuMTY3LjA0My4xNzEuMDQzLjE3Ni4wNDEuMTc4LjA0MS4xODMuMDM5LjE4Ny4wMzkuMTkuMDM3LjE5NC4wMzUuMTk3LjAzNS4yMDIuMDMzLjIwNC4wMzEuMjA5LjAzLjIxMi4wMjkuMjE2LjAyNy4yMTkuMDI1LjIyMi4wMjQuMjI2LjAyMS4yMy4wMi4yMzMuMDE4LjIzNi4wMTYuMjQuMDE1LjI0My4wMTIuMjQ2LjAxLjI0OS4wMDguMjUzLjAwNS4yNTYuMDA0LjI1OS4wMDEuMjYtLjAwMS4yNTctLjAwNC4yNTQtLjAwNS4yNS0uMDA4LjI0Ny0uMDExLjI0NC0uMDEyLjI0MS0uMDE0LjIzNy0uMDE2LjIzMy0uMDE4LjIzMS0uMDIxLjIyNi0uMDIxLjIyNC0uMDI0LjIyLS4wMjYuMjE2LS4wMjcuMjEyLS4wMjguMjEtLjAzMS4yMDUtLjAzMS4yMDItLjAzNC4xOTgtLjAzNC4xOTQtLjAzNi4xOTEtLjAzNy4xODctLjAzOS4xODMtLjA0LjE3OS0uMDQuMTc1LS4wNDIuMTcyLS4wNDMuMTY4LS4wNDQuMTYzLS4wNDUuMTYtLjA0Ni4xNTUtLjA0Ni4xNTItLjA0Ny4xNDgtLjA0OC4xNDMtLjA0OS4xMzktLjA0OS4xMzYtLjA1LjEzMS0uMDUuMTI2LS4wNS4xMjMtLjA1MS4xMTgtLjA1Mi4xMTQtLjA1MS4xMS0uMDUyLjEwNi0uMDUyLjEwMS0uMDUyLjA5Ni0uMDUyLjA5Mi0uMDUyLjA4OC0uMDUzLjA4My0uMDUxLjA3OS0uMDUyLjA3NC0uMDUyLjA3LS4wNTEuMDY1LS4wNTEuMDYtLjA1MS4wNTYtLjA1LjA1MS0uMDUuMDIzLS4wMjQuMDIzLS4wMjUuMDIxLS4wMjQuMDItLjAyNC4wMTktLjAyNC4wMTgtLjAyNC4wMTctLjAyNC4wMTUtLjAyMy4wMTQtLjAyNC4wMTMtLjAyMy4wMTItLjAyMy4wMS0uMDIzLjAxLS4wMjIuMDA4LS4wMjIuMDA2LS4wMjIuMDA2LS4wMjIuMDA0LS4wMjIuMDA0LS4wMjEuMDAxLS4wMjEuMDAxLS4wMjF2LTQuMTI3bC0uMDc3LjA1NS0uMDguMDUzLS4wODMuMDU0LS4wODUuMDUzLS4wODcuMDUyLS4wOS4wNTItLjA5My4wNTEtLjA5NS4wNS0uMDk3LjA1LS4xLjA0OS0uMTAyLjA0OS0uMTA1LjA0OC0uMTA2LjA0Ny0uMTA5LjA0Ny0uMTExLjA0Ni0uMTE0LjA0NS0uMTE1LjA0NS0uMTE4LjA0NC0uMTIuMDQzLS4xMjIuMDQyLS4xMjQuMDQyLS4xMjYuMDQxLS4xMjguMDQtLjEzLjA0LS4xMzIuMDM4LS4xMzQuMDM4LS4xMzUuMDM3LS4xMzguMDM3LS4xMzkuMDM1LS4xNDIuMDM1LS4xNDMuMDM0LS4xNDQuMDMzLS4xNDcuMDMyLS4xNDguMDMxLS4xNS4wMy0uMTUxLjAzLS4xNTMuMDI5LS4xNTQuMDI3LS4xNTYuMDI3LS4xNTguMDI2LS4xNTkuMDI1LS4xNjEuMDI0LS4xNjIuMDIzLS4xNjMuMDIyLS4xNjUuMDIxLS4xNjYuMDItLjE2Ny4wMTktLjE2OS4wMTgtLjE2OS4wMTctLjE3MS4wMTYtLjE3My4wMTUtLjE3My4wMTQtLjE3NS4wMTMtLjE3NS4wMTItLjE3Ny4wMTEtLjE3OC4wMS0uMTc5LjAwOC0uMTc5LjAwOC0uMTgxLjAwNi0uMTgyLjAwNS0uMTgyLjAwNC0uMTg0LjAwMy0uMTg0LjAwMmgtLjM3bC0uMTg0LS4wMDItLjE4NC0uMDAzLS4xODItLjAwNC0uMTgyLS4wMDUtLjE4MS0uMDA2LS4xNzktLjAwOC0uMTc5LS4wMDgtLjE3OC0uMDEtLjE3Ni0uMDExLS4xNzYtLjAxMi0uMTc1LS4wMTMtLjE3My0uMDE0LS4xNzItLjAxNS0uMTcxLS4wMTYtLjE3LS4wMTctLjE2OS0uMDE4LS4xNjctLjAxOS0uMTY2LS4wMi0uMTY1LS4wMjEtLjE2My0uMDIyLS4xNjItLjAyMy0uMTYxLS4wMjQtLjE1OS0uMDI1LS4xNTctLjAyNi0uMTU2LS4wMjctLjE1NS0uMDI3LS4xNTMtLjAyOS0uMTUxLS4wMy0uMTUtLjAzLS4xNDgtLjAzMS0uMTQ2LS4wMzItLjE0NS0uMDMzLS4xNDMtLjAzNC0uMTQxLS4wMzUtLjE0LS4wMzUtLjEzNy0uMDM3LS4xMzYtLjAzNy0uMTM0LS4wMzgtLjEzMi0uMDM4LS4xMy0uMDQtLjEyOC0uMDQtLjEyNi0uMDQxLS4xMjQtLjA0Mi0uMTIyLS4wNDItLjEyLS4wNDQtLjExNy0uMDQzLS4xMTYtLjA0NS0uMTEzLS4wNDUtLjExMi0uMDQ2LS4xMDktLjA0Ny0uMTA2LS4wNDctLjEwNS0uMDQ4LS4xMDItLjA0OS0uMS0uMDQ5LS4wOTctLjA1LS4wOTUtLjA1LS4wOTMtLjA1Mi0uMDktLjA1MS0uMDg3LS4wNTItLjA4NS0uMDUzLS4wODMtLjA1NC0uMDgtLjA1NC0uMDc3LS4wNTR2NC4xMjd6bTAtNS42NTR2LjAxMWwuMDAxLjAyMS4wMDMuMDIxLjAwNC4wMjEuMDA1LjAyMi4wMDYuMDIyLjAwNy4wMjIuMDA5LjAyMi4wMS4wMjIuMDExLjAyMy4wMTIuMDIzLjAxMy4wMjMuMDE1LjAyNC4wMTYuMDIzLjAxNy4wMjQuMDE4LjAyNC4wMTkuMDI0LjAyMS4wMjQuMDIyLjAyNC4wMjMuMDI1LjAyNC4wMjQuMDUyLjA1LjA1Ni4wNS4wNjEuMDUuMDY2LjA1MS4wNy4wNTEuMDc1LjA1Mi4wNzkuMDUxLjA4NC4wNTIuMDg4LjA1Mi4wOTIuMDUyLjA5Ny4wNTIuMTAyLjA1Mi4xMDUuMDUyLjExLjA1MS4xMTQuMDUxLjExOS4wNTIuMTIzLjA1LjEyNy4wNTEuMTMxLjA1LjEzNS4wNDkuMTM5LjA0OS4xNDQuMDQ4LjE0Ny4wNDguMTUyLjA0Ny4xNTUuMDQ2LjE2LjA0NS4xNjMuMDQ1LjE2Ny4wNDQuMTcxLjA0Mi4xNzYuMDQyLjE3OC4wNC4xODMuMDQuMTg3LjAzOC4xOS4wMzcuMTk0LjAzNi4xOTcuMDM0LjIwMi4wMzMuMjA0LjAzMi4yMDkuMDMuMjEyLjAyOC4yMTYuMDI3LjIxOS4wMjUuMjIyLjAyNC4yMjYuMDIyLjIzLjAyLjIzMy4wMTguMjM2LjAxNi4yNC4wMTQuMjQzLjAxMi4yNDYuMDEuMjQ5LjAwOC4yNTMuMDA2LjI1Ni4wMDMuMjU5LjAwMS4yNi0uMDAxLjI1Ny0uMDAzLjI1NC0uMDA2LjI1LS4wMDguMjQ3LS4wMS4yNDQtLjAxMi4yNDEtLjAxNS4yMzctLjAxNi4yMzMtLjAxOC4yMzEtLjAyLjIyNi0uMDIyLjIyNC0uMDI0LjIyLS4wMjUuMjE2LS4wMjcuMjEyLS4wMjkuMjEtLjAzLjIwNS0uMDMyLjIwMi0uMDMzLjE5OC0uMDM1LjE5NC0uMDM2LjE5MS0uMDM3LjE4Ny0uMDM5LjE4My0uMDM5LjE3OS0uMDQxLjE3NS0uMDQyLjE3Mi0uMDQzLjE2OC0uMDQ0LjE2My0uMDQ1LjE2LS4wNDUuMTU1LS4wNDcuMTUyLS4wNDcuMTQ4LS4wNDguMTQzLS4wNDguMTM5LS4wNS4xMzYtLjA0OS4xMzEtLjA1LjEyNi0uMDUxLjEyMy0uMDUxLjExOC0uMDUxLjExNC0uMDUyLjExLS4wNTIuMTA2LS4wNTIuMTAxLS4wNTIuMDk2LS4wNTIuMDkyLS4wNTIuMDg4LS4wNTIuMDgzLS4wNTIuMDc5LS4wNTIuMDc0LS4wNTEuMDctLjA1Mi4wNjUtLjA1MS4wNi0uMDUuMDU2LS4wNTEuMDUxLS4wNDkuMDIzLS4wMjUuMDIzLS4wMjQuMDIxLS4wMjUuMDItLjAyNC4wMTktLjAyNC4wMTgtLjAyNC4wMTctLjAyNC4wMTUtLjAyMy4wMTQtLjAyMy4wMTMtLjAyNC4wMTItLjAyMi4wMS0uMDIzLjAxLS4wMjMuMDA4LS4wMjIuMDA2LS4wMjIuMDA2LS4wMjIuMDA0LS4wMjEuMDA0LS4wMjIuMDAxLS4wMjEuMDAxLS4wMjF2LTQuMTM5bC0uMDc3LjA1NC0uMDguMDU0LS4wODMuMDU0LS4wODUuMDUyLS4wODcuMDUzLS4wOS4wNTEtLjA5My4wNTEtLjA5NS4wNTEtLjA5Ny4wNS0uMS4wNDktLjEwMi4wNDktLjEwNS4wNDgtLjEwNi4wNDctLjEwOS4wNDctLjExMS4wNDYtLjExNC4wNDUtLjExNS4wNDQtLjExOC4wNDQtLjEyLjA0NC0uMTIyLjA0Mi0uMTI0LjA0Mi0uMTI2LjA0MS0uMTI4LjA0LS4xMy4wMzktLjEzMi4wMzktLjEzNC4wMzgtLjEzNS4wMzctLjEzOC4wMzYtLjEzOS4wMzYtLjE0Mi4wMzUtLjE0My4wMzMtLjE0NC4wMzMtLjE0Ny4wMzMtLjE0OC4wMzEtLjE1LjAzLS4xNTEuMDMtLjE1My4wMjgtLjE1NC4wMjgtLjE1Ni4wMjctLjE1OC4wMjYtLjE1OS4wMjUtLjE2MS4wMjQtLjE2Mi4wMjMtLjE2My4wMjItLjE2NS4wMjEtLjE2Ni4wMi0uMTY3LjAxOS0uMTY5LjAxOC0uMTY5LjAxNy0uMTcxLjAxNi0uMTczLjAxNS0uMTczLjAxNC0uMTc1LjAxMy0uMTc1LjAxMi0uMTc3LjAxMS0uMTc4LjAwOS0uMTc5LjAwOS0uMTc5LjAwNy0uMTgxLjAwNy0uMTgyLjAwNS0uMTgyLjAwNC0uMTg0LjAwMy0uMTg0LjAwMmgtLjM3bC0uMTg0LS4wMDItLjE4NC0uMDAzLS4xODItLjAwNC0uMTgyLS4wMDUtLjE4MS0uMDA3LS4xNzktLjAwNy0uMTc5LS4wMDktLjE3OC0uMDA5LS4xNzYtLjAxMS0uMTc2LS4wMTItLjE3NS0uMDEzLS4xNzMtLjAxNC0uMTcyLS4wMTUtLjE3MS0uMDE2LS4xNy0uMDE3LS4xNjktLjAxOC0uMTY3LS4wMTktLjE2Ni0uMDItLjE2NS0uMDIxLS4xNjMtLjAyMi0uMTYyLS4wMjMtLjE2MS0uMDI0LS4xNTktLjAyNS0uMTU3LS4wMjYtLjE1Ni0uMDI3LS4xNTUtLjAyOC0uMTUzLS4wMjgtLjE1MS0uMDMtLjE1LS4wMy0uMTQ4LS4wMzEtLjE0Ni0uMDMzLS4xNDUtLjAzMy0uMTQzLS4wMzMtLjE0MS0uMDM1LS4xNC0uMDM2LS4xMzctLjAzNi0uMTM2LS4wMzctLjEzNC0uMDM4LS4xMzItLjAzOS0uMTMtLjAzOS0uMTI4LS4wNC0uMTI2LS4wNDEtLjEyNC0uMDQyLS4xMjItLjA0My0uMTItLjA0My0uMTE3LS4wNDQtLjExNi0uMDQ0LS4xMTMtLjA0Ni0uMTEyLS4wNDYtLjEwOS0uMDQ2LS4xMDYtLjA0Ny0uMTA1LS4wNDgtLjEwMi0uMDQ5LS4xLS4wNDktLjA5Ny0uMDUtLjA5NS0uMDUxLS4wOTMtLjA1MS0uMDktLjA1MS0uMDg3LS4wNTMtLjA4NS0uMDUyLS4wODMtLjA1NC0uMDgtLjA1NC0uMDc3LS4wNTR2NC4xMzl6bTAtNS42NjZ2LjAxMWwuMDAxLjAyLjAwMy4wMjIuMDA0LjAyMS4wMDUuMDIyLjAwNi4wMjEuMDA3LjAyMi4wMDkuMDIzLjAxLjAyMi4wMTEuMDIzLjAxMi4wMjMuMDEzLjAyMy4wMTUuMDIzLjAxNi4wMjQuMDE3LjAyNC4wMTguMDIzLjAxOS4wMjQuMDIxLjAyNS4wMjIuMDI0LjAyMy4wMjQuMDI0LjAyNS4wNTIuMDUuMDU2LjA1LjA2MS4wNS4wNjYuMDUxLjA3LjA1MS4wNzUuMDUyLjA3OS4wNTEuMDg0LjA1Mi4wODguMDUyLjA5Mi4wNTIuMDk3LjA1Mi4xMDIuMDUyLjEwNS4wNTEuMTEuMDUyLjExNC4wNTEuMTE5LjA1MS4xMjMuMDUxLjEyNy4wNS4xMzEuMDUuMTM1LjA1LjEzOS4wNDkuMTQ0LjA0OC4xNDcuMDQ4LjE1Mi4wNDcuMTU1LjA0Ni4xNi4wNDUuMTYzLjA0NS4xNjcuMDQzLjE3MS4wNDMuMTc2LjA0Mi4xNzguMDQuMTgzLjA0LjE4Ny4wMzguMTkuMDM3LjE5NC4wMzYuMTk3LjAzNC4yMDIuMDMzLjIwNC4wMzIuMjA5LjAzLjIxMi4wMjguMjE2LjAyNy4yMTkuMDI1LjIyMi4wMjQuMjI2LjAyMS4yMy4wMi4yMzMuMDE4LjIzNi4wMTcuMjQuMDE0LjI0My4wMTIuMjQ2LjAxLjI0OS4wMDguMjUzLjAwNi4yNTYuMDAzLjI1OS4wMDEuMjYtLjAwMS4yNTctLjAwMy4yNTQtLjAwNi4yNS0uMDA4LjI0Ny0uMDEuMjQ0LS4wMTMuMjQxLS4wMTQuMjM3LS4wMTYuMjMzLS4wMTguMjMxLS4wMi4yMjYtLjAyMi4yMjQtLjAyNC4yMi0uMDI1LjIxNi0uMDI3LjIxMi0uMDI5LjIxLS4wMy4yMDUtLjAzMi4yMDItLjAzMy4xOTgtLjAzNS4xOTQtLjAzNi4xOTEtLjAzNy4xODctLjAzOS4xODMtLjAzOS4xNzktLjA0MS4xNzUtLjA0Mi4xNzItLjA0My4xNjgtLjA0NC4xNjMtLjA0NS4xNi0uMDQ1LjE1NS0uMDQ3LjE1Mi0uMDQ3LjE0OC0uMDQ4LjE0My0uMDQ5LjEzOS0uMDQ5LjEzNi0uMDQ5LjEzMS0uMDUxLjEyNi0uMDUuMTIzLS4wNTEuMTE4LS4wNTIuMTE0LS4wNTEuMTEtLjA1Mi4xMDYtLjA1Mi4xMDEtLjA1Mi4wOTYtLjA1Mi4wOTItLjA1Mi4wODgtLjA1Mi4wODMtLjA1Mi4wNzktLjA1Mi4wNzQtLjA1Mi4wNy0uMDUxLjA2NS0uMDUxLjA2LS4wNTEuMDU2LS4wNS4wNTEtLjA0OS4wMjMtLjAyNS4wMjMtLjAyNS4wMjEtLjAyNC4wMi0uMDI0LjAxOS0uMDI0LjAxOC0uMDI0LjAxNy0uMDI0LjAxNS0uMDIzLjAxNC0uMDI0LjAxMy0uMDIzLjAxMi0uMDIzLjAxLS4wMjIuMDEtLjAyMy4wMDgtLjAyMi4wMDYtLjAyMi4wMDYtLjAyMi4wMDQtLjAyMi4wMDQtLjAyMS4wMDEtLjAyMS4wMDEtLjAyMXYtNC4xNTNsLS4wNzcuMDU0LS4wOC4wNTQtLjA4My4wNTMtLjA4NS4wNTMtLjA4Ny4wNTMtLjA5LjA1MS0uMDkzLjA1MS0uMDk1LjA1MS0uMDk3LjA1LS4xLjA0OS0uMTAyLjA0OC0uMTA1LjA0OC0uMTA2LjA0OC0uMTA5LjA0Ni0uMTExLjA0Ni0uMTE0LjA0Ni0uMTE1LjA0NC0uMTE4LjA0NC0uMTIuMDQzLS4xMjIuMDQzLS4xMjQuMDQyLS4xMjYuMDQxLS4xMjguMDQtLjEzLjAzOS0uMTMyLjAzOS0uMTM0LjAzOC0uMTM1LjAzNy0uMTM4LjAzNi0uMTM5LjAzNi0uMTQyLjAzNC0uMTQzLjAzNC0uMTQ0LjAzMy0uMTQ3LjAzMi0uMTQ4LjAzMi0uMTUuMDMtLjE1MS4wMy0uMTUzLjAyOC0uMTU0LjAyOC0uMTU2LjAyNy0uMTU4LjAyNi0uMTU5LjAyNC0uMTYxLjAyNC0uMTYyLjAyMy0uMTYzLjAyMy0uMTY1LjAyMS0uMTY2LjAyLS4xNjcuMDE5LS4xNjkuMDE4LS4xNjkuMDE3LS4xNzEuMDE2LS4xNzMuMDE1LS4xNzMuMDE0LS4xNzUuMDEzLS4xNzUuMDEyLS4xNzcuMDEtLjE3OC4wMS0uMTc5LjAwOS0uMTc5LjAwNy0uMTgxLjAwNi0uMTgyLjAwNi0uMTgyLjAwNC0uMTg0LjAwMy0uMTg0LjAwMS0uMTg1LjAwMS0uMTg1LS4wMDEtLjE4NC0uMDAxLS4xODQtLjAwMy0uMTgyLS4wMDQtLjE4Mi0uMDA2LS4xODEtLjAwNi0uMTc5LS4wMDctLjE3OS0uMDA5LS4xNzgtLjAxLS4xNzYtLjAxLS4xNzYtLjAxMi0uMTc1LS4wMTMtLjE3My0uMDE0LS4xNzItLjAxNS0uMTcxLS4wMTYtLjE3LS4wMTctLjE2OS0uMDE4LS4xNjctLjAxOS0uMTY2LS4wMi0uMTY1LS4wMjEtLjE2My0uMDIzLS4xNjItLjAyMy0uMTYxLS4wMjQtLjE1OS0uMDI0LS4xNTctLjAyNi0uMTU2LS4wMjctLjE1NS0uMDI4LS4xNTMtLjAyOC0uMTUxLS4wMy0uMTUtLjAzLS4xNDgtLjAzMi0uMTQ2LS4wMzItLjE0NS0uMDMzLS4xNDMtLjAzNC0uMTQxLS4wMzQtLjE0LS4wMzYtLjEzNy0uMDM2LS4xMzYtLjAzNy0uMTM0LS4wMzgtLjEzMi0uMDM5LS4xMy0uMDM5LS4xMjgtLjA0MS0uMTI2LS4wNDEtLjEyNC0uMDQxLS4xMjItLjA0My0uMTItLjA0My0uMTE3LS4wNDQtLjExNi0uMDQ0LS4xMTMtLjA0Ni0uMTEyLS4wNDYtLjEwOS0uMDQ2LS4xMDYtLjA0OC0uMTA1LS4wNDgtLjEwMi0uMDQ4LS4xLS4wNS0uMDk3LS4wNDktLjA5NS0uMDUxLS4wOTMtLjA1MS0uMDktLjA1Mi0uMDg3LS4wNTItLjA4NS0uMDUzLS4wODMtLjA1My0uMDgtLjA1NC0uMDc3LS4wNTR2NC4xNTN6bTguNzQtOC4xNzlsLS4yNTcuMDA0LS4yNTQuMDA1LS4yNS4wMDgtLjI0Ny4wMTEtLjI0NC4wMTItLjI0MS4wMTQtLjIzNy4wMTYtLjIzMy4wMTgtLjIzMS4wMjEtLjIyNi4wMjItLjIyNC4wMjMtLjIyLjAyNi0uMjE2LjAyNy0uMjEyLjAyOC0uMjEuMDMxLS4yMDUuMDMyLS4yMDIuMDMzLS4xOTguMDM0LS4xOTQuMDM2LS4xOTEuMDM4LS4xODcuMDM4LS4xODMuMDQtLjE3OS4wNDEtLjE3NS4wNDItLjE3Mi4wNDMtLjE2OC4wNDMtLjE2My4wNDUtLjE2LjA0Ni0uMTU1LjA0Ni0uMTUyLjA0OC0uMTQ4LjA0OC0uMTQzLjA0OC0uMTM5LjA0OS0uMTM2LjA1LS4xMzEuMDUtLjEyNi4wNTEtLjEyMy4wNTEtLjExOC4wNTEtLjExNC4wNTItLjExLjA1Mi0uMTA2LjA1Mi0uMTAxLjA1Mi0uMDk2LjA1Mi0uMDkyLjA1Mi0uMDg4LjA1Mi0uMDgzLjA1Mi0uMDc5LjA1Mi0uMDc0LjA1MS0uMDcuMDUyLS4wNjUuMDUxLS4wNi4wNS0uMDU2LjA1LS4wNTEuMDUtLjAyMy4wMjUtLjAyMy4wMjQtLjAyMS4wMjQtLjAyLjAyNS0uMDE5LjAyNC0uMDE4LjAyNC0uMDE3LjAyMy0uMDE1LjAyNC0uMDE0LjAyMy0uMDEzLjAyMy0uMDEyLjAyMy0uMDEuMDIzLS4wMS4wMjItLjAwOC4wMjItLjAwNi4wMjMtLjAwNi4wMjEtLjAwNC4wMjItLjAwNC4wMjEtLjAwMS4wMjEtLjAwMS4wMjEuMDAxLjAyMS4wMDEuMDIxLjAwNC4wMjEuMDA0LjAyMi4wMDYuMDIxLjAwNi4wMjMuMDA4LjAyMi4wMS4wMjIuMDEuMDIzLjAxMi4wMjMuMDEzLjAyMy4wMTQuMDIzLjAxNS4wMjQuMDE3LjAyMy4wMTguMDI0LjAxOS4wMjQuMDIuMDI1LjAyMS4wMjQuMDIzLjAyNC4wMjMuMDI1LjA1MS4wNS4wNTYuMDUuMDYuMDUuMDY1LjA1MS4wNy4wNTIuMDc0LjA1MS4wNzkuMDUyLjA4My4wNTIuMDg4LjA1Mi4wOTIuMDUyLjA5Ni4wNTIuMTAxLjA1Mi4xMDYuMDUyLjExLjA1Mi4xMTQuMDUyLjExOC4wNTEuMTIzLjA1MS4xMjYuMDUxLjEzMS4wNS4xMzYuMDUuMTM5LjA0OS4xNDMuMDQ4LjE0OC4wNDguMTUyLjA0OC4xNTUuMDQ2LjE2LjA0Ni4xNjMuMDQ1LjE2OC4wNDMuMTcyLjA0My4xNzUuMDQyLjE3OS4wNDEuMTgzLjA0LjE4Ny4wMzguMTkxLjAzOC4xOTQuMDM2LjE5OC4wMzQuMjAyLjAzMy4yMDUuMDMyLjIxLjAzMS4yMTIuMDI4LjIxNi4wMjcuMjIuMDI2LjIyNC4wMjMuMjI2LjAyMi4yMzEuMDIxLjIzMy4wMTguMjM3LjAxNi4yNDEuMDE0LjI0NC4wMTIuMjQ3LjAxMS4yNS4wMDguMjU0LjAwNS4yNTcuMDA0LjI2LjAwMS4yNi0uMDAxLjI1Ny0uMDA0LjI1NC0uMDA1LjI1LS4wMDguMjQ3LS4wMTEuMjQ0LS4wMTIuMjQxLS4wMTQuMjM3LS4wMTYuMjMzLS4wMTguMjMxLS4wMjEuMjI2LS4wMjIuMjI0LS4wMjMuMjItLjAyNi4yMTYtLjAyNy4yMTItLjAyOC4yMS0uMDMxLjIwNS0uMDMyLjIwMi0uMDMzLjE5OC0uMDM0LjE5NC0uMDM2LjE5MS0uMDM4LjE4Ny0uMDM4LjE4My0uMDQuMTc5LS4wNDEuMTc1LS4wNDIuMTcyLS4wNDMuMTY4LS4wNDMuMTYzLS4wNDUuMTYtLjA0Ni4xNTUtLjA0Ni4xNTItLjA0OC4xNDgtLjA0OC4xNDMtLjA0OC4xMzktLjA0OS4xMzYtLjA1LjEzMS0uMDUuMTI2LS4wNTEuMTIzLS4wNTEuMTE4LS4wNTEuMTE0LS4wNTIuMTEtLjA1Mi4xMDYtLjA1Mi4xMDEtLjA1Mi4wOTYtLjA1Mi4wOTItLjA1Mi4wODgtLjA1Mi4wODMtLjA1Mi4wNzktLjA1Mi4wNzQtLjA1MS4wNy0uMDUyLjA2NS0uMDUxLjA2LS4wNS4wNTYtLjA1LjA1MS0uMDUuMDIzLS4wMjUuMDIzLS4wMjQuMDIxLS4wMjQuMDItLjAyNS4wMTktLjAyNC4wMTgtLjAyNC4wMTctLjAyMy4wMTUtLjAyNC4wMTQtLjAyMy4wMTMtLjAyMy4wMTItLjAyMy4wMS0uMDIzLjAxLS4wMjIuMDA4LS4wMjIuMDA2LS4wMjMuMDA2LS4wMjEuMDA0LS4wMjIuMDA0LS4wMjEuMDAxLS4wMjEuMDAxLS4wMjEtLjAwMS0uMDIxLS4wMDEtLjAyMS0uMDA0LS4wMjEtLjAwNC0uMDIyLS4wMDYtLjAyMS0uMDA2LS4wMjMtLjAwOC0uMDIyLS4wMS0uMDIyLS4wMS0uMDIzLS4wMTItLjAyMy0uMDEzLS4wMjMtLjAxNC0uMDIzLS4wMTUtLjAyNC0uMDE3LS4wMjMtLjAxOC0uMDI0LS4wMTktLjAyNC0uMDItLjAyNS0uMDIxLS4wMjQtLjAyMy0uMDI0LS4wMjMtLjAyNS0uMDUxLS4wNS0uMDU2LS4wNS0uMDYtLjA1LS4wNjUtLjA1MS0uMDctLjA1Mi0uMDc0LS4wNTEtLjA3OS0uMDUyLS4wODMtLjA1Mi0uMDg4LS4wNTItLjA5Mi0uMDUyLS4wOTYtLjA1Mi0uMTAxLS4wNTItLjEwNi0uMDUyLS4xMS0uMDUyLS4xMTQtLjA1Mi0uMTE4LS4wNTEtLjEyMy0uMDUxLS4xMjYtLjA1MS0uMTMxLS4wNS0uMTM2LS4wNS0uMTM5LS4wNDktLjE0My0uMDQ4LS4xNDgtLjA0OC0uMTUyLS4wNDgtLjE1NS0uMDQ2LS4xNi0uMDQ2LS4xNjMtLjA0NS0uMTY4LS4wNDMtLjE3Mi0uMDQzLS4xNzUtLjA0Mi0uMTc5LS4wNDEtLjE4My0uMDQtLjE4Ny0uMDM4LS4xOTEtLjAzOC0uMTk0LS4wMzYtLjE5OC0uMDM0LS4yMDItLjAzMy0uMjA1LS4wMzItLjIxLS4wMzEtLjIxMi0uMDI4LS4yMTYtLjAyNy0uMjItLjAyNi0uMjI0LS4wMjMtLjIyNi0uMDIyLS4yMzEtLjAyMS0uMjMzLS4wMTgtLjIzNy0uMDE2LS4yNDEtLjAxNC0uMjQ0LS4wMTItLjI0Ny0uMDExLS4yNS0uMDA4LS4yNTQtLjAwNS0uMjU3LS4wMDQtLjI2LS4wMDEtLjI2LjAwMXoiIHRyYW5zZm9ybT0ic2NhbGUoLjUpIj48L3BhdGg+PC9zeW1ib2w+PC9kZWZzPjxkZWZzPjxzeW1ib2wgaGVpZ2h0PSIyNCIgd2lkdGg9IjI0IiBpZD0iY2xvY2siPjxwYXRoIGQ9Ik0xMiAyYzUuNTE0IDAgMTAgNC40ODYgMTAgMTBzLTQuNDg2IDEwLTEwIDEwLTEwLTQuNDg2LTEwLTEwIDQuNDg2LTEwIDEwLTEwem0wLTJjLTYuNjI3IDAtMTIgNS4zNzMtMTIgMTJzNS4zNzMgMTIgMTIgMTIgMTItNS4zNzMgMTItMTItNS4zNzMtMTItMTItMTJ6bTUuODQ4IDEyLjQ1OWMuMjAyLjAzOC4yMDIuMzMzLjAwMS4zNzItMS45MDcuMzYxLTYuMDQ1IDEuMTExLTYuNTQ3IDEuMTExLS43MTkgMC0xLjMwMS0uNTgyLTEuMzAxLTEuMzAxIDAtLjUxMi43Ny01LjQ0NyAxLjEyNS03LjQ0NS4wMzQtLjE5Mi4zMTItLjE4MS4zNDMuMDE0bC45ODUgNi4yMzggNS4zOTQgMS4wMTF6IiB0cmFuc2Zvcm09InNjYWxlKC41KSI+PC9wYXRoPjwvc3ltYm9sPjwvZGVmcz48ZGVmcz48bWFya2VyIG9yaWVudD0iYXV0by1zdGFydC1yZXZlcnNlIiBtYXJrZXJIZWlnaHQ9IjEyIiBtYXJrZXJXaWR0aD0iMTIiIG1hcmtlclVuaXRzPSJ1c2VyU3BhY2VPblVzZSIgcmVmWT0iNSIgcmVmWD0iNy45IiBpZD0iYXJyb3doZWFkIj48cGF0aCBkPSJNIC0xIDAgTCAxMCA1IEwgMCAxMCB6Ij48L3BhdGg+PC9tYXJrZXI+PC9kZWZzPjxkZWZzPjxtYXJrZXIgcmVmWT0iNC41IiByZWZYPSI0IiBvcmllbnQ9ImF1dG8iIG1hcmtlckhlaWdodD0iOCIgbWFya2VyV2lkdGg9IjE1IiBpZD0iY3Jvc3NoZWFkIj48cGF0aCBzdHlsZT0ic3Ryb2tlLWRhc2hhcnJheTogMCwgMDsiIGQ9Ik0gMSwyIEwgNiw3IE0gNiwyIEwgMSw3IiBzdHJva2Utd2lkdGg9IjFwdCIgc3Ryb2tlPSIjMDAwMDAwIiBmaWxsPSJub25lIj48L3BhdGg+PC9tYXJrZXI+PC9kZWZzPjxkZWZzPjxtYXJrZXIgb3JpZW50PSJhdXRvIiBtYXJrZXJIZWlnaHQ9IjI4IiBtYXJrZXJXaWR0aD0iMjAiIHJlZlk9IjciIHJlZlg9IjE1LjUiIGlkPSJmaWxsZWQtaGVhZCI+PHBhdGggZD0iTSAxOCw3IEw5LDEzIEwxNCw3IEw5LDEgWiI+PC9wYXRoPjwvbWFya2VyPjwvZGVmcz48ZGVmcz48bWFya2VyIG9yaWVudD0iYXV0byIgbWFya2VySGVpZ2h0PSI0MCIgbWFya2VyV2lkdGg9IjYwIiByZWZZPSIxNSIgcmVmWD0iMTUiIGlkPSJzZXF1ZW5jZW51bWJlciI+PGNpcmNsZSByPSI2IiBjeT0iMTUiIGN4PSIxNSI+PC9jaXJjbGU+PC9tYXJrZXI+PC9kZWZzPjxnPjxsaW5lIGNsYXNzPSJsb29wTGluZSIgeTI9Ijc1IiB4Mj0iODAzLjUiIHkxPSI3NSIgeDE9Ii0zNy41Ij48L2xpbmU+PGxpbmUgY2xhc3M9Imxvb3BMaW5lIiB5Mj0iNzAxIiB4Mj0iODAzLjUiIHkxPSI3NSIgeDE9IjgwMy41Ij48L2xpbmU+PGxpbmUgY2xhc3M9Imxvb3BMaW5lIiB5Mj0iNzAxIiB4Mj0iODAzLjUiIHkxPSI3MDEiIHgxPSItMzcuNSI+PC9saW5lPjxsaW5lIGNsYXNzPSJsb29wTGluZSIgeTI9IjcwMSIgeDI9Ii0zNy41IiB5MT0iNzUiIHgxPSItMzcuNSI+PC9saW5lPjxwb2x5Z29uIGNsYXNzPSJsYWJlbEJveCIgcG9pbnRzPSItMzcuNSw3NSAxMi41LDc1IDEyLjUsODggNC4xLDk1IC0zNy41LDk1Ij48L3BvbHlnb24+PHRleHQgc3R5bGU9ImZvbnQtc2l6ZTogMTZweDsgZm9udC13ZWlnaHQ6IDQwMDsiIGNsYXNzPSJsYWJlbFRleHQiIGFsaWdubWVudC1iYXNlbGluZT0ibWlkZGxlIiBkb21pbmFudC1iYXNlbGluZT0ibWlkZGxlIiB0ZXh0LWFuY2hvcj0ibWlkZGxlIiB5PSI4OCIgeD0iLTEyIj5sb29wPC90ZXh0Pjx0ZXh0IHN0eWxlPSJmb250LXNpemU6IDE2cHg7IGZvbnQtd2VpZ2h0OiA0MDA7IiBjbGFzcz0ibG9vcFRleHQiIHRleHQtYW5jaG9yPSJtaWRkbGUiIHk9IjkzIiB4PSI0MDgiPjx0c3BhbiB4PSI0MDgiPltFamVjdWNpw7NuIGNhZGEgNSBtaW51dG9zXTwvdHNwYW4+PC90ZXh0PjwvZz48dGV4dCBzdHlsZT0iZm9udC1zaXplOiAxNnB4OyBmb250LXdlaWdodDogNDAwOyIgZHk9IjFlbSIgY2xhc3M9Im1lc3NhZ2VUZXh0IiBhbGlnbm1lbnQtYmFzZWxpbmU9Im1pZGRsZSIgZG9taW5hbnQtYmFzZWxpbmU9Im1pZGRsZSIgdGV4dC1hbmNob3I9Im1pZGRsZSIgeT0iMTI2IiB4PSIyMDEiPk9idGllbmUgZXZlbnRvczwvdGV4dD48dGV4dCBzdHlsZT0iZm9udC1zaXplOiAxNnB4OyBmb250LXdlaWdodDogNDAwOyIgZHk9IjFlbSIgY2xhc3M9Im1lc3NhZ2VUZXh0IiBhbGlnbm1lbnQtYmFzZWxpbmU9Im1pZGRsZSIgZG9taW5hbnQtYmFzZWxpbmU9Im1pZGRsZSIgdGV4dC1hbmNob3I9Im1pZGRsZSIgeT0iMTQ1IiB4PSIyMDEiPmNhcHR1cmFkb3M8L3RleHQ+PGxpbmUgc3R5bGU9ImZpbGw6IG5vbmU7IiBtYXJrZXItZW5kPSJ1cmwoI2Fycm93aGVhZCkiIHN0cm9rZT0ibm9uZSIgc3Ryb2tlLXdpZHRoPSIyIiBjbGFzcz0ibWVzc2FnZUxpbmUwIiB5Mj0iMTg0IiB4Mj0iMzI0LjUiIHkxPSIxODQiIHgxPSI3Ni41Ij48L2xpbmU+PHRleHQgc3R5bGU9ImZvbnQtc2l6ZTogMTZweDsgZm9udC13ZWlnaHQ6IDQwMDsiIGR5PSIxZW0iIGNsYXNzPSJtZXNzYWdlVGV4dCIgYWxpZ25tZW50LWJhc2VsaW5lPSJtaWRkbGUiIGRvbWluYW50LWJhc2VsaW5lPSJtaWRkbGUiIHRleHQtYW5jaG9yPSJtaWRkbGUiIHk9IjE5OSIgeD0iNzciPkNvbnZpZXJ0ZSBldmVudG9zPC90ZXh0Pjx0ZXh0IHN0eWxlPSJmb250LXNpemU6IDE2cHg7IGZvbnQtd2VpZ2h0OiA0MDA7IiBkeT0iMWVtIiBjbGFzcz0ibWVzc2FnZVRleHQiIGFsaWdubWVudC1iYXNlbGluZT0ibWlkZGxlIiBkb21pbmFudC1iYXNlbGluZT0ibWlkZGxlIiB0ZXh0LWFuY2hvcj0ibWlkZGxlIiB5PSIyMTgiIHg9Ijc3Ij4gYSBKU09OPC90ZXh0PjxwYXRoIHN0eWxlPSJmaWxsOiBub25lOyIgbWFya2VyLWVuZD0idXJsKCNhcnJvd2hlYWQpIiBzdHJva2U9Im5vbmUiIHN0cm9rZS13aWR0aD0iMiIgY2xhc3M9Im1lc3NhZ2VMaW5lMCIgZD0iTSA3Ni41LDI1NyBDIDEzNi41LDI0NyAxMzYuNSwyODcgNzYuNSwyNzciPjwvcGF0aD48dGV4dCBzdHlsZT0iZm9udC1zaXplOiAxNnB4OyBmb250LXdlaWdodDogNDAwOyIgZHk9IjFlbSIgY2xhc3M9Im1lc3NhZ2VUZXh0IiBhbGlnbm1lbnQtYmFzZWxpbmU9Im1pZGRsZSIgZG9taW5hbnQtYmFzZWxpbmU9Im1pZGRsZSIgdGV4dC1hbmNob3I9Im1pZGRsZSIgeT0iMzAyIiB4PSIzMjAiPlB1YmxpY2EgbWVuc2FqZTwvdGV4dD48dGV4dCBzdHlsZT0iZm9udC1zaXplOiAxNnB4OyBmb250LXdlaWdodDogNDAwOyIgZHk9IjFlbSIgY2xhc3M9Im1lc3NhZ2VUZXh0IiBhbGlnbm1lbnQtYmFzZWxpbmU9Im1pZGRsZSIgZG9taW5hbnQtYmFzZWxpbmU9Im1pZGRsZSIgdGV4dC1hbmNob3I9Im1pZGRsZSIgeT0iMzIxIiB4PSIzMjAiPmNvbiBldmVudG9zIHJlY3VwZXJhZG9zPC90ZXh0PjxsaW5lIHN0eWxlPSJmaWxsOiBub25lOyIgbWFya2VyLWVuZD0idXJsKCNhcnJvd2hlYWQpIiBzdHJva2U9Im5vbmUiIHN0cm9rZS13aWR0aD0iMiIgY2xhc3M9Im1lc3NhZ2VMaW5lMCIgeTI9IjM2MCIgeDI9IjU2My41IiB5MT0iMzYwIiB4MT0iNzYuNSI+PC9saW5lPjx0ZXh0IHN0eWxlPSJmb250LXNpemU6IDE2cHg7IGZvbnQtd2VpZ2h0OiA0MDA7IiBkeT0iMWVtIiBjbGFzcz0ibWVzc2FnZVRleHQiIGFsaWdubWVudC1iYXNlbGluZT0ibWlkZGxlIiBkb21pbmFudC1iYXNlbGluZT0ibWlkZGxlIiB0ZXh0LWFuY2hvcj0ibWlkZGxlIiB5PSIzNzUiIHg9IjU2OSI+VmFsaWRhIGF1dGVudGljYWNpw7NuPC90ZXh0PjxwYXRoIHN0eWxlPSJmaWxsOiBub25lOyIgbWFya2VyLWVuZD0idXJsKCNhcnJvd2hlYWQpIiBzdHJva2U9Im5vbmUiIHN0cm9rZS13aWR0aD0iMiIgY2xhc3M9Im1lc3NhZ2VMaW5lMCIgZD0iTSA1NjguNSw0MTIgQyA2MjguNSw0MDIgNjI4LjUsNDQyIDU2OC41LDQzMiI+PC9wYXRoPjx0ZXh0IHN0eWxlPSJmb250LXNpemU6IDE2cHg7IGZvbnQtd2VpZ2h0OiA0MDA7IiBkeT0iMWVtIiBjbGFzcz0ibWVzc2FnZVRleHQiIGFsaWdubWVudC1iYXNlbGluZT0ibWlkZGxlIiBkb21pbmFudC1iYXNlbGluZT0ibWlkZGxlIiB0ZXh0LWFuY2hvcj0ibWlkZGxlIiB5PSI0NTciIHg9IjY3OSI+UGVybWl0ZSBwdWJsaWNhcjwvdGV4dD48dGV4dCBzdHlsZT0iZm9udC1zaXplOiAxNnB4OyBmb250LXdlaWdodDogNDAwOyIgZHk9IjFlbSIgY2xhc3M9Im1lc3NhZ2VUZXh0IiBhbGlnbm1lbnQtYmFzZWxpbmU9Im1pZGRsZSIgZG9taW5hbnQtYmFzZWxpbmU9Im1pZGRsZSIgdGV4dC1hbmNob3I9Im1pZGRsZSIgeT0iNDc2IiB4PSI2NzkiPm1lbnNhamVzIGNvbiBldmVudG9zPC90ZXh0Pjx0ZXh0IHN0eWxlPSJmb250LXNpemU6IDE2cHg7IGZvbnQtd2VpZ2h0OiA0MDA7IiBkeT0iMWVtIiBjbGFzcz0ibWVzc2FnZVRleHQiIGFsaWdubWVudC1iYXNlbGluZT0ibWlkZGxlIiBkb21pbmFudC1iYXNlbGluZT0ibWlkZGxlIiB0ZXh0LWFuY2hvcj0ibWlkZGxlIiB5PSI0OTUiIHg9IjY3OSI+cmVjdXBlcmFkb3M8L3RleHQ+PGxpbmUgc3R5bGU9ImZpbGw6IG5vbmU7IiBtYXJrZXItZW5kPSJ1cmwoI2Fycm93aGVhZCkiIHN0cm9rZT0ibm9uZSIgc3Ryb2tlLXdpZHRoPSIyIiBjbGFzcz0ibWVzc2FnZUxpbmUwIiB5Mj0iNTM2IiB4Mj0iNzg4LjUiIHkxPSI1MzYiIHgxPSI1NjguNSI+PC9saW5lPjx0ZXh0IHN0eWxlPSJmb250LXNpemU6IDE2cHg7IGZvbnQtd2VpZ2h0OiA0MDA7IiBkeT0iMWVtIiBjbGFzcz0ibWVzc2FnZVRleHQiIGFsaWdubWVudC1iYXNlbGluZT0ibWlkZGxlIiBkb21pbmFudC1iYXNlbGluZT0ibWlkZGxlIiB0ZXh0LWFuY2hvcj0ibWlkZGxlIiB5PSI1NTEiIHg9Ijc3Ij5Db25maXJtYSBlbnRyZWdhIGRlIG1lbnNhamU8L3RleHQ+PHBhdGggc3R5bGU9ImZpbGw6IG5vbmU7IiBtYXJrZXItZW5kPSJ1cmwoI2Fycm93aGVhZCkiIHN0cm9rZT0ibm9uZSIgc3Ryb2tlLXdpZHRoPSIyIiBjbGFzcz0ibWVzc2FnZUxpbmUwIiBkPSJNIDc2LjUsNTg4IEMgMTM2LjUsNTc4IDEzNi41LDYxOCA3Ni41LDYwOCI+PC9wYXRoPjx0ZXh0IHN0eWxlPSJmb250LXNpemU6IDE2cHg7IGZvbnQtd2VpZ2h0OiA0MDA7IiBkeT0iMWVtIiBjbGFzcz0ibWVzc2FnZVRleHQiIGFsaWdubWVudC1iYXNlbGluZT0ibWlkZGxlIiBkb21pbmFudC1iYXNlbGluZT0ibWlkZGxlIiB0ZXh0LWFuY2hvcj0ibWlkZGxlIiB5PSI2MzMiIHg9IjIwMSI+RWxpbWluYSBldmVudG9zPC90ZXh0Pjx0ZXh0IHN0eWxlPSJmb250LXNpemU6IDE2cHg7IGZvbnQtd2VpZ2h0OiA0MDA7IiBkeT0iMWVtIiBjbGFzcz0ibWVzc2FnZVRleHQiIGFsaWdubWVudC1iYXNlbGluZT0ibWlkZGxlIiBkb21pbmFudC1iYXNlbGluZT0ibWlkZGxlIiB0ZXh0LWFuY2hvcj0ibWlkZGxlIiB5PSI2NTIiIHg9IjIwMSI+cXVlIHlhIGZ1ZXJvbiBwcm9jZXNhZG9zPC90ZXh0PjxsaW5lIHN0eWxlPSJmaWxsOiBub25lOyIgbWFya2VyLWVuZD0idXJsKCNhcnJvd2hlYWQpIiBzdHJva2U9Im5vbmUiIHN0cm9rZS13aWR0aD0iMiIgY2xhc3M9Im1lc3NhZ2VMaW5lMCIgeTI9IjY5MSIgeDI9IjMyNC41IiB5MT0iNjkxIiB4MT0iNzYuNSI+PC9saW5lPjwvc3ZnPg==;" parent="1" vertex="1">
            <mxGeometry x="322" y="280" width="1369" height="807" as="geometry" />
          </mxCell>
        </UserObject>
        <object placeholders="1" c4Name="API de Integración" c4Type="ContainerScopeBoundary" c4Application="Aplicación Go" label="&lt;font style=&quot;font-size: 16px&quot;&gt;&lt;b&gt;&lt;div style=&quot;text-align: left&quot;&gt;%c4Name%&lt;/div&gt;&lt;/b&gt;&lt;/font&gt;&lt;div style=&quot;text-align: left&quot;&gt;[%c4Application%]&lt;/div&gt;" id="3WN_ujnLZnCRTL2MS1Md-11">
          <mxCell style="rounded=1;fontSize=11;whiteSpace=wrap;html=1;dashed=1;arcSize=20;fillColor=none;strokeColor=#666666;fontColor=#333333;labelBackgroundColor=none;align=left;verticalAlign=bottom;labelBorderColor=none;spacingTop=0;spacing=10;dashPattern=8 4;metaEdit=1;rotatable=0;perimeter=rectanglePerimeter;noLabel=0;labelPadding=0;allowArrows=0;connectable=0;expand=0;recursiveResize=0;editable=1;pointerEvents=0;absoluteArcSize=1;points=[[0.25,0,0],[0.5,0,0],[0.75,0,0],[1,0.25,0],[1,0.5,0],[1,0.75,0],[0.75,1,0],[0.5,1,0],[0.25,1,0],[0,0.75,0],[0,0.5,0],[0,0.25,0]];" parent="1" vertex="1">
            <mxGeometry x="510" y="240" width="1010" height="900" as="geometry" />
          </mxCell>
        </object>
      </root>
    </mxGraphModel>
  </diagram>
  <diagram id="ymJFdOd70R39Y4RuD3kD" name="secuencia-gateway-seguridad">
    <mxGraphModel dx="2240" dy="1048" grid="1" gridSize="10" guides="1" tooltips="1" connect="1" arrows="1" fold="1" page="1" pageScale="1" pageWidth="827" pageHeight="1169" math="0" shadow="0">
      <root>
        <mxCell id="0" />
        <mxCell id="1" parent="0" />
        <UserObject label="" mermaidData="{&#xa;  &quot;data&quot;: &quot;sequenceDiagram\n    actor U as Usuario\n    participant GS as Gateway de Autenticación\n    participant PI as Proveedor de Identidades\n    participant AS as Adaptador de Seguridad\n    participant SS as Sistema de Seguridad\n    U-&gt;&gt;GS: Intenta acceder&lt;br&gt;a un recurso&lt;br&gt;de la solución\n    alt Petición autenticada\n      GS-&gt;&gt;GS: Valida token interno\n      GS-&gt;&gt;U: Permite continuar&lt;br&gt;con la transacción\n    else Petición no autenticada\n      GS-&gt;&gt;PI: Redirige para autenticación\n      PI-&gt;&gt;AS: Invoca adaptador correspondiente\n      AS-&gt;&gt;SS: Verifica credenciales\n      SS-&gt;&gt;AS: Devuelve aserción/token\n      AS-&gt;&gt;PI: Devuelve aserción/token\n      PI-&gt;&gt;PI: Genera token interno\n      PI-&gt;&gt;GS: Devuelve token interno\n      GS-&gt;&gt;GS: Valida token interno\n      GS-&gt;&gt;U: Permite continuar&lt;br&gt;con la transacc\n    end\n&quot;&#xa;}" id="YBXh1cXfKGHgOu1tbglF-1">
          <mxCell style="shape=image;noLabel=1;verticalAlign=top;imageAspect=1;image=data:image/svg+xml,PHN2ZyBhcmlhLXJvbGVkZXNjcmlwdGlvbj0ic2VxdWVuY2UiIHJvbGU9ImdyYXBoaWNzLWRvY3VtZW50IGRvY3VtZW50IiB2aWV3Qm94PSItNTAgLTEwIDEzMDguNSAxMDcxIiBzdHlsZT0ibWF4LXdpZHRoOiAxMzA4LjVweDsiIHhtbG5zPSJodHRwOi8vd3d3LnczLm9yZy8yMDAwL3N2ZyIgd2lkdGg9IjEwMCUiIGlkPSJnZU1lcm1haWRPdXRwdXQtMTc0MTMyMzA1NTcyOSI+PGc+PHJlY3QgY2xhc3M9ImFjdG9yIGFjdG9yLWJvdHRvbSIgcnk9IjMiIHJ4PSIzIiBuYW1lPSJTUyIgaGVpZ2h0PSI2NSIgd2lkdGg9IjE3MyIgc3Ryb2tlPSIjNjY2IiBmaWxsPSIjZWFlYWVhIiB5PSI5ODUiIHg9IjEwMzUuNSI+PC9yZWN0Pjx0ZXh0IHN0eWxlPSJ0ZXh0LWFuY2hvcjogbWlkZGxlOyBmb250LXNpemU6IDE2cHg7IGZvbnQtd2VpZ2h0OiA0MDA7IiBjbGFzcz0iYWN0b3IgYWN0b3ItYm94IiBhbGlnbm1lbnQtYmFzZWxpbmU9ImNlbnRyYWwiIGRvbWluYW50LWJhc2VsaW5lPSJjZW50cmFsIiB5PSIxMDE3LjUiIHg9IjExMjIiPjx0c3BhbiBkeT0iMCIgeD0iMTEyMiI+U2lzdGVtYSBkZSBTZWd1cmlkYWQ8L3RzcGFuPjwvdGV4dD48L2c+PGc+PHJlY3QgY2xhc3M9ImFjdG9yIGFjdG9yLWJvdHRvbSIgcnk9IjMiIHJ4PSIzIiBuYW1lPSJBUyIgaGVpZ2h0PSI2NSIgd2lkdGg9IjE5NSIgc3Ryb2tlPSIjNjY2IiBmaWxsPSIjZWFlYWVhIiB5PSI5ODUiIHg9Ijc4MC41Ij48L3JlY3Q+PHRleHQgc3R5bGU9InRleHQtYW5jaG9yOiBtaWRkbGU7IGZvbnQtc2l6ZTogMTZweDsgZm9udC13ZWlnaHQ6IDQwMDsiIGNsYXNzPSJhY3RvciBhY3Rvci1ib3giIGFsaWdubWVudC1iYXNlbGluZT0iY2VudHJhbCIgZG9taW5hbnQtYmFzZWxpbmU9ImNlbnRyYWwiIHk9IjEwMTcuNSIgeD0iODc4Ij48dHNwYW4gZHk9IjAiIHg9Ijg3OCI+QWRhcHRhZG9yIGRlIFNlZ3VyaWRhZDwvdHNwYW4+PC90ZXh0PjwvZz48Zz48cmVjdCBjbGFzcz0iYWN0b3IgYWN0b3ItYm90dG9tIiByeT0iMyIgcng9IjMiIG5hbWU9IlBJIiBoZWlnaHQ9IjY1IiB3aWR0aD0iMjAyIiBzdHJva2U9IiM2NjYiIGZpbGw9IiNlYWVhZWEiIHk9Ijk4NSIgeD0iNDY0Ij48L3JlY3Q+PHRleHQgc3R5bGU9InRleHQtYW5jaG9yOiBtaWRkbGU7IGZvbnQtc2l6ZTogMTZweDsgZm9udC13ZWlnaHQ6IDQwMDsiIGNsYXNzPSJhY3RvciBhY3Rvci1ib3giIGFsaWdubWVudC1iYXNlbGluZT0iY2VudHJhbCIgZG9taW5hbnQtYmFzZWxpbmU9ImNlbnRyYWwiIHk9IjEwMTcuNSIgeD0iNTY1Ij48dHNwYW4gZHk9IjAiIHg9IjU2NSI+UHJvdmVlZG9yIGRlIElkZW50aWRhZGVzPC90c3Bhbj48L3RleHQ+PC9nPjxnPjxyZWN0IGNsYXNzPSJhY3RvciBhY3Rvci1ib3R0b20iIHJ5PSIzIiByeD0iMyIgbmFtZT0iR1MiIGhlaWdodD0iNjUiIHdpZHRoPSIyMDQiIHN0cm9rZT0iIzY2NiIgZmlsbD0iI2VhZWFlYSIgeT0iOTg1IiB4PSIyMDAiPjwvcmVjdD48dGV4dCBzdHlsZT0idGV4dC1hbmNob3I6IG1pZGRsZTsgZm9udC1zaXplOiAxNnB4OyBmb250LXdlaWdodDogNDAwOyIgY2xhc3M9ImFjdG9yIGFjdG9yLWJveCIgYWxpZ25tZW50LWJhc2VsaW5lPSJjZW50cmFsIiBkb21pbmFudC1iYXNlbGluZT0iY2VudHJhbCIgeT0iMTAxNy41IiB4PSIzMDIiPjx0c3BhbiBkeT0iMCIgeD0iMzAyIj5HYXRld2F5IGRlIEF1dGVudGljYWNpw7NuPC90c3Bhbj48L3RleHQ+PC9nPjxnPjwvZz48Zz48bGluZSBuYW1lPSJTUyIgc3Ryb2tlPSIjOTk5IiBzdHJva2Utd2lkdGg9IjAuNXB4IiBjbGFzcz0iYWN0b3ItbGluZSAyMDAiIHkyPSI5ODUiIHgyPSIxMTIyIiB5MT0iNjUiIHgxPSIxMTIyIiBpZD0iYWN0b3I1NSI+PC9saW5lPjxnIGlkPSJyb290LTU1Ij48cmVjdCBjbGFzcz0iYWN0b3IgYWN0b3ItdG9wIiByeT0iMyIgcng9IjMiIG5hbWU9IlNTIiBoZWlnaHQ9IjY1IiB3aWR0aD0iMTczIiBzdHJva2U9IiM2NjYiIGZpbGw9IiNlYWVhZWEiIHk9IjAiIHg9IjEwMzUuNSI+PC9yZWN0Pjx0ZXh0IHN0eWxlPSJ0ZXh0LWFuY2hvcjogbWlkZGxlOyBmb250LXNpemU6IDE2cHg7IGZvbnQtd2VpZ2h0OiA0MDA7IiBjbGFzcz0iYWN0b3IgYWN0b3ItYm94IiBhbGlnbm1lbnQtYmFzZWxpbmU9ImNlbnRyYWwiIGRvbWluYW50LWJhc2VsaW5lPSJjZW50cmFsIiB5PSIzMi41IiB4PSIxMTIyIj48dHNwYW4gZHk9IjAiIHg9IjExMjIiPlNpc3RlbWEgZGUgU2VndXJpZGFkPC90c3Bhbj48L3RleHQ+PC9nPjwvZz48Zz48bGluZSBuYW1lPSJBUyIgc3Ryb2tlPSIjOTk5IiBzdHJva2Utd2lkdGg9IjAuNXB4IiBjbGFzcz0iYWN0b3ItbGluZSAyMDAiIHkyPSI5ODUiIHgyPSI4NzgiIHkxPSI2NSIgeDE9Ijg3OCIgaWQ9ImFjdG9yNTQiPjwvbGluZT48ZyBpZD0icm9vdC01NCI+PHJlY3QgY2xhc3M9ImFjdG9yIGFjdG9yLXRvcCIgcnk9IjMiIHJ4PSIzIiBuYW1lPSJBUyIgaGVpZ2h0PSI2NSIgd2lkdGg9IjE5NSIgc3Ryb2tlPSIjNjY2IiBmaWxsPSIjZWFlYWVhIiB5PSIwIiB4PSI3ODAuNSI+PC9yZWN0Pjx0ZXh0IHN0eWxlPSJ0ZXh0LWFuY2hvcjogbWlkZGxlOyBmb250LXNpemU6IDE2cHg7IGZvbnQtd2VpZ2h0OiA0MDA7IiBjbGFzcz0iYWN0b3IgYWN0b3ItYm94IiBhbGlnbm1lbnQtYmFzZWxpbmU9ImNlbnRyYWwiIGRvbWluYW50LWJhc2VsaW5lPSJjZW50cmFsIiB5PSIzMi41IiB4PSI4NzgiPjx0c3BhbiBkeT0iMCIgeD0iODc4Ij5BZGFwdGFkb3IgZGUgU2VndXJpZGFkPC90c3Bhbj48L3RleHQ+PC9nPjwvZz48Zz48bGluZSBuYW1lPSJQSSIgc3Ryb2tlPSIjOTk5IiBzdHJva2Utd2lkdGg9IjAuNXB4IiBjbGFzcz0iYWN0b3ItbGluZSAyMDAiIHkyPSI5ODUiIHgyPSI1NjUiIHkxPSI2NSIgeDE9IjU2NSIgaWQ9ImFjdG9yNTMiPjwvbGluZT48ZyBpZD0icm9vdC01MyI+PHJlY3QgY2xhc3M9ImFjdG9yIGFjdG9yLXRvcCIgcnk9IjMiIHJ4PSIzIiBuYW1lPSJQSSIgaGVpZ2h0PSI2NSIgd2lkdGg9IjIwMiIgc3Ryb2tlPSIjNjY2IiBmaWxsPSIjZWFlYWVhIiB5PSIwIiB4PSI0NjQiPjwvcmVjdD48dGV4dCBzdHlsZT0idGV4dC1hbmNob3I6IG1pZGRsZTsgZm9udC1zaXplOiAxNnB4OyBmb250LXdlaWdodDogNDAwOyIgY2xhc3M9ImFjdG9yIGFjdG9yLWJveCIgYWxpZ25tZW50LWJhc2VsaW5lPSJjZW50cmFsIiBkb21pbmFudC1iYXNlbGluZT0iY2VudHJhbCIgeT0iMzIuNSIgeD0iNTY1Ij48dHNwYW4gZHk9IjAiIHg9IjU2NSI+UHJvdmVlZG9yIGRlIElkZW50aWRhZGVzPC90c3Bhbj48L3RleHQ+PC9nPjwvZz48Zz48bGluZSBuYW1lPSJHUyIgc3Ryb2tlPSIjOTk5IiBzdHJva2Utd2lkdGg9IjAuNXB4IiBjbGFzcz0iYWN0b3ItbGluZSAyMDAiIHkyPSI5ODUiIHgyPSIzMDIiIHkxPSI2NSIgeDE9IjMwMiIgaWQ9ImFjdG9yNTIiPjwvbGluZT48ZyBpZD0icm9vdC01MiI+PHJlY3QgY2xhc3M9ImFjdG9yIGFjdG9yLXRvcCIgcnk9IjMiIHJ4PSIzIiBuYW1lPSJHUyIgaGVpZ2h0PSI2NSIgd2lkdGg9IjIwNCIgc3Ryb2tlPSIjNjY2IiBmaWxsPSIjZWFlYWVhIiB5PSIwIiB4PSIyMDAiPjwvcmVjdD48dGV4dCBzdHlsZT0idGV4dC1hbmNob3I6IG1pZGRsZTsgZm9udC1zaXplOiAxNnB4OyBmb250LXdlaWdodDogNDAwOyIgY2xhc3M9ImFjdG9yIGFjdG9yLWJveCIgYWxpZ25tZW50LWJhc2VsaW5lPSJjZW50cmFsIiBkb21pbmFudC1iYXNlbGluZT0iY2VudHJhbCIgeT0iMzIuNSIgeD0iMzAyIj48dHNwYW4gZHk9IjAiIHg9IjMwMiI+R2F0ZXdheSBkZSBBdXRlbnRpY2FjacOzbjwvdHNwYW4+PC90ZXh0PjwvZz48L2c+PGc+PGxpbmUgbmFtZT0iVSIgc3Ryb2tlPSIjOTk5IiBzdHJva2Utd2lkdGg9IjAuNXB4IiBjbGFzcz0iYWN0b3ItbGluZSAyMDAiIHkyPSI5ODUiIHgyPSI3NSIgeTE9IjgwIiB4MT0iNzUiIGlkPSJhY3RvcjUxIj48L2xpbmU+PC9nPjxzdHlsZT4jZ2VNZXJtYWlkT3V0cHV0LTE3NDEzMjMwNTU3Mjl7Zm9udC1mYW1pbHk6InRyZWJ1Y2hldCBtcyIsdmVyZGFuYSxhcmlhbCxzYW5zLXNlcmlmO2ZvbnQtc2l6ZToxNnB4O2ZpbGw6IzAwMDAwMDt9I2dlTWVybWFpZE91dHB1dC0xNzQxMzIzMDU1NzI5IC5lcnJvci1pY29ue2ZpbGw6IzU1MjIyMjt9I2dlTWVybWFpZE91dHB1dC0xNzQxMzIzMDU1NzI5IC5lcnJvci10ZXh0e2ZpbGw6IzU1MjIyMjtzdHJva2U6IzU1MjIyMjt9I2dlTWVybWFpZE91dHB1dC0xNzQxMzIzMDU1NzI5IC5lZGdlLXRoaWNrbmVzcy1ub3JtYWx7c3Ryb2tlLXdpZHRoOjFweDt9I2dlTWVybWFpZE91dHB1dC0xNzQxMzIzMDU1NzI5IC5lZGdlLXRoaWNrbmVzcy10aGlja3tzdHJva2Utd2lkdGg6My41cHg7fSNnZU1lcm1haWRPdXRwdXQtMTc0MTMyMzA1NTcyOSAuZWRnZS1wYXR0ZXJuLXNvbGlke3N0cm9rZS1kYXNoYXJyYXk6MDt9I2dlTWVybWFpZE91dHB1dC0xNzQxMzIzMDU1NzI5IC5lZGdlLXRoaWNrbmVzcy1pbnZpc2libGV7c3Ryb2tlLXdpZHRoOjA7ZmlsbDpub25lO30jZ2VNZXJtYWlkT3V0cHV0LTE3NDEzMjMwNTU3MjkgLmVkZ2UtcGF0dGVybi1kYXNoZWR7c3Ryb2tlLWRhc2hhcnJheTozO30jZ2VNZXJtYWlkT3V0cHV0LTE3NDEzMjMwNTU3MjkgLmVkZ2UtcGF0dGVybi1kb3R0ZWR7c3Ryb2tlLWRhc2hhcnJheToyO30jZ2VNZXJtYWlkT3V0cHV0LTE3NDEzMjMwNTU3MjkgLm1hcmtlcntmaWxsOiM2NjY7c3Ryb2tlOiM2NjY7fSNnZU1lcm1haWRPdXRwdXQtMTc0MTMyMzA1NTcyOSAubWFya2VyLmNyb3Nze3N0cm9rZTojNjY2O30jZ2VNZXJtYWlkT3V0cHV0LTE3NDEzMjMwNTU3Mjkgc3Zne2ZvbnQtZmFtaWx5OiJ0cmVidWNoZXQgbXMiLHZlcmRhbmEsYXJpYWwsc2Fucy1zZXJpZjtmb250LXNpemU6MTZweDt9I2dlTWVybWFpZE91dHB1dC0xNzQxMzIzMDU1NzI5IHB7bWFyZ2luOjA7fSNnZU1lcm1haWRPdXRwdXQtMTc0MTMyMzA1NTcyOSAuYWN0b3J7c3Ryb2tlOmhzbCgwLCAwJSwgODMlKTtmaWxsOiNlZWU7fSNnZU1lcm1haWRPdXRwdXQtMTc0MTMyMzA1NTcyOSB0ZXh0LmFjdG9yJmd0O3RzcGFue2ZpbGw6IzMzMztzdHJva2U6bm9uZTt9I2dlTWVybWFpZE91dHB1dC0xNzQxMzIzMDU1NzI5IC5hY3Rvci1saW5le3N0cm9rZTpoc2woMCwgMCUsIDgzJSk7fSNnZU1lcm1haWRPdXRwdXQtMTc0MTMyMzA1NTcyOSAubWVzc2FnZUxpbmUwe3N0cm9rZS13aWR0aDoxLjU7c3Ryb2tlLWRhc2hhcnJheTpub25lO3N0cm9rZTojMzMzO30jZ2VNZXJtYWlkT3V0cHV0LTE3NDEzMjMwNTU3MjkgLm1lc3NhZ2VMaW5lMXtzdHJva2Utd2lkdGg6MS41O3N0cm9rZS1kYXNoYXJyYXk6MiwyO3N0cm9rZTojMzMzO30jZ2VNZXJtYWlkT3V0cHV0LTE3NDEzMjMwNTU3MjkgI2Fycm93aGVhZCBwYXRoe2ZpbGw6IzMzMztzdHJva2U6IzMzMzt9I2dlTWVybWFpZE91dHB1dC0xNzQxMzIzMDU1NzI5IC5zZXF1ZW5jZU51bWJlcntmaWxsOndoaXRlO30jZ2VNZXJtYWlkT3V0cHV0LTE3NDEzMjMwNTU3MjkgI3NlcXVlbmNlbnVtYmVye2ZpbGw6IzMzMzt9I2dlTWVybWFpZE91dHB1dC0xNzQxMzIzMDU1NzI5ICNjcm9zc2hlYWQgcGF0aHtmaWxsOiMzMzM7c3Ryb2tlOiMzMzM7fSNnZU1lcm1haWRPdXRwdXQtMTc0MTMyMzA1NTcyOSAubWVzc2FnZVRleHR7ZmlsbDojMzMzO3N0cm9rZTpub25lO30jZ2VNZXJtYWlkT3V0cHV0LTE3NDEzMjMwNTU3MjkgLmxhYmVsQm94e3N0cm9rZTpoc2woMCwgMCUsIDgzJSk7ZmlsbDojZWVlO30jZ2VNZXJtYWlkT3V0cHV0LTE3NDEzMjMwNTU3MjkgLmxhYmVsVGV4dCwjZ2VNZXJtYWlkT3V0cHV0LTE3NDEzMjMwNTU3MjkgLmxhYmVsVGV4dCZndDt0c3BhbntmaWxsOiMzMzM7c3Ryb2tlOm5vbmU7fSNnZU1lcm1haWRPdXRwdXQtMTc0MTMyMzA1NTcyOSAubG9vcFRleHQsI2dlTWVybWFpZE91dHB1dC0xNzQxMzIzMDU1NzI5IC5sb29wVGV4dCZndDt0c3BhbntmaWxsOiMzMzM7c3Ryb2tlOm5vbmU7fSNnZU1lcm1haWRPdXRwdXQtMTc0MTMyMzA1NTcyOSAubG9vcExpbmV7c3Ryb2tlLXdpZHRoOjJweDtzdHJva2UtZGFzaGFycmF5OjIsMjtzdHJva2U6aHNsKDAsIDAlLCA4MyUpO2ZpbGw6aHNsKDAsIDAlLCA4MyUpO30jZ2VNZXJtYWlkT3V0cHV0LTE3NDEzMjMwNTU3MjkgLm5vdGV7c3Ryb2tlOiM5OTk7ZmlsbDojNjY2O30jZ2VNZXJtYWlkT3V0cHV0LTE3NDEzMjMwNTU3MjkgLm5vdGVUZXh0LCNnZU1lcm1haWRPdXRwdXQtMTc0MTMyMzA1NTcyOSAubm90ZVRleHQmZ3Q7dHNwYW57ZmlsbDojZmZmO3N0cm9rZTpub25lO30jZ2VNZXJtYWlkT3V0cHV0LTE3NDEzMjMwNTU3MjkgLmFjdGl2YXRpb24we2ZpbGw6I2Y0ZjRmNDtzdHJva2U6IzY2Njt9I2dlTWVybWFpZE91dHB1dC0xNzQxMzIzMDU1NzI5IC5hY3RpdmF0aW9uMXtmaWxsOiNmNGY0ZjQ7c3Ryb2tlOiM2NjY7fSNnZU1lcm1haWRPdXRwdXQtMTc0MTMyMzA1NTcyOSAuYWN0aXZhdGlvbjJ7ZmlsbDojZjRmNGY0O3N0cm9rZTojNjY2O30jZ2VNZXJtYWlkT3V0cHV0LTE3NDEzMjMwNTU3MjkgLmFjdG9yUG9wdXBNZW51e3Bvc2l0aW9uOmFic29sdXRlO30jZ2VNZXJtYWlkT3V0cHV0LTE3NDEzMjMwNTU3MjkgLmFjdG9yUG9wdXBNZW51UGFuZWx7cG9zaXRpb246YWJzb2x1dGU7ZmlsbDojZWVlO2JveC1zaGFkb3c6MHB4IDhweCAxNnB4IDBweCByZ2JhKDAsMCwwLDAuMik7ZmlsdGVyOmRyb3Atc2hhZG93KDNweCA1cHggMnB4IHJnYigwIDAgMCAvIDAuNCkpO30jZ2VNZXJtYWlkT3V0cHV0LTE3NDEzMjMwNTU3MjkgLmFjdG9yLW1hbiBsaW5le3N0cm9rZTpoc2woMCwgMCUsIDgzJSk7ZmlsbDojZWVlO30jZ2VNZXJtYWlkT3V0cHV0LTE3NDEzMjMwNTU3MjkgLmFjdG9yLW1hbiBjaXJjbGUsI2dlTWVybWFpZE91dHB1dC0xNzQxMzIzMDU1NzI5IGxpbmV7c3Ryb2tlOmhzbCgwLCAwJSwgODMlKTtmaWxsOiNlZWU7c3Ryb2tlLXdpZHRoOjJweDt9I2dlTWVybWFpZE91dHB1dC0xNzQxMzIzMDU1NzI5IDpyb290ey0tbWVybWFpZC1mb250LWZhbWlseToidHJlYnVjaGV0IG1zIix2ZXJkYW5hLGFyaWFsLHNhbnMtc2VyaWY7fTwvc3R5bGU+PGc+PC9nPjxkZWZzPjxzeW1ib2wgaGVpZ2h0PSIyNCIgd2lkdGg9IjI0IiBpZD0iY29tcHV0ZXIiPjxwYXRoIGQ9Ik0yIDJ2MTNoMjB2LTEzaC0yMHptMTggMTFoLTE2di05aDE2djl6bS0xMC4yMjggNmwuNDY2LTFoMy41MjRsLjQ2NyAxaC00LjQ1N3ptMTQuMjI4IDNoLTI0bDItNmgyLjEwNGwtMS4zMyA0aDE4LjQ1bC0xLjI5Ny00aDIuMDczbDIgNnptLTUtMTBoLTE0di03aDE0djd6IiB0cmFuc2Zvcm09InNjYWxlKC41KSI+PC9wYXRoPjwvc3ltYm9sPjwvZGVmcz48ZGVmcz48c3ltYm9sIGNsaXAtcnVsZT0iZXZlbm9kZCIgZmlsbC1ydWxlPSJldmVub2RkIiBpZD0iZGF0YWJhc2UiPjxwYXRoIGQ9Ik0xMi4yNTguMDAxbC4yNTYuMDA0LjI1NS4wMDUuMjUzLjAwOC4yNTEuMDEuMjQ5LjAxMi4yNDcuMDE1LjI0Ni4wMTYuMjQyLjAxOS4yNDEuMDIuMjM5LjAyMy4yMzYuMDI0LjIzMy4wMjcuMjMxLjAyOC4yMjkuMDMxLjIyNS4wMzIuMjIzLjAzNC4yMi4wMzYuMjE3LjAzOC4yMTQuMDQuMjExLjA0MS4yMDguMDQzLjIwNS4wNDUuMjAxLjA0Ni4xOTguMDQ4LjE5NC4wNS4xOTEuMDUxLjE4Ny4wNTMuMTgzLjA1NC4xOC4wNTYuMTc1LjA1Ny4xNzIuMDU5LjE2OC4wNi4xNjMuMDYxLjE2LjA2My4xNTUuMDY0LjE1LjA2Ni4wNzQuMDMzLjA3My4wMzMuMDcxLjAzNC4wNy4wMzQuMDY5LjAzNS4wNjguMDM1LjA2Ny4wMzUuMDY2LjAzNS4wNjQuMDM2LjA2NC4wMzYuMDYyLjAzNi4wNi4wMzYuMDYuMDM3LjA1OC4wMzcuMDU4LjAzNy4wNTUuMDM4LjA1NS4wMzguMDUzLjAzOC4wNTIuMDM4LjA1MS4wMzkuMDUuMDM5LjA0OC4wMzkuMDQ3LjAzOS4wNDUuMDQuMDQ0LjA0LjA0My4wNC4wNDEuMDQuMDQuMDQxLjAzOS4wNDEuMDM3LjA0MS4wMzYuMDQxLjAzNC4wNDEuMDMzLjA0Mi4wMzIuMDQyLjAzLjA0Mi4wMjkuMDQyLjAyNy4wNDIuMDI2LjA0My4wMjQuMDQzLjAyMy4wNDMuMDIxLjA0My4wMi4wNDMuMDE4LjA0NC4wMTcuMDQzLjAxNS4wNDQuMDEzLjA0NC4wMTIuMDQ0LjAxMS4wNDUuMDA5LjA0NC4wMDcuMDQ1LjAwNi4wNDUuMDA0LjA0NS4wMDIuMDQ1LjAwMS4wNDV2MTdsLS4wMDEuMDQ1LS4wMDIuMDQ1LS4wMDQuMDQ1LS4wMDYuMDQ1LS4wMDcuMDQ1LS4wMDkuMDQ0LS4wMTEuMDQ1LS4wMTIuMDQ0LS4wMTMuMDQ0LS4wMTUuMDQ0LS4wMTcuMDQzLS4wMTguMDQ0LS4wMi4wNDMtLjAyMS4wNDMtLjAyMy4wNDMtLjAyNC4wNDMtLjAyNi4wNDMtLjAyNy4wNDItLjAyOS4wNDItLjAzLjA0Mi0uMDMyLjA0Mi0uMDMzLjA0Mi0uMDM0LjA0MS0uMDM2LjA0MS0uMDM3LjA0MS0uMDM5LjA0MS0uMDQuMDQxLS4wNDEuMDQtLjA0My4wNC0uMDQ0LjA0LS4wNDUuMDQtLjA0Ny4wMzktLjA0OC4wMzktLjA1LjAzOS0uMDUxLjAzOS0uMDUyLjAzOC0uMDUzLjAzOC0uMDU1LjAzOC0uMDU1LjAzOC0uMDU4LjAzNy0uMDU4LjAzNy0uMDYuMDM3LS4wNi4wMzYtLjA2Mi4wMzYtLjA2NC4wMzYtLjA2NC4wMzYtLjA2Ni4wMzUtLjA2Ny4wMzUtLjA2OC4wMzUtLjA2OS4wMzUtLjA3LjAzNC0uMDcxLjAzNC0uMDczLjAzMy0uMDc0LjAzMy0uMTUuMDY2LS4xNTUuMDY0LS4xNi4wNjMtLjE2My4wNjEtLjE2OC4wNi0uMTcyLjA1OS0uMTc1LjA1Ny0uMTguMDU2LS4xODMuMDU0LS4xODcuMDUzLS4xOTEuMDUxLS4xOTQuMDUtLjE5OC4wNDgtLjIwMS4wNDYtLjIwNS4wNDUtLjIwOC4wNDMtLjIxMS4wNDEtLjIxNC4wNC0uMjE3LjAzOC0uMjIuMDM2LS4yMjMuMDM0LS4yMjUuMDMyLS4yMjkuMDMxLS4yMzEuMDI4LS4yMzMuMDI3LS4yMzYuMDI0LS4yMzkuMDIzLS4yNDEuMDItLjI0Mi4wMTktLjI0Ni4wMTYtLjI0Ny4wMTUtLjI0OS4wMTItLjI1MS4wMS0uMjUzLjAwOC0uMjU1LjAwNS0uMjU2LjAwNC0uMjU4LjAwMS0uMjU4LS4wMDEtLjI1Ni0uMDA0LS4yNTUtLjAwNS0uMjUzLS4wMDgtLjI1MS0uMDEtLjI0OS0uMDEyLS4yNDctLjAxNS0uMjQ1LS4wMTYtLjI0My0uMDE5LS4yNDEtLjAyLS4yMzgtLjAyMy0uMjM2LS4wMjQtLjIzNC0uMDI3LS4yMzEtLjAyOC0uMjI4LS4wMzEtLjIyNi0uMDMyLS4yMjMtLjAzNC0uMjItLjAzNi0uMjE3LS4wMzgtLjIxNC0uMDQtLjIxMS0uMDQxLS4yMDgtLjA0My0uMjA0LS4wNDUtLjIwMS0uMDQ2LS4xOTgtLjA0OC0uMTk1LS4wNS0uMTktLjA1MS0uMTg3LS4wNTMtLjE4NC0uMDU0LS4xNzktLjA1Ni0uMTc2LS4wNTctLjE3Mi0uMDU5LS4xNjctLjA2LS4xNjQtLjA2MS0uMTU5LS4wNjMtLjE1NS0uMDY0LS4xNTEtLjA2Ni0uMDc0LS4wMzMtLjA3Mi0uMDMzLS4wNzItLjAzNC0uMDctLjAzNC0uMDY5LS4wMzUtLjA2OC0uMDM1LS4wNjctLjAzNS0uMDY2LS4wMzUtLjA2NC0uMDM2LS4wNjMtLjAzNi0uMDYyLS4wMzYtLjA2MS0uMDM2LS4wNi0uMDM3LS4wNTgtLjAzNy0uMDU3LS4wMzctLjA1Ni0uMDM4LS4wNTUtLjAzOC0uMDUzLS4wMzgtLjA1Mi0uMDM4LS4wNTEtLjAzOS0uMDQ5LS4wMzktLjA0OS0uMDM5LS4wNDYtLjAzOS0uMDQ2LS4wNC0uMDQ0LS4wNC0uMDQzLS4wNC0uMDQxLS4wNC0uMDQtLjA0MS0uMDM5LS4wNDEtLjAzNy0uMDQxLS4wMzYtLjA0MS0uMDM0LS4wNDEtLjAzMy0uMDQyLS4wMzItLjA0Mi0uMDMtLjA0Mi0uMDI5LS4wNDItLjAyNy0uMDQyLS4wMjYtLjA0My0uMDI0LS4wNDMtLjAyMy0uMDQzLS4wMjEtLjA0My0uMDItLjA0My0uMDE4LS4wNDQtLjAxNy0uMDQzLS4wMTUtLjA0NC0uMDEzLS4wNDQtLjAxMi0uMDQ0LS4wMTEtLjA0NS0uMDA5LS4wNDQtLjAwNy0uMDQ1LS4wMDYtLjA0NS0uMDA0LS4wNDUtLjAwMi0uMDQ1LS4wMDEtLjA0NXYtMTdsLjAwMS0uMDQ1LjAwMi0uMDQ1LjAwNC0uMDQ1LjAwNi0uMDQ1LjAwNy0uMDQ1LjAwOS0uMDQ0LjAxMS0uMDQ1LjAxMi0uMDQ0LjAxMy0uMDQ0LjAxNS0uMDQ0LjAxNy0uMDQzLjAxOC0uMDQ0LjAyLS4wNDMuMDIxLS4wNDMuMDIzLS4wNDMuMDI0LS4wNDMuMDI2LS4wNDMuMDI3LS4wNDIuMDI5LS4wNDIuMDMtLjA0Mi4wMzItLjA0Mi4wMzMtLjA0Mi4wMzQtLjA0MS4wMzYtLjA0MS4wMzctLjA0MS4wMzktLjA0MS4wNC0uMDQxLjA0MS0uMDQuMDQzLS4wNC4wNDQtLjA0LjA0Ni0uMDQuMDQ2LS4wMzkuMDQ5LS4wMzkuMDQ5LS4wMzkuMDUxLS4wMzkuMDUyLS4wMzguMDUzLS4wMzguMDU1LS4wMzguMDU2LS4wMzguMDU3LS4wMzcuMDU4LS4wMzcuMDYtLjAzNy4wNjEtLjAzNi4wNjItLjAzNi4wNjMtLjAzNi4wNjQtLjAzNi4wNjYtLjAzNS4wNjctLjAzNS4wNjgtLjAzNS4wNjktLjAzNS4wNy0uMDM0LjA3Mi0uMDM0LjA3Mi0uMDMzLjA3NC0uMDMzLjE1MS0uMDY2LjE1NS0uMDY0LjE1OS0uMDYzLjE2NC0uMDYxLjE2Ny0uMDYuMTcyLS4wNTkuMTc2LS4wNTcuMTc5LS4wNTYuMTg0LS4wNTQuMTg3LS4wNTMuMTktLjA1MS4xOTUtLjA1LjE5OC0uMDQ4LjIwMS0uMDQ2LjIwNC0uMDQ1LjIwOC0uMDQzLjIxMS0uMDQxLjIxNC0uMDQuMjE3LS4wMzguMjItLjAzNi4yMjMtLjAzNC4yMjYtLjAzMi4yMjgtLjAzMS4yMzEtLjAyOC4yMzQtLjAyNy4yMzYtLjAyNC4yMzgtLjAyMy4yNDEtLjAyLjI0My0uMDE5LjI0NS0uMDE2LjI0Ny0uMDE1LjI0OS0uMDEyLjI1MS0uMDEuMjUzLS4wMDguMjU1LS4wMDUuMjU2LS4wMDQuMjU4LS4wMDEuMjU4LjAwMXptLTkuMjU4IDIwLjQ5OXYuMDFsLjAwMS4wMjEuMDAzLjAyMS4wMDQuMDIyLjAwNS4wMjEuMDA2LjAyMi4wMDcuMDIyLjAwOS4wMjMuMDEuMDIyLjAxMS4wMjMuMDEyLjAyMy4wMTMuMDIzLjAxNS4wMjMuMDE2LjAyNC4wMTcuMDIzLjAxOC4wMjQuMDE5LjAyNC4wMjEuMDI0LjAyMi4wMjUuMDIzLjAyNC4wMjQuMDI1LjA1Mi4wNDkuMDU2LjA1LjA2MS4wNTEuMDY2LjA1MS4wNy4wNTEuMDc1LjA1MS4wNzkuMDUyLjA4NC4wNTIuMDg4LjA1Mi4wOTIuMDUyLjA5Ny4wNTIuMTAyLjA1MS4xMDUuMDUyLjExLjA1Mi4xMTQuMDUxLjExOS4wNTEuMTIzLjA1MS4xMjcuMDUuMTMxLjA1LjEzNS4wNS4xMzkuMDQ4LjE0NC4wNDkuMTQ3LjA0Ny4xNTIuMDQ3LjE1NS4wNDcuMTYuMDQ1LjE2My4wNDUuMTY3LjA0My4xNzEuMDQzLjE3Ni4wNDEuMTc4LjA0MS4xODMuMDM5LjE4Ny4wMzkuMTkuMDM3LjE5NC4wMzUuMTk3LjAzNS4yMDIuMDMzLjIwNC4wMzEuMjA5LjAzLjIxMi4wMjkuMjE2LjAyNy4yMTkuMDI1LjIyMi4wMjQuMjI2LjAyMS4yMy4wMi4yMzMuMDE4LjIzNi4wMTYuMjQuMDE1LjI0My4wMTIuMjQ2LjAxLjI0OS4wMDguMjUzLjAwNS4yNTYuMDA0LjI1OS4wMDEuMjYtLjAwMS4yNTctLjAwNC4yNTQtLjAwNS4yNS0uMDA4LjI0Ny0uMDExLjI0NC0uMDEyLjI0MS0uMDE0LjIzNy0uMDE2LjIzMy0uMDE4LjIzMS0uMDIxLjIyNi0uMDIxLjIyNC0uMDI0LjIyLS4wMjYuMjE2LS4wMjcuMjEyLS4wMjguMjEtLjAzMS4yMDUtLjAzMS4yMDItLjAzNC4xOTgtLjAzNC4xOTQtLjAzNi4xOTEtLjAzNy4xODctLjAzOS4xODMtLjA0LjE3OS0uMDQuMTc1LS4wNDIuMTcyLS4wNDMuMTY4LS4wNDQuMTYzLS4wNDUuMTYtLjA0Ni4xNTUtLjA0Ni4xNTItLjA0Ny4xNDgtLjA0OC4xNDMtLjA0OS4xMzktLjA0OS4xMzYtLjA1LjEzMS0uMDUuMTI2LS4wNS4xMjMtLjA1MS4xMTgtLjA1Mi4xMTQtLjA1MS4xMS0uMDUyLjEwNi0uMDUyLjEwMS0uMDUyLjA5Ni0uMDUyLjA5Mi0uMDUyLjA4OC0uMDUzLjA4My0uMDUxLjA3OS0uMDUyLjA3NC0uMDUyLjA3LS4wNTEuMDY1LS4wNTEuMDYtLjA1MS4wNTYtLjA1LjA1MS0uMDUuMDIzLS4wMjQuMDIzLS4wMjUuMDIxLS4wMjQuMDItLjAyNC4wMTktLjAyNC4wMTgtLjAyNC4wMTctLjAyNC4wMTUtLjAyMy4wMTQtLjAyNC4wMTMtLjAyMy4wMTItLjAyMy4wMS0uMDIzLjAxLS4wMjIuMDA4LS4wMjIuMDA2LS4wMjIuMDA2LS4wMjIuMDA0LS4wMjIuMDA0LS4wMjEuMDAxLS4wMjEuMDAxLS4wMjF2LTQuMTI3bC0uMDc3LjA1NS0uMDguMDUzLS4wODMuMDU0LS4wODUuMDUzLS4wODcuMDUyLS4wOS4wNTItLjA5My4wNTEtLjA5NS4wNS0uMDk3LjA1LS4xLjA0OS0uMTAyLjA0OS0uMTA1LjA0OC0uMTA2LjA0Ny0uMTA5LjA0Ny0uMTExLjA0Ni0uMTE0LjA0NS0uMTE1LjA0NS0uMTE4LjA0NC0uMTIuMDQzLS4xMjIuMDQyLS4xMjQuMDQyLS4xMjYuMDQxLS4xMjguMDQtLjEzLjA0LS4xMzIuMDM4LS4xMzQuMDM4LS4xMzUuMDM3LS4xMzguMDM3LS4xMzkuMDM1LS4xNDIuMDM1LS4xNDMuMDM0LS4xNDQuMDMzLS4xNDcuMDMyLS4xNDguMDMxLS4xNS4wMy0uMTUxLjAzLS4xNTMuMDI5LS4xNTQuMDI3LS4xNTYuMDI3LS4xNTguMDI2LS4xNTkuMDI1LS4xNjEuMDI0LS4xNjIuMDIzLS4xNjMuMDIyLS4xNjUuMDIxLS4xNjYuMDItLjE2Ny4wMTktLjE2OS4wMTgtLjE2OS4wMTctLjE3MS4wMTYtLjE3My4wMTUtLjE3My4wMTQtLjE3NS4wMTMtLjE3NS4wMTItLjE3Ny4wMTEtLjE3OC4wMS0uMTc5LjAwOC0uMTc5LjAwOC0uMTgxLjAwNi0uMTgyLjAwNS0uMTgyLjAwNC0uMTg0LjAwMy0uMTg0LjAwMmgtLjM3bC0uMTg0LS4wMDItLjE4NC0uMDAzLS4xODItLjAwNC0uMTgyLS4wMDUtLjE4MS0uMDA2LS4xNzktLjAwOC0uMTc5LS4wMDgtLjE3OC0uMDEtLjE3Ni0uMDExLS4xNzYtLjAxMi0uMTc1LS4wMTMtLjE3My0uMDE0LS4xNzItLjAxNS0uMTcxLS4wMTYtLjE3LS4wMTctLjE2OS0uMDE4LS4xNjctLjAxOS0uMTY2LS4wMi0uMTY1LS4wMjEtLjE2My0uMDIyLS4xNjItLjAyMy0uMTYxLS4wMjQtLjE1OS0uMDI1LS4xNTctLjAyNi0uMTU2LS4wMjctLjE1NS0uMDI3LS4xNTMtLjAyOS0uMTUxLS4wMy0uMTUtLjAzLS4xNDgtLjAzMS0uMTQ2LS4wMzItLjE0NS0uMDMzLS4xNDMtLjAzNC0uMTQxLS4wMzUtLjE0LS4wMzUtLjEzNy0uMDM3LS4xMzYtLjAzNy0uMTM0LS4wMzgtLjEzMi0uMDM4LS4xMy0uMDQtLjEyOC0uMDQtLjEyNi0uMDQxLS4xMjQtLjA0Mi0uMTIyLS4wNDItLjEyLS4wNDQtLjExNy0uMDQzLS4xMTYtLjA0NS0uMTEzLS4wNDUtLjExMi0uMDQ2LS4xMDktLjA0Ny0uMTA2LS4wNDctLjEwNS0uMDQ4LS4xMDItLjA0OS0uMS0uMDQ5LS4wOTctLjA1LS4wOTUtLjA1LS4wOTMtLjA1Mi0uMDktLjA1MS0uMDg3LS4wNTItLjA4NS0uMDUzLS4wODMtLjA1NC0uMDgtLjA1NC0uMDc3LS4wNTR2NC4xMjd6bTAtNS42NTR2LjAxMWwuMDAxLjAyMS4wMDMuMDIxLjAwNC4wMjEuMDA1LjAyMi4wMDYuMDIyLjAwNy4wMjIuMDA5LjAyMi4wMS4wMjIuMDExLjAyMy4wMTIuMDIzLjAxMy4wMjMuMDE1LjAyNC4wMTYuMDIzLjAxNy4wMjQuMDE4LjAyNC4wMTkuMDI0LjAyMS4wMjQuMDIyLjAyNC4wMjMuMDI1LjAyNC4wMjQuMDUyLjA1LjA1Ni4wNS4wNjEuMDUuMDY2LjA1MS4wNy4wNTEuMDc1LjA1Mi4wNzkuMDUxLjA4NC4wNTIuMDg4LjA1Mi4wOTIuMDUyLjA5Ny4wNTIuMTAyLjA1Mi4xMDUuMDUyLjExLjA1MS4xMTQuMDUxLjExOS4wNTIuMTIzLjA1LjEyNy4wNTEuMTMxLjA1LjEzNS4wNDkuMTM5LjA0OS4xNDQuMDQ4LjE0Ny4wNDguMTUyLjA0Ny4xNTUuMDQ2LjE2LjA0NS4xNjMuMDQ1LjE2Ny4wNDQuMTcxLjA0Mi4xNzYuMDQyLjE3OC4wNC4xODMuMDQuMTg3LjAzOC4xOS4wMzcuMTk0LjAzNi4xOTcuMDM0LjIwMi4wMzMuMjA0LjAzMi4yMDkuMDMuMjEyLjAyOC4yMTYuMDI3LjIxOS4wMjUuMjIyLjAyNC4yMjYuMDIyLjIzLjAyLjIzMy4wMTguMjM2LjAxNi4yNC4wMTQuMjQzLjAxMi4yNDYuMDEuMjQ5LjAwOC4yNTMuMDA2LjI1Ni4wMDMuMjU5LjAwMS4yNi0uMDAxLjI1Ny0uMDAzLjI1NC0uMDA2LjI1LS4wMDguMjQ3LS4wMS4yNDQtLjAxMi4yNDEtLjAxNS4yMzctLjAxNi4yMzMtLjAxOC4yMzEtLjAyLjIyNi0uMDIyLjIyNC0uMDI0LjIyLS4wMjUuMjE2LS4wMjcuMjEyLS4wMjkuMjEtLjAzLjIwNS0uMDMyLjIwMi0uMDMzLjE5OC0uMDM1LjE5NC0uMDM2LjE5MS0uMDM3LjE4Ny0uMDM5LjE4My0uMDM5LjE3OS0uMDQxLjE3NS0uMDQyLjE3Mi0uMDQzLjE2OC0uMDQ0LjE2My0uMDQ1LjE2LS4wNDUuMTU1LS4wNDcuMTUyLS4wNDcuMTQ4LS4wNDguMTQzLS4wNDguMTM5LS4wNS4xMzYtLjA0OS4xMzEtLjA1LjEyNi0uMDUxLjEyMy0uMDUxLjExOC0uMDUxLjExNC0uMDUyLjExLS4wNTIuMTA2LS4wNTIuMTAxLS4wNTIuMDk2LS4wNTIuMDkyLS4wNTIuMDg4LS4wNTIuMDgzLS4wNTIuMDc5LS4wNTIuMDc0LS4wNTEuMDctLjA1Mi4wNjUtLjA1MS4wNi0uMDUuMDU2LS4wNTEuMDUxLS4wNDkuMDIzLS4wMjUuMDIzLS4wMjQuMDIxLS4wMjUuMDItLjAyNC4wMTktLjAyNC4wMTgtLjAyNC4wMTctLjAyNC4wMTUtLjAyMy4wMTQtLjAyMy4wMTMtLjAyNC4wMTItLjAyMi4wMS0uMDIzLjAxLS4wMjMuMDA4LS4wMjIuMDA2LS4wMjIuMDA2LS4wMjIuMDA0LS4wMjEuMDA0LS4wMjIuMDAxLS4wMjEuMDAxLS4wMjF2LTQuMTM5bC0uMDc3LjA1NC0uMDguMDU0LS4wODMuMDU0LS4wODUuMDUyLS4wODcuMDUzLS4wOS4wNTEtLjA5My4wNTEtLjA5NS4wNTEtLjA5Ny4wNS0uMS4wNDktLjEwMi4wNDktLjEwNS4wNDgtLjEwNi4wNDctLjEwOS4wNDctLjExMS4wNDYtLjExNC4wNDUtLjExNS4wNDQtLjExOC4wNDQtLjEyLjA0NC0uMTIyLjA0Mi0uMTI0LjA0Mi0uMTI2LjA0MS0uMTI4LjA0LS4xMy4wMzktLjEzMi4wMzktLjEzNC4wMzgtLjEzNS4wMzctLjEzOC4wMzYtLjEzOS4wMzYtLjE0Mi4wMzUtLjE0My4wMzMtLjE0NC4wMzMtLjE0Ny4wMzMtLjE0OC4wMzEtLjE1LjAzLS4xNTEuMDMtLjE1My4wMjgtLjE1NC4wMjgtLjE1Ni4wMjctLjE1OC4wMjYtLjE1OS4wMjUtLjE2MS4wMjQtLjE2Mi4wMjMtLjE2My4wMjItLjE2NS4wMjEtLjE2Ni4wMi0uMTY3LjAxOS0uMTY5LjAxOC0uMTY5LjAxNy0uMTcxLjAxNi0uMTczLjAxNS0uMTczLjAxNC0uMTc1LjAxMy0uMTc1LjAxMi0uMTc3LjAxMS0uMTc4LjAwOS0uMTc5LjAwOS0uMTc5LjAwNy0uMTgxLjAwNy0uMTgyLjAwNS0uMTgyLjAwNC0uMTg0LjAwMy0uMTg0LjAwMmgtLjM3bC0uMTg0LS4wMDItLjE4NC0uMDAzLS4xODItLjAwNC0uMTgyLS4wMDUtLjE4MS0uMDA3LS4xNzktLjAwNy0uMTc5LS4wMDktLjE3OC0uMDA5LS4xNzYtLjAxMS0uMTc2LS4wMTItLjE3NS0uMDEzLS4xNzMtLjAxNC0uMTcyLS4wMTUtLjE3MS0uMDE2LS4xNy0uMDE3LS4xNjktLjAxOC0uMTY3LS4wMTktLjE2Ni0uMDItLjE2NS0uMDIxLS4xNjMtLjAyMi0uMTYyLS4wMjMtLjE2MS0uMDI0LS4xNTktLjAyNS0uMTU3LS4wMjYtLjE1Ni0uMDI3LS4xNTUtLjAyOC0uMTUzLS4wMjgtLjE1MS0uMDMtLjE1LS4wMy0uMTQ4LS4wMzEtLjE0Ni0uMDMzLS4xNDUtLjAzMy0uMTQzLS4wMzMtLjE0MS0uMDM1LS4xNC0uMDM2LS4xMzctLjAzNi0uMTM2LS4wMzctLjEzNC0uMDM4LS4xMzItLjAzOS0uMTMtLjAzOS0uMTI4LS4wNC0uMTI2LS4wNDEtLjEyNC0uMDQyLS4xMjItLjA0My0uMTItLjA0My0uMTE3LS4wNDQtLjExNi0uMDQ0LS4xMTMtLjA0Ni0uMTEyLS4wNDYtLjEwOS0uMDQ2LS4xMDYtLjA0Ny0uMTA1LS4wNDgtLjEwMi0uMDQ5LS4xLS4wNDktLjA5Ny0uMDUtLjA5NS0uMDUxLS4wOTMtLjA1MS0uMDktLjA1MS0uMDg3LS4wNTMtLjA4NS0uMDUyLS4wODMtLjA1NC0uMDgtLjA1NC0uMDc3LS4wNTR2NC4xMzl6bTAtNS42NjZ2LjAxMWwuMDAxLjAyLjAwMy4wMjIuMDA0LjAyMS4wMDUuMDIyLjAwNi4wMjEuMDA3LjAyMi4wMDkuMDIzLjAxLjAyMi4wMTEuMDIzLjAxMi4wMjMuMDEzLjAyMy4wMTUuMDIzLjAxNi4wMjQuMDE3LjAyNC4wMTguMDIzLjAxOS4wMjQuMDIxLjAyNS4wMjIuMDI0LjAyMy4wMjQuMDI0LjAyNS4wNTIuMDUuMDU2LjA1LjA2MS4wNS4wNjYuMDUxLjA3LjA1MS4wNzUuMDUyLjA3OS4wNTEuMDg0LjA1Mi4wODguMDUyLjA5Mi4wNTIuMDk3LjA1Mi4xMDIuMDUyLjEwNS4wNTEuMTEuMDUyLjExNC4wNTEuMTE5LjA1MS4xMjMuMDUxLjEyNy4wNS4xMzEuMDUuMTM1LjA1LjEzOS4wNDkuMTQ0LjA0OC4xNDcuMDQ4LjE1Mi4wNDcuMTU1LjA0Ni4xNi4wNDUuMTYzLjA0NS4xNjcuMDQzLjE3MS4wNDMuMTc2LjA0Mi4xNzguMDQuMTgzLjA0LjE4Ny4wMzguMTkuMDM3LjE5NC4wMzYuMTk3LjAzNC4yMDIuMDMzLjIwNC4wMzIuMjA5LjAzLjIxMi4wMjguMjE2LjAyNy4yMTkuMDI1LjIyMi4wMjQuMjI2LjAyMS4yMy4wMi4yMzMuMDE4LjIzNi4wMTcuMjQuMDE0LjI0My4wMTIuMjQ2LjAxLjI0OS4wMDguMjUzLjAwNi4yNTYuMDAzLjI1OS4wMDEuMjYtLjAwMS4yNTctLjAwMy4yNTQtLjAwNi4yNS0uMDA4LjI0Ny0uMDEuMjQ0LS4wMTMuMjQxLS4wMTQuMjM3LS4wMTYuMjMzLS4wMTguMjMxLS4wMi4yMjYtLjAyMi4yMjQtLjAyNC4yMi0uMDI1LjIxNi0uMDI3LjIxMi0uMDI5LjIxLS4wMy4yMDUtLjAzMi4yMDItLjAzMy4xOTgtLjAzNS4xOTQtLjAzNi4xOTEtLjAzNy4xODctLjAzOS4xODMtLjAzOS4xNzktLjA0MS4xNzUtLjA0Mi4xNzItLjA0My4xNjgtLjA0NC4xNjMtLjA0NS4xNi0uMDQ1LjE1NS0uMDQ3LjE1Mi0uMDQ3LjE0OC0uMDQ4LjE0My0uMDQ5LjEzOS0uMDQ5LjEzNi0uMDQ5LjEzMS0uMDUxLjEyNi0uMDUuMTIzLS4wNTEuMTE4LS4wNTIuMTE0LS4wNTEuMTEtLjA1Mi4xMDYtLjA1Mi4xMDEtLjA1Mi4wOTYtLjA1Mi4wOTItLjA1Mi4wODgtLjA1Mi4wODMtLjA1Mi4wNzktLjA1Mi4wNzQtLjA1Mi4wNy0uMDUxLjA2NS0uMDUxLjA2LS4wNTEuMDU2LS4wNS4wNTEtLjA0OS4wMjMtLjAyNS4wMjMtLjAyNS4wMjEtLjAyNC4wMi0uMDI0LjAxOS0uMDI0LjAxOC0uMDI0LjAxNy0uMDI0LjAxNS0uMDIzLjAxNC0uMDI0LjAxMy0uMDIzLjAxMi0uMDIzLjAxLS4wMjIuMDEtLjAyMy4wMDgtLjAyMi4wMDYtLjAyMi4wMDYtLjAyMi4wMDQtLjAyMi4wMDQtLjAyMS4wMDEtLjAyMS4wMDEtLjAyMXYtNC4xNTNsLS4wNzcuMDU0LS4wOC4wNTQtLjA4My4wNTMtLjA4NS4wNTMtLjA4Ny4wNTMtLjA5LjA1MS0uMDkzLjA1MS0uMDk1LjA1MS0uMDk3LjA1LS4xLjA0OS0uMTAyLjA0OC0uMTA1LjA0OC0uMTA2LjA0OC0uMTA5LjA0Ni0uMTExLjA0Ni0uMTE0LjA0Ni0uMTE1LjA0NC0uMTE4LjA0NC0uMTIuMDQzLS4xMjIuMDQzLS4xMjQuMDQyLS4xMjYuMDQxLS4xMjguMDQtLjEzLjAzOS0uMTMyLjAzOS0uMTM0LjAzOC0uMTM1LjAzNy0uMTM4LjAzNi0uMTM5LjAzNi0uMTQyLjAzNC0uMTQzLjAzNC0uMTQ0LjAzMy0uMTQ3LjAzMi0uMTQ4LjAzMi0uMTUuMDMtLjE1MS4wMy0uMTUzLjAyOC0uMTU0LjAyOC0uMTU2LjAyNy0uMTU4LjAyNi0uMTU5LjAyNC0uMTYxLjAyNC0uMTYyLjAyMy0uMTYzLjAyMy0uMTY1LjAyMS0uMTY2LjAyLS4xNjcuMDE5LS4xNjkuMDE4LS4xNjkuMDE3LS4xNzEuMDE2LS4xNzMuMDE1LS4xNzMuMDE0LS4xNzUuMDEzLS4xNzUuMDEyLS4xNzcuMDEtLjE3OC4wMS0uMTc5LjAwOS0uMTc5LjAwNy0uMTgxLjAwNi0uMTgyLjAwNi0uMTgyLjAwNC0uMTg0LjAwMy0uMTg0LjAwMS0uMTg1LjAwMS0uMTg1LS4wMDEtLjE4NC0uMDAxLS4xODQtLjAwMy0uMTgyLS4wMDQtLjE4Mi0uMDA2LS4xODEtLjAwNi0uMTc5LS4wMDctLjE3OS0uMDA5LS4xNzgtLjAxLS4xNzYtLjAxLS4xNzYtLjAxMi0uMTc1LS4wMTMtLjE3My0uMDE0LS4xNzItLjAxNS0uMTcxLS4wMTYtLjE3LS4wMTctLjE2OS0uMDE4LS4xNjctLjAxOS0uMTY2LS4wMi0uMTY1LS4wMjEtLjE2My0uMDIzLS4xNjItLjAyMy0uMTYxLS4wMjQtLjE1OS0uMDI0LS4xNTctLjAyNi0uMTU2LS4wMjctLjE1NS0uMDI4LS4xNTMtLjAyOC0uMTUxLS4wMy0uMTUtLjAzLS4xNDgtLjAzMi0uMTQ2LS4wMzItLjE0NS0uMDMzLS4xNDMtLjAzNC0uMTQxLS4wMzQtLjE0LS4wMzYtLjEzNy0uMDM2LS4xMzYtLjAzNy0uMTM0LS4wMzgtLjEzMi0uMDM5LS4xMy0uMDM5LS4xMjgtLjA0MS0uMTI2LS4wNDEtLjEyNC0uMDQxLS4xMjItLjA0My0uMTItLjA0My0uMTE3LS4wNDQtLjExNi0uMDQ0LS4xMTMtLjA0Ni0uMTEyLS4wNDYtLjEwOS0uMDQ2LS4xMDYtLjA0OC0uMTA1LS4wNDgtLjEwMi0uMDQ4LS4xLS4wNS0uMDk3LS4wNDktLjA5NS0uMDUxLS4wOTMtLjA1MS0uMDktLjA1Mi0uMDg3LS4wNTItLjA4NS0uMDUzLS4wODMtLjA1My0uMDgtLjA1NC0uMDc3LS4wNTR2NC4xNTN6bTguNzQtOC4xNzlsLS4yNTcuMDA0LS4yNTQuMDA1LS4yNS4wMDgtLjI0Ny4wMTEtLjI0NC4wMTItLjI0MS4wMTQtLjIzNy4wMTYtLjIzMy4wMTgtLjIzMS4wMjEtLjIyNi4wMjItLjIyNC4wMjMtLjIyLjAyNi0uMjE2LjAyNy0uMjEyLjAyOC0uMjEuMDMxLS4yMDUuMDMyLS4yMDIuMDMzLS4xOTguMDM0LS4xOTQuMDM2LS4xOTEuMDM4LS4xODcuMDM4LS4xODMuMDQtLjE3OS4wNDEtLjE3NS4wNDItLjE3Mi4wNDMtLjE2OC4wNDMtLjE2My4wNDUtLjE2LjA0Ni0uMTU1LjA0Ni0uMTUyLjA0OC0uMTQ4LjA0OC0uMTQzLjA0OC0uMTM5LjA0OS0uMTM2LjA1LS4xMzEuMDUtLjEyNi4wNTEtLjEyMy4wNTEtLjExOC4wNTEtLjExNC4wNTItLjExLjA1Mi0uMTA2LjA1Mi0uMTAxLjA1Mi0uMDk2LjA1Mi0uMDkyLjA1Mi0uMDg4LjA1Mi0uMDgzLjA1Mi0uMDc5LjA1Mi0uMDc0LjA1MS0uMDcuMDUyLS4wNjUuMDUxLS4wNi4wNS0uMDU2LjA1LS4wNTEuMDUtLjAyMy4wMjUtLjAyMy4wMjQtLjAyMS4wMjQtLjAyLjAyNS0uMDE5LjAyNC0uMDE4LjAyNC0uMDE3LjAyMy0uMDE1LjAyNC0uMDE0LjAyMy0uMDEzLjAyMy0uMDEyLjAyMy0uMDEuMDIzLS4wMS4wMjItLjAwOC4wMjItLjAwNi4wMjMtLjAwNi4wMjEtLjAwNC4wMjItLjAwNC4wMjEtLjAwMS4wMjEtLjAwMS4wMjEuMDAxLjAyMS4wMDEuMDIxLjAwNC4wMjEuMDA0LjAyMi4wMDYuMDIxLjAwNi4wMjMuMDA4LjAyMi4wMS4wMjIuMDEuMDIzLjAxMi4wMjMuMDEzLjAyMy4wMTQuMDIzLjAxNS4wMjQuMDE3LjAyMy4wMTguMDI0LjAxOS4wMjQuMDIuMDI1LjAyMS4wMjQuMDIzLjAyNC4wMjMuMDI1LjA1MS4wNS4wNTYuMDUuMDYuMDUuMDY1LjA1MS4wNy4wNTIuMDc0LjA1MS4wNzkuMDUyLjA4My4wNTIuMDg4LjA1Mi4wOTIuMDUyLjA5Ni4wNTIuMTAxLjA1Mi4xMDYuMDUyLjExLjA1Mi4xMTQuMDUyLjExOC4wNTEuMTIzLjA1MS4xMjYuMDUxLjEzMS4wNS4xMzYuMDUuMTM5LjA0OS4xNDMuMDQ4LjE0OC4wNDguMTUyLjA0OC4xNTUuMDQ2LjE2LjA0Ni4xNjMuMDQ1LjE2OC4wNDMuMTcyLjA0My4xNzUuMDQyLjE3OS4wNDEuMTgzLjA0LjE4Ny4wMzguMTkxLjAzOC4xOTQuMDM2LjE5OC4wMzQuMjAyLjAzMy4yMDUuMDMyLjIxLjAzMS4yMTIuMDI4LjIxNi4wMjcuMjIuMDI2LjIyNC4wMjMuMjI2LjAyMi4yMzEuMDIxLjIzMy4wMTguMjM3LjAxNi4yNDEuMDE0LjI0NC4wMTIuMjQ3LjAxMS4yNS4wMDguMjU0LjAwNS4yNTcuMDA0LjI2LjAwMS4yNi0uMDAxLjI1Ny0uMDA0LjI1NC0uMDA1LjI1LS4wMDguMjQ3LS4wMTEuMjQ0LS4wMTIuMjQxLS4wMTQuMjM3LS4wMTYuMjMzLS4wMTguMjMxLS4wMjEuMjI2LS4wMjIuMjI0LS4wMjMuMjItLjAyNi4yMTYtLjAyNy4yMTItLjAyOC4yMS0uMDMxLjIwNS0uMDMyLjIwMi0uMDMzLjE5OC0uMDM0LjE5NC0uMDM2LjE5MS0uMDM4LjE4Ny0uMDM4LjE4My0uMDQuMTc5LS4wNDEuMTc1LS4wNDIuMTcyLS4wNDMuMTY4LS4wNDMuMTYzLS4wNDUuMTYtLjA0Ni4xNTUtLjA0Ni4xNTItLjA0OC4xNDgtLjA0OC4xNDMtLjA0OC4xMzktLjA0OS4xMzYtLjA1LjEzMS0uMDUuMTI2LS4wNTEuMTIzLS4wNTEuMTE4LS4wNTEuMTE0LS4wNTIuMTEtLjA1Mi4xMDYtLjA1Mi4xMDEtLjA1Mi4wOTYtLjA1Mi4wOTItLjA1Mi4wODgtLjA1Mi4wODMtLjA1Mi4wNzktLjA1Mi4wNzQtLjA1MS4wNy0uMDUyLjA2NS0uMDUxLjA2LS4wNS4wNTYtLjA1LjA1MS0uMDUuMDIzLS4wMjUuMDIzLS4wMjQuMDIxLS4wMjQuMDItLjAyNS4wMTktLjAyNC4wMTgtLjAyNC4wMTctLjAyMy4wMTUtLjAyNC4wMTQtLjAyMy4wMTMtLjAyMy4wMTItLjAyMy4wMS0uMDIzLjAxLS4wMjIuMDA4LS4wMjIuMDA2LS4wMjMuMDA2LS4wMjEuMDA0LS4wMjIuMDA0LS4wMjEuMDAxLS4wMjEuMDAxLS4wMjEtLjAwMS0uMDIxLS4wMDEtLjAyMS0uMDA0LS4wMjEtLjAwNC0uMDIyLS4wMDYtLjAyMS0uMDA2LS4wMjMtLjAwOC0uMDIyLS4wMS0uMDIyLS4wMS0uMDIzLS4wMTItLjAyMy0uMDEzLS4wMjMtLjAxNC0uMDIzLS4wMTUtLjAyNC0uMDE3LS4wMjMtLjAxOC0uMDI0LS4wMTktLjAyNC0uMDItLjAyNS0uMDIxLS4wMjQtLjAyMy0uMDI0LS4wMjMtLjAyNS0uMDUxLS4wNS0uMDU2LS4wNS0uMDYtLjA1LS4wNjUtLjA1MS0uMDctLjA1Mi0uMDc0LS4wNTEtLjA3OS0uMDUyLS4wODMtLjA1Mi0uMDg4LS4wNTItLjA5Mi0uMDUyLS4wOTYtLjA1Mi0uMTAxLS4wNTItLjEwNi0uMDUyLS4xMS0uMDUyLS4xMTQtLjA1Mi0uMTE4LS4wNTEtLjEyMy0uMDUxLS4xMjYtLjA1MS0uMTMxLS4wNS0uMTM2LS4wNS0uMTM5LS4wNDktLjE0My0uMDQ4LS4xNDgtLjA0OC0uMTUyLS4wNDgtLjE1NS0uMDQ2LS4xNi0uMDQ2LS4xNjMtLjA0NS0uMTY4LS4wNDMtLjE3Mi0uMDQzLS4xNzUtLjA0Mi0uMTc5LS4wNDEtLjE4My0uMDQtLjE4Ny0uMDM4LS4xOTEtLjAzOC0uMTk0LS4wMzYtLjE5OC0uMDM0LS4yMDItLjAzMy0uMjA1LS4wMzItLjIxLS4wMzEtLjIxMi0uMDI4LS4yMTYtLjAyNy0uMjItLjAyNi0uMjI0LS4wMjMtLjIyNi0uMDIyLS4yMzEtLjAyMS0uMjMzLS4wMTgtLjIzNy0uMDE2LS4yNDEtLjAxNC0uMjQ0LS4wMTItLjI0Ny0uMDExLS4yNS0uMDA4LS4yNTQtLjAwNS0uMjU3LS4wMDQtLjI2LS4wMDEtLjI2LjAwMXoiIHRyYW5zZm9ybT0ic2NhbGUoLjUpIj48L3BhdGg+PC9zeW1ib2w+PC9kZWZzPjxkZWZzPjxzeW1ib2wgaGVpZ2h0PSIyNCIgd2lkdGg9IjI0IiBpZD0iY2xvY2siPjxwYXRoIGQ9Ik0xMiAyYzUuNTE0IDAgMTAgNC40ODYgMTAgMTBzLTQuNDg2IDEwLTEwIDEwLTEwLTQuNDg2LTEwLTEwIDQuNDg2LTEwIDEwLTEwem0wLTJjLTYuNjI3IDAtMTIgNS4zNzMtMTIgMTJzNS4zNzMgMTIgMTIgMTIgMTItNS4zNzMgMTItMTItNS4zNzMtMTItMTItMTJ6bTUuODQ4IDEyLjQ1OWMuMjAyLjAzOC4yMDIuMzMzLjAwMS4zNzItMS45MDcuMzYxLTYuMDQ1IDEuMTExLTYuNTQ3IDEuMTExLS43MTkgMC0xLjMwMS0uNTgyLTEuMzAxLTEuMzAxIDAtLjUxMi43Ny01LjQ0NyAxLjEyNS03LjQ0NS4wMzQtLjE5Mi4zMTItLjE4MS4zNDMuMDE0bC45ODUgNi4yMzggNS4zOTQgMS4wMTF6IiB0cmFuc2Zvcm09InNjYWxlKC41KSI+PC9wYXRoPjwvc3ltYm9sPjwvZGVmcz48ZGVmcz48bWFya2VyIG9yaWVudD0iYXV0by1zdGFydC1yZXZlcnNlIiBtYXJrZXJIZWlnaHQ9IjEyIiBtYXJrZXJXaWR0aD0iMTIiIG1hcmtlclVuaXRzPSJ1c2VyU3BhY2VPblVzZSIgcmVmWT0iNSIgcmVmWD0iNy45IiBpZD0iYXJyb3doZWFkIj48cGF0aCBkPSJNIC0xIDAgTCAxMCA1IEwgMCAxMCB6Ij48L3BhdGg+PC9tYXJrZXI+PC9kZWZzPjxkZWZzPjxtYXJrZXIgcmVmWT0iNC41IiByZWZYPSI0IiBvcmllbnQ9ImF1dG8iIG1hcmtlckhlaWdodD0iOCIgbWFya2VyV2lkdGg9IjE1IiBpZD0iY3Jvc3NoZWFkIj48cGF0aCBzdHlsZT0ic3Ryb2tlLWRhc2hhcnJheTogMCwgMDsiIGQ9Ik0gMSwyIEwgNiw3IE0gNiwyIEwgMSw3IiBzdHJva2Utd2lkdGg9IjFwdCIgc3Ryb2tlPSIjMDAwMDAwIiBmaWxsPSJub25lIj48L3BhdGg+PC9tYXJrZXI+PC9kZWZzPjxkZWZzPjxtYXJrZXIgb3JpZW50PSJhdXRvIiBtYXJrZXJIZWlnaHQ9IjI4IiBtYXJrZXJXaWR0aD0iMjAiIHJlZlk9IjciIHJlZlg9IjE1LjUiIGlkPSJmaWxsZWQtaGVhZCI+PHBhdGggZD0iTSAxOCw3IEw5LDEzIEwxNCw3IEw5LDEgWiI+PC9wYXRoPjwvbWFya2VyPjwvZGVmcz48ZGVmcz48bWFya2VyIG9yaWVudD0iYXV0byIgbWFya2VySGVpZ2h0PSI0MCIgbWFya2VyV2lkdGg9IjYwIiByZWZZPSIxNSIgcmVmWD0iMTUiIGlkPSJzZXF1ZW5jZW51bWJlciI+PGNpcmNsZSByPSI2IiBjeT0iMTUiIGN4PSIxNSI+PC9jaXJjbGU+PC9tYXJrZXI+PC9kZWZzPjxnPjxsaW5lIGNsYXNzPSJsb29wTGluZSIgeTI9IjE2OSIgeDI9IjExMzMiIHkxPSIxNjkiIHgxPSI2NCI+PC9saW5lPjxsaW5lIGNsYXNzPSJsb29wTGluZSIgeTI9Ijk2NSIgeDI9IjExMzMiIHkxPSIxNjkiIHgxPSIxMTMzIj48L2xpbmU+PGxpbmUgY2xhc3M9Imxvb3BMaW5lIiB5Mj0iOTY1IiB4Mj0iMTEzMyIgeTE9Ijk2NSIgeDE9IjY0Ij48L2xpbmU+PGxpbmUgY2xhc3M9Imxvb3BMaW5lIiB5Mj0iOTY1IiB4Mj0iNjQiIHkxPSIxNjkiIHgxPSI2NCI+PC9saW5lPjxsaW5lIHN0eWxlPSJzdHJva2UtZGFzaGFycmF5OiAzLCAzOyIgY2xhc3M9Imxvb3BMaW5lIiB5Mj0iMzc1IiB4Mj0iMTEzMyIgeTE9IjM3NSIgeDE9IjY0Ij48L2xpbmU+PHBvbHlnb24gY2xhc3M9ImxhYmVsQm94IiBwb2ludHM9IjY0LDE2OSAxMTQsMTY5IDExNCwxODIgMTA1LjYsMTg5IDY0LDE4OSI+PC9wb2x5Z29uPjx0ZXh0IHN0eWxlPSJmb250LXNpemU6IDE2cHg7IGZvbnQtd2VpZ2h0OiA0MDA7IiBjbGFzcz0ibGFiZWxUZXh0IiBhbGlnbm1lbnQtYmFzZWxpbmU9Im1pZGRsZSIgZG9taW5hbnQtYmFzZWxpbmU9Im1pZGRsZSIgdGV4dC1hbmNob3I9Im1pZGRsZSIgeT0iMTgyIiB4PSI4OSI+YWx0PC90ZXh0Pjx0ZXh0IHN0eWxlPSJmb250LXNpemU6IDE2cHg7IGZvbnQtd2VpZ2h0OiA0MDA7IiBjbGFzcz0ibG9vcFRleHQiIHRleHQtYW5jaG9yPSJtaWRkbGUiIHk9IjE4NyIgeD0iNjIzLjUiPjx0c3BhbiB4PSI2MjMuNSI+W1BldGljacOzbiBhdXRlbnRpY2FkYV08L3RzcGFuPjwvdGV4dD48dGV4dCBzdHlsZT0iZm9udC1zaXplOiAxNnB4OyBmb250LXdlaWdodDogNDAwOyIgY2xhc3M9Imxvb3BUZXh0IiB0ZXh0LWFuY2hvcj0ibWlkZGxlIiB5PSIzOTMiIHg9IjU5OC41Ij5bUGV0aWNpw7NuIG5vIGF1dGVudGljYWRhXTwvdGV4dD48L2c+PGcgbmFtZT0iVSIgY2xhc3M9ImFjdG9yLW1hbiBhY3Rvci10b3AiPjxsaW5lIHkyPSI0NSIgeDI9Ijc1IiB5MT0iMjUiIHgxPSI3NSIgaWQ9ImFjdG9yLW1hbi10b3JzbzUxIj48L2xpbmU+PGxpbmUgeTI9IjMzIiB4Mj0iOTMiIHkxPSIzMyIgeDE9IjU3IiBpZD0iYWN0b3ItbWFuLWFybXM1MSI+PC9saW5lPjxsaW5lIHkyPSI0NSIgeDI9Ijc1IiB5MT0iNjAiIHgxPSI1NyI+PC9saW5lPjxsaW5lIHkyPSI2MCIgeDI9IjkxIiB5MT0iNDUiIHgxPSI3NSI+PC9saW5lPjxjaXJjbGUgaGVpZ2h0PSI2NSIgd2lkdGg9IjE1MCIgcj0iMTUiIGN5PSIxMCIgY3g9Ijc1Ij48L2NpcmNsZT48dGV4dCBzdHlsZT0idGV4dC1hbmNob3I6IG1pZGRsZTsgZm9udC1zaXplOiAxNnB4OyBmb250LXdlaWdodDogNDAwOyIgY2xhc3M9ImFjdG9yIGFjdG9yLW1hbiIgYWxpZ25tZW50LWJhc2VsaW5lPSJjZW50cmFsIiBkb21pbmFudC1iYXNlbGluZT0iY2VudHJhbCIgeT0iNjcuNSIgeD0iNzUiPjx0c3BhbiBkeT0iMCIgeD0iNzUiPlVzdWFyaW88L3RzcGFuPjwvdGV4dD48L2c+PHRleHQgc3R5bGU9ImZvbnQtc2l6ZTogMTZweDsgZm9udC13ZWlnaHQ6IDQwMDsiIGR5PSIxZW0iIGNsYXNzPSJtZXNzYWdlVGV4dCIgYWxpZ25tZW50LWJhc2VsaW5lPSJtaWRkbGUiIGRvbWluYW50LWJhc2VsaW5lPSJtaWRkbGUiIHRleHQtYW5jaG9yPSJtaWRkbGUiIHk9IjgwIiB4PSIxODciPkludGVudGEgYWNjZWRlcjwvdGV4dD48dGV4dCBzdHlsZT0iZm9udC1zaXplOiAxNnB4OyBmb250LXdlaWdodDogNDAwOyIgZHk9IjFlbSIgY2xhc3M9Im1lc3NhZ2VUZXh0IiBhbGlnbm1lbnQtYmFzZWxpbmU9Im1pZGRsZSIgZG9taW5hbnQtYmFzZWxpbmU9Im1pZGRsZSIgdGV4dC1hbmNob3I9Im1pZGRsZSIgeT0iOTkiIHg9IjE4NyI+YSB1biByZWN1cnNvPC90ZXh0Pjx0ZXh0IHN0eWxlPSJmb250LXNpemU6IDE2cHg7IGZvbnQtd2VpZ2h0OiA0MDA7IiBkeT0iMWVtIiBjbGFzcz0ibWVzc2FnZVRleHQiIGFsaWdubWVudC1iYXNlbGluZT0ibWlkZGxlIiBkb21pbmFudC1iYXNlbGluZT0ibWlkZGxlIiB0ZXh0LWFuY2hvcj0ibWlkZGxlIiB5PSIxMTgiIHg9IjE4NyI+ZGUgbGEgc29sdWNpw7NuPC90ZXh0PjxsaW5lIHN0eWxlPSJmaWxsOiBub25lOyIgbWFya2VyLWVuZD0idXJsKCNhcnJvd2hlYWQpIiBzdHJva2U9Im5vbmUiIHN0cm9rZS13aWR0aD0iMiIgY2xhc3M9Im1lc3NhZ2VMaW5lMCIgeTI9IjE1OSIgeDI9IjI5OCIgeTE9IjE1OSIgeDE9Ijc2Ij48L2xpbmU+PHRleHQgc3R5bGU9ImZvbnQtc2l6ZTogMTZweDsgZm9udC13ZWlnaHQ6IDQwMDsiIGR5PSIxZW0iIGNsYXNzPSJtZXNzYWdlVGV4dCIgYWxpZ25tZW50LWJhc2VsaW5lPSJtaWRkbGUiIGRvbWluYW50LWJhc2VsaW5lPSJtaWRkbGUiIHRleHQtYW5jaG9yPSJtaWRkbGUiIHk9IjIyMCIgeD0iMzAzIj5WYWxpZGEgdG9rZW4gaW50ZXJubzwvdGV4dD48cGF0aCBzdHlsZT0iZmlsbDogbm9uZTsiIG1hcmtlci1lbmQ9InVybCgjYXJyb3doZWFkKSIgc3Ryb2tlPSJub25lIiBzdHJva2Utd2lkdGg9IjIiIGNsYXNzPSJtZXNzYWdlTGluZTAiIGQ9Ik0gMzAzLDI1NyBDIDM2MywyNDcgMzYzLDI4NyAzMDMsMjc3Ij48L3BhdGg+PHRleHQgc3R5bGU9ImZvbnQtc2l6ZTogMTZweDsgZm9udC13ZWlnaHQ6IDQwMDsiIGR5PSIxZW0iIGNsYXNzPSJtZXNzYWdlVGV4dCIgYWxpZ25tZW50LWJhc2VsaW5lPSJtaWRkbGUiIGRvbWluYW50LWJhc2VsaW5lPSJtaWRkbGUiIHRleHQtYW5jaG9yPSJtaWRkbGUiIHk9IjMwMiIgeD0iMTkwIj5QZXJtaXRlIGNvbnRpbnVhcjwvdGV4dD48dGV4dCBzdHlsZT0iZm9udC1zaXplOiAxNnB4OyBmb250LXdlaWdodDogNDAwOyIgZHk9IjFlbSIgY2xhc3M9Im1lc3NhZ2VUZXh0IiBhbGlnbm1lbnQtYmFzZWxpbmU9Im1pZGRsZSIgZG9taW5hbnQtYmFzZWxpbmU9Im1pZGRsZSIgdGV4dC1hbmNob3I9Im1pZGRsZSIgeT0iMzIxIiB4PSIxOTAiPmNvbiBsYSB0cmFuc2FjY2nDs248L3RleHQ+PGxpbmUgc3R5bGU9ImZpbGw6IG5vbmU7IiBtYXJrZXItZW5kPSJ1cmwoI2Fycm93aGVhZCkiIHN0cm9rZT0ibm9uZSIgc3Ryb2tlLXdpZHRoPSIyIiBjbGFzcz0ibWVzc2FnZUxpbmUwIiB5Mj0iMzYwIiB4Mj0iNzkiIHkxPSIzNjAiIHgxPSIzMDEiPjwvbGluZT48dGV4dCBzdHlsZT0iZm9udC1zaXplOiAxNnB4OyBmb250LXdlaWdodDogNDAwOyIgZHk9IjFlbSIgY2xhc3M9Im1lc3NhZ2VUZXh0IiBhbGlnbm1lbnQtYmFzZWxpbmU9Im1pZGRsZSIgZG9taW5hbnQtYmFzZWxpbmU9Im1pZGRsZSIgdGV4dC1hbmNob3I9Im1pZGRsZSIgeT0iNDIxIiB4PSI0MzIiPlJlZGlyaWdlIHBhcmEgYXV0ZW50aWNhY2nDs248L3RleHQ+PGxpbmUgc3R5bGU9ImZpbGw6IG5vbmU7IiBtYXJrZXItZW5kPSJ1cmwoI2Fycm93aGVhZCkiIHN0cm9rZT0ibm9uZSIgc3Ryb2tlLXdpZHRoPSIyIiBjbGFzcz0ibWVzc2FnZUxpbmUwIiB5Mj0iNDU4IiB4Mj0iNTYxIiB5MT0iNDU4IiB4MT0iMzAzIj48L2xpbmU+PHRleHQgc3R5bGU9ImZvbnQtc2l6ZTogMTZweDsgZm9udC13ZWlnaHQ6IDQwMDsiIGR5PSIxZW0iIGNsYXNzPSJtZXNzYWdlVGV4dCIgYWxpZ25tZW50LWJhc2VsaW5lPSJtaWRkbGUiIGRvbWluYW50LWJhc2VsaW5lPSJtaWRkbGUiIHRleHQtYW5jaG9yPSJtaWRkbGUiIHk9IjQ3MyIgeD0iNzIwIj5JbnZvY2EgYWRhcHRhZG9yIGNvcnJlc3BvbmRpZW50ZTwvdGV4dD48bGluZSBzdHlsZT0iZmlsbDogbm9uZTsiIG1hcmtlci1lbmQ9InVybCgjYXJyb3doZWFkKSIgc3Ryb2tlPSJub25lIiBzdHJva2Utd2lkdGg9IjIiIGNsYXNzPSJtZXNzYWdlTGluZTAiIHkyPSI1MTAiIHgyPSI4NzQiIHkxPSI1MTAiIHgxPSI1NjYiPjwvbGluZT48dGV4dCBzdHlsZT0iZm9udC1zaXplOiAxNnB4OyBmb250LXdlaWdodDogNDAwOyIgZHk9IjFlbSIgY2xhc3M9Im1lc3NhZ2VUZXh0IiBhbGlnbm1lbnQtYmFzZWxpbmU9Im1pZGRsZSIgZG9taW5hbnQtYmFzZWxpbmU9Im1pZGRsZSIgdGV4dC1hbmNob3I9Im1pZGRsZSIgeT0iNTI1IiB4PSI5OTkiPlZlcmlmaWNhIGNyZWRlbmNpYWxlczwvdGV4dD48bGluZSBzdHlsZT0iZmlsbDogbm9uZTsiIG1hcmtlci1lbmQ9InVybCgjYXJyb3doZWFkKSIgc3Ryb2tlPSJub25lIiBzdHJva2Utd2lkdGg9IjIiIGNsYXNzPSJtZXNzYWdlTGluZTAiIHkyPSI1NjIiIHgyPSIxMTE4IiB5MT0iNTYyIiB4MT0iODc5Ij48L2xpbmU+PHRleHQgc3R5bGU9ImZvbnQtc2l6ZTogMTZweDsgZm9udC13ZWlnaHQ6IDQwMDsiIGR5PSIxZW0iIGNsYXNzPSJtZXNzYWdlVGV4dCIgYWxpZ25tZW50LWJhc2VsaW5lPSJtaWRkbGUiIGRvbWluYW50LWJhc2VsaW5lPSJtaWRkbGUiIHRleHQtYW5jaG9yPSJtaWRkbGUiIHk9IjU3NyIgeD0iMTAwMiI+RGV2dWVsdmUgYXNlcmNpw7NuL3Rva2VuPC90ZXh0PjxsaW5lIHN0eWxlPSJmaWxsOiBub25lOyIgbWFya2VyLWVuZD0idXJsKCNhcnJvd2hlYWQpIiBzdHJva2U9Im5vbmUiIHN0cm9rZS13aWR0aD0iMiIgY2xhc3M9Im1lc3NhZ2VMaW5lMCIgeTI9IjYxNCIgeDI9Ijg4MiIgeTE9IjYxNCIgeDE9IjExMjEiPjwvbGluZT48dGV4dCBzdHlsZT0iZm9udC1zaXplOiAxNnB4OyBmb250LXdlaWdodDogNDAwOyIgZHk9IjFlbSIgY2xhc3M9Im1lc3NhZ2VUZXh0IiBhbGlnbm1lbnQtYmFzZWxpbmU9Im1pZGRsZSIgZG9taW5hbnQtYmFzZWxpbmU9Im1pZGRsZSIgdGV4dC1hbmNob3I9Im1pZGRsZSIgeT0iNjI5IiB4PSI3MjMiPkRldnVlbHZlIGFzZXJjacOzbi90b2tlbjwvdGV4dD48bGluZSBzdHlsZT0iZmlsbDogbm9uZTsiIG1hcmtlci1lbmQ9InVybCgjYXJyb3doZWFkKSIgc3Ryb2tlPSJub25lIiBzdHJva2Utd2lkdGg9IjIiIGNsYXNzPSJtZXNzYWdlTGluZTAiIHkyPSI2NjYiIHgyPSI1NjkiIHkxPSI2NjYiIHgxPSI4NzciPjwvbGluZT48dGV4dCBzdHlsZT0iZm9udC1zaXplOiAxNnB4OyBmb250LXdlaWdodDogNDAwOyIgZHk9IjFlbSIgY2xhc3M9Im1lc3NhZ2VUZXh0IiBhbGlnbm1lbnQtYmFzZWxpbmU9Im1pZGRsZSIgZG9taW5hbnQtYmFzZWxpbmU9Im1pZGRsZSIgdGV4dC1hbmNob3I9Im1pZGRsZSIgeT0iNjgxIiB4PSI1NjYiPkdlbmVyYSB0b2tlbiBpbnRlcm5vPC90ZXh0PjxwYXRoIHN0eWxlPSJmaWxsOiBub25lOyIgbWFya2VyLWVuZD0idXJsKCNhcnJvd2hlYWQpIiBzdHJva2U9Im5vbmUiIHN0cm9rZS13aWR0aD0iMiIgY2xhc3M9Im1lc3NhZ2VMaW5lMCIgZD0iTSA1NjYsNzE4IEMgNjI2LDcwOCA2MjYsNzQ4IDU2Niw3MzgiPjwvcGF0aD48dGV4dCBzdHlsZT0iZm9udC1zaXplOiAxNnB4OyBmb250LXdlaWdodDogNDAwOyIgZHk9IjFlbSIgY2xhc3M9Im1lc3NhZ2VUZXh0IiBhbGlnbm1lbnQtYmFzZWxpbmU9Im1pZGRsZSIgZG9taW5hbnQtYmFzZWxpbmU9Im1pZGRsZSIgdGV4dC1hbmNob3I9Im1pZGRsZSIgeT0iNzYzIiB4PSI0MzUiPkRldnVlbHZlIHRva2VuIGludGVybm88L3RleHQ+PGxpbmUgc3R5bGU9ImZpbGw6IG5vbmU7IiBtYXJrZXItZW5kPSJ1cmwoI2Fycm93aGVhZCkiIHN0cm9rZT0ibm9uZSIgc3Ryb2tlLXdpZHRoPSIyIiBjbGFzcz0ibWVzc2FnZUxpbmUwIiB5Mj0iODAwIiB4Mj0iMzA2IiB5MT0iODAwIiB4MT0iNTY0Ij48L2xpbmU+PHRleHQgc3R5bGU9ImZvbnQtc2l6ZTogMTZweDsgZm9udC13ZWlnaHQ6IDQwMDsiIGR5PSIxZW0iIGNsYXNzPSJtZXNzYWdlVGV4dCIgYWxpZ25tZW50LWJhc2VsaW5lPSJtaWRkbGUiIGRvbWluYW50LWJhc2VsaW5lPSJtaWRkbGUiIHRleHQtYW5jaG9yPSJtaWRkbGUiIHk9IjgxNSIgeD0iMzAzIj5WYWxpZGEgdG9rZW4gaW50ZXJubzwvdGV4dD48cGF0aCBzdHlsZT0iZmlsbDogbm9uZTsiIG1hcmtlci1lbmQ9InVybCgjYXJyb3doZWFkKSIgc3Ryb2tlPSJub25lIiBzdHJva2Utd2lkdGg9IjIiIGNsYXNzPSJtZXNzYWdlTGluZTAiIGQ9Ik0gMzAzLDg1MiBDIDM2Myw4NDIgMzYzLDg4MiAzMDMsODcyIj48L3BhdGg+PHRleHQgc3R5bGU9ImZvbnQtc2l6ZTogMTZweDsgZm9udC13ZWlnaHQ6IDQwMDsiIGR5PSIxZW0iIGNsYXNzPSJtZXNzYWdlVGV4dCIgYWxpZ25tZW50LWJhc2VsaW5lPSJtaWRkbGUiIGRvbWluYW50LWJhc2VsaW5lPSJtaWRkbGUiIHRleHQtYW5jaG9yPSJtaWRkbGUiIHk9Ijg5NyIgeD0iMTkwIj5QZXJtaXRlIGNvbnRpbnVhcjwvdGV4dD48dGV4dCBzdHlsZT0iZm9udC1zaXplOiAxNnB4OyBmb250LXdlaWdodDogNDAwOyIgZHk9IjFlbSIgY2xhc3M9Im1lc3NhZ2VUZXh0IiBhbGlnbm1lbnQtYmFzZWxpbmU9Im1pZGRsZSIgZG9taW5hbnQtYmFzZWxpbmU9Im1pZGRsZSIgdGV4dC1hbmNob3I9Im1pZGRsZSIgeT0iOTE2IiB4PSIxOTAiPmNvbiBsYSB0cmFuc2FjYzwvdGV4dD48bGluZSBzdHlsZT0iZmlsbDogbm9uZTsiIG1hcmtlci1lbmQ9InVybCgjYXJyb3doZWFkKSIgc3Ryb2tlPSJub25lIiBzdHJva2Utd2lkdGg9IjIiIGNsYXNzPSJtZXNzYWdlTGluZTAiIHkyPSI5NTUiIHgyPSI3OSIgeTE9Ijk1NSIgeDE9IjMwMSI+PC9saW5lPjxnIG5hbWU9IlUiIGNsYXNzPSJhY3Rvci1tYW4gYWN0b3ItYm90dG9tIj48bGluZSB5Mj0iMTAzMCIgeDI9Ijc1IiB5MT0iMTAxMCIgeDE9Ijc1IiBpZD0iYWN0b3ItbWFuLXRvcnNvNTUiPjwvbGluZT48bGluZSB5Mj0iMTAxOCIgeDI9IjkzIiB5MT0iMTAxOCIgeDE9IjU3IiBpZD0iYWN0b3ItbWFuLWFybXM1NSI+PC9saW5lPjxsaW5lIHkyPSIxMDMwIiB4Mj0iNzUiIHkxPSIxMDQ1IiB4MT0iNTciPjwvbGluZT48bGluZSB5Mj0iMTA0NSIgeDI9IjkxIiB5MT0iMTAzMCIgeDE9Ijc1Ij48L2xpbmU+PGNpcmNsZSBoZWlnaHQ9IjY1IiB3aWR0aD0iMTUwIiByPSIxNSIgY3k9Ijk5NSIgY3g9Ijc1Ij48L2NpcmNsZT48dGV4dCBzdHlsZT0idGV4dC1hbmNob3I6IG1pZGRsZTsgZm9udC1zaXplOiAxNnB4OyBmb250LXdlaWdodDogNDAwOyIgY2xhc3M9ImFjdG9yIGFjdG9yLW1hbiIgYWxpZ25tZW50LWJhc2VsaW5lPSJjZW50cmFsIiBkb21pbmFudC1iYXNlbGluZT0iY2VudHJhbCIgeT0iMTA1Mi41IiB4PSI3NSI+PHRzcGFuIGR5PSIwIiB4PSI3NSI+VXN1YXJpbzwvdHNwYW4+PC90ZXh0PjwvZz48L3N2Zz4=;" vertex="1" parent="1">
            <mxGeometry x="160" y="110" width="1708.5" height="1175" as="geometry" />
          </mxCell>
        </UserObject>
      </root>
    </mxGraphModel>
  </diagram>
</mxfile>
